<?xml version="1.0" encoding="UTF-8"?>
<svg xmlns="http://www.w3.org/2000/svg" xmlns:xlink="http://www.w3.org/1999/xlink" viewBox="0 0 1920 1080">
  <defs>
    <style>
      .cls-1 {
        mask: url(#mask);
      }

      .cls-2 {
        filter: url(#luminosity-noclip);
      }

      .cls-3 {
        filter: url(#drop-shadow-1);
      }

      .cls-4 {
        filter: url(#drop-shadow-3);
      }

      .cls-5 {
        filter: url(#drop-shadow-2);
      }

      .cls-6 {
        filter: url(#luminosity-noclip-3);
      }

      .cls-7 {
        filter: url(#luminosity-noclip-9);
      }

      .cls-8 {
        filter: url(#luminosity-noclip-7);
      }

      .cls-9 {
        filter: url(#luminosity-noclip-5);
      }

      .cls-10 {
        font-size: 56.4838px;
      }

      .cls-10, .cls-11 {
        font-family: Roboto-Bold, Roboto;
        font-weight: 700;
      }

      .cls-12 {
        fill: url(#linear-gradient-8);
      }

      .cls-13 {
        fill: url(#linear-gradient-6);
      }

      .cls-14 {
        fill: url(#linear-gradient-4);
      }

      .cls-15 {
        fill: url(#linear-gradient-3);
      }

      .cls-16 {
        fill: url(#linear-gradient-2);
      }

      .cls-16, .cls-17, .cls-18, .cls-19 {
        mix-blend-mode: multiply;
      }

      .cls-17 {
        fill: url(#linear-gradient-9);
      }

      .cls-18 {
        fill: url(#linear-gradient-5);
      }

      .cls-19 {
        fill: url(#linear-gradient-7);
      }

      .cls-20 {
        fill: url(#linear-gradient);
      }

      .cls-21 {
        opacity: .9;
      }

      .cls-21, .cls-22 {
        fill: #ec1c24;
      }

      .cls-23, .cls-24, .cls-11 {
        fill: #dfebeb;
      }

      .cls-25 {
        mask: url(#mask-2);
      }

      .cls-26 {
        mask: url(#mask-3);
      }

      .cls-27 {
        mask: url(#mask-4);
      }

      .cls-28 {
        mask: url(#mask-5);
      }

      .cls-29 {
        mask: url(#mask-7);
      }

      .cls-30 {
        mask: url(#mask-6);
      }

      .cls-31 {
        mask: url(#mask-1);
      }

      .cls-32 {
        mask: url(#mask-8);
      }

      .cls-33, .cls-34, .cls-35, .cls-36 {
        fill: #fff;
      }

      .cls-34 {
        filter: url(#drop-shadow-4);
      }

      .cls-34, .cls-35, .cls-36 {
        font-size: 47.3059px;
      }

      .cls-34, .cls-35, .cls-36, .cls-24 {
        font-family: Roboto-Regular, Roboto;
      }

      .cls-35 {
        filter: url(#drop-shadow-6);
      }

      .cls-36 {
        filter: url(#drop-shadow-5);
      }

      .cls-37 {
        fill: url(#linear-gradient-10);
      }

      .cls-24 {
        font-size: 60px;
      }

      .cls-38 {
        letter-spacing: 0em;
      }

      .cls-39 {
        fill: #1a475f;
      }

      .cls-40 {
        fill: #43c6e7;
      }

      .cls-11 {
        font-size: 83.695px;
      }

      .cls-41 {
        letter-spacing: -.1016em;
      }

      .cls-42 {
        letter-spacing: -.063em;
      }

      .cls-43 {
        letter-spacing: -.0225em;
      }

      .cls-44 {
        letter-spacing: -.0151em;
      }

      .cls-45 {
        letter-spacing: -.0293em;
      }

      .cls-46 {
        letter-spacing: -.0054em;
      }

      .cls-47 {
        letter-spacing: -.0137em;
      }

      .cls-48 {
        letter-spacing: -.0137em;
      }
    </style>
    <linearGradient id="linear-gradient" x1="959.5" y1="883" x2="959.5" y2="0" gradientUnits="userSpaceOnUse">
      <stop offset=".0819" stop-color="#ff241a"/>
      <stop offset=".1183" stop-color="#e4221b"/>
      <stop offset=".1998" stop-color="#b01e1e"/>
      <stop offset=".2848" stop-color="#811b20"/>
      <stop offset=".3713" stop-color="#591823"/>
      <stop offset=".4599" stop-color="#391624"/>
      <stop offset=".5511" stop-color="#201526"/>
      <stop offset=".646" stop-color="#0e1327"/>
      <stop offset=".7471" stop-color="#041327"/>
      <stop offset=".8651" stop-color="#011328"/>
    </linearGradient>
    <filter id="luminosity-noclip" x="98.2137" y="642.5084" width=".5826" height=".2051" color-interpolation-filters="sRGB" filterUnits="userSpaceOnUse">
      <feFlood flood-color="#fff" result="bg"/>
      <feBlend in="SourceGraphic" in2="bg"/>
    </filter>
    <filter id="luminosity-noclip-2" x="98.2137" y="-8732" width=".5826" height="32766" color-interpolation-filters="sRGB" filterUnits="userSpaceOnUse">
      <feFlood flood-color="#fff" result="bg"/>
      <feBlend in="SourceGraphic" in2="bg"/>
    </filter>
    <mask id="mask-1" x="98.2137" y="-8732" width=".5826" height="32766" maskUnits="userSpaceOnUse"/>
    <linearGradient id="linear-gradient-2" x1="95.7707" y1="487.7249" x2="101.5729" y2="816.5504" gradientUnits="userSpaceOnUse">
      <stop offset="0" stop-color="#fff"/>
      <stop offset=".097" stop-color="#efefef"/>
      <stop offset=".2865" stop-color="#c5c5c5"/>
      <stop offset=".55" stop-color="#818181"/>
      <stop offset=".8742" stop-color="#252525"/>
      <stop offset="1" stop-color="#000"/>
    </linearGradient>
    <mask id="mask" x="98.2137" y="642.5084" width=".5826" height=".2051" maskUnits="userSpaceOnUse">
      <g class="cls-2">
        <g class="cls-31">
          <path class="cls-16" d="M98.6315,642.5084c.0541.0504.1094.0995.1648.1484-.1912.0277-.3863.0479-.5826.0567.1473-.0567.2857-.1246.4178-.2051Z"/>
        </g>
      </g>
    </mask>
    <linearGradient id="linear-gradient-3" x1="95.7707" y1="487.7249" x2="101.5729" y2="816.5504" gradientUnits="userSpaceOnUse">
      <stop offset="0" stop-color="#221714"/>
      <stop offset=".2346" stop-color="#242323"/>
      <stop offset=".6904" stop-color="#2c424d"/>
      <stop offset="1" stop-color="#325b6d"/>
    </linearGradient>
    <filter id="drop-shadow-1" filterUnits="userSpaceOnUse">
      <feOffset dx="1" dy="1"/>
      <feGaussianBlur result="blur" stdDeviation="2"/>
      <feFlood flood-color="#000" flood-opacity=".6"/>
      <feComposite in2="blur" operator="in"/>
      <feComposite in="SourceGraphic"/>
    </filter>
    <filter id="drop-shadow-2" filterUnits="userSpaceOnUse">
      <feOffset dx="1" dy="1"/>
      <feGaussianBlur result="blur-2" stdDeviation="2"/>
      <feFlood flood-color="#000" flood-opacity=".6"/>
      <feComposite in2="blur-2" operator="in"/>
      <feComposite in="SourceGraphic"/>
    </filter>
    <filter id="drop-shadow-3" filterUnits="userSpaceOnUse">
      <feOffset dx="1" dy="1"/>
      <feGaussianBlur result="blur-3" stdDeviation="2"/>
      <feFlood flood-color="#000" flood-opacity=".6"/>
      <feComposite in2="blur-3" operator="in"/>
      <feComposite in="SourceGraphic"/>
    </filter>
    <linearGradient id="linear-gradient-4" x1="959.9425" y1="881.6643" x2="959.9425" y2="1095.8952" gradientUnits="userSpaceOnUse">
      <stop offset="0" stop-color="#0a1a22"/>
      <stop offset=".1747" stop-color="#081922" stop-opacity=".7494"/>
      <stop offset=".6597" stop-color="#061922" stop-opacity=".1981"/>
      <stop offset="1" stop-color="#061922" stop-opacity="0"/>
    </linearGradient>
    <filter id="luminosity-noclip-3" x="127.2092" y="883" width="1250.7818" height="75.235" color-interpolation-filters="sRGB" filterUnits="userSpaceOnUse">
      <feFlood flood-color="#fff" result="bg"/>
      <feBlend in="SourceGraphic" in2="bg"/>
    </filter>
    <filter id="luminosity-noclip-4" x="127.2092" y="-8732" width="1250.7818" height="32766" color-interpolation-filters="sRGB" filterUnits="userSpaceOnUse">
      <feFlood flood-color="#fff" result="bg"/>
      <feBlend in="SourceGraphic" in2="bg"/>
    </filter>
    <mask id="mask-3" x="127.2092" y="-8732" width="1250.7818" height="32766" maskUnits="userSpaceOnUse"/>
    <linearGradient id="linear-gradient-5" x1="-564.1333" y1="920.6175" x2="686.6485" y2="920.6175" gradientTransform="translate(691.3425)" gradientUnits="userSpaceOnUse">
      <stop offset="0" stop-color="#fff"/>
      <stop offset=".0899" stop-color="#ddd"/>
      <stop offset=".2821" stop-color="#9b9b9b"/>
      <stop offset=".4649" stop-color="#636363"/>
      <stop offset=".6331" stop-color="#383838"/>
      <stop offset=".7835" stop-color="#191919"/>
      <stop offset=".9109" stop-color="#060606"/>
      <stop offset="1" stop-color="#000"/>
    </linearGradient>
    <mask id="mask-2" x="127.2092" y="883" width="1250.7818" height="75.235" maskUnits="userSpaceOnUse">
      <g class="cls-6">
        <g class="cls-26">
          <rect class="cls-18" x="127.2092" y="883" width="1250.7818" height="75.235"/>
        </g>
      </g>
    </mask>
    <linearGradient id="linear-gradient-6" x1="-564.1333" y1="920.6175" x2="686.6485" y2="920.6175" gradientTransform="translate(691.3425)" gradientUnits="userSpaceOnUse">
      <stop offset=".1927" stop-color="#ec1c24" stop-opacity=".95"/>
      <stop offset=".36" stop-color="#c83b4e" stop-opacity=".7308"/>
      <stop offset=".6742" stop-color="#877399" stop-opacity=".3408"/>
      <stop offset=".8947" stop-color="#5f96c8" stop-opacity=".0952"/>
      <stop offset="1" stop-color="#50a4db" stop-opacity="0"/>
    </linearGradient>
    <filter id="luminosity-noclip-5" x="127.2092" y="1004.6296" width="1250.7818" height="75.8623" color-interpolation-filters="sRGB" filterUnits="userSpaceOnUse">
      <feFlood flood-color="#fff" result="bg"/>
      <feBlend in="SourceGraphic" in2="bg"/>
    </filter>
    <filter id="luminosity-noclip-6" x="127.2092" y="-8732" width="1250.7818" height="32766" color-interpolation-filters="sRGB" filterUnits="userSpaceOnUse">
      <feFlood flood-color="#fff" result="bg"/>
      <feBlend in="SourceGraphic" in2="bg"/>
    </filter>
    <mask id="mask-5" x="127.2092" y="-8732" width="1250.7818" height="32766" maskUnits="userSpaceOnUse"/>
    <linearGradient id="linear-gradient-7" y1="1042.5607" y2="1042.5607" xlink:href="#linear-gradient-5"/>
    <mask id="mask-4" x="127.2092" y="1004.6296" width="1250.7818" height="75.8623" maskUnits="userSpaceOnUse">
      <g class="cls-9">
        <g class="cls-28">
          <rect class="cls-19" x="127.2092" y="1004.6296" width="1250.7818" height="75.8623"/>
        </g>
      </g>
    </mask>
    <linearGradient id="linear-gradient-8" x1="-564.1333" y1="1042.5607" x2="686.6485" y2="1042.5607" gradientTransform="translate(691.3425)" gradientUnits="userSpaceOnUse">
      <stop offset=".3262" stop-color="#ec1c24"/>
      <stop offset=".3981" stop-color="#e81e27" stop-opacity=".9782"/>
      <stop offset=".4853" stop-color="#de2733" stop-opacity=".9153"/>
      <stop offset=".5804" stop-color="#ce3546" stop-opacity=".8111"/>
      <stop offset=".6813" stop-color="#b74961" stop-opacity=".6656"/>
      <stop offset=".7867" stop-color="#9a6283" stop-opacity=".4784"/>
      <stop offset=".8941" stop-color="#7781ac" stop-opacity=".2535"/>
      <stop offset="1" stop-color="#50a4db" stop-opacity="0"/>
    </linearGradient>
    <filter id="luminosity-noclip-7" x="-1.3176" y="883" width="1378.6813" height="197.4919" color-interpolation-filters="sRGB" filterUnits="userSpaceOnUse">
      <feFlood flood-color="#fff" result="bg"/>
      <feBlend in="SourceGraphic" in2="bg"/>
    </filter>
    <filter id="luminosity-noclip-8" x="-1.3176" y="-8732" width="1378.6813" height="32766" color-interpolation-filters="sRGB" filterUnits="userSpaceOnUse">
      <feFlood flood-color="#fff" result="bg"/>
      <feBlend in="SourceGraphic" in2="bg"/>
    </filter>
    <mask id="mask-7" x="-1.3176" y="-8732" width="1378.6813" height="32766" maskUnits="userSpaceOnUse"/>
    <linearGradient id="linear-gradient-9" x1="-692.6601" y1="981.7459" x2="686.0212" y2="981.7459" gradientTransform="translate(691.3425)" gradientUnits="userSpaceOnUse">
      <stop offset="0" stop-color="#fff"/>
      <stop offset=".0861" stop-color="#f7f7f7"/>
      <stop offset=".2178" stop-color="#e1e1e1"/>
      <stop offset=".3788" stop-color="#bfbfbf"/>
      <stop offset=".5628" stop-color="#8e8e8e"/>
      <stop offset=".7664" stop-color="#505050"/>
      <stop offset=".9834" stop-color="#060606"/>
      <stop offset="1" stop-color="#000"/>
    </linearGradient>
    <mask id="mask-6" x="-1.3176" y="883" width="1378.6813" height="197.4919" maskUnits="userSpaceOnUse">
      <g class="cls-8">
        <g class="cls-29">
          <polygon class="cls-17" points="126.5819 958.235 126.5819 883 80.1873 883 80.1873 958.235 -1.3176 958.235 -1.3176 1004.6296 80.1873 1004.6296 80.1873 1080.4919 126.5819 1080.4919 126.5819 1004.6296 1377.3637 1004.6296 1377.3637 958.235 126.5819 958.235"/>
        </g>
      </g>
    </mask>
    <linearGradient id="linear-gradient-10" x1="-692.6601" y1="981.7459" x2="686.0212" y2="981.7459" gradientTransform="translate(691.3425)" gradientUnits="userSpaceOnUse">
      <stop offset="0" stop-color="#fff"/>
      <stop offset=".0861" stop-color="#f9fcfd" stop-opacity=".9697"/>
      <stop offset=".2178" stop-color="#ebf4fa" stop-opacity=".8861"/>
      <stop offset=".3788" stop-color="#d3e8f5" stop-opacity=".7493"/>
      <stop offset=".5628" stop-color="#b1d6ef" stop-opacity=".5592"/>
      <stop offset=".7664" stop-color="#87c0e6" stop-opacity=".3156"/>
      <stop offset=".9834" stop-color="#54a6db" stop-opacity=".0236"/>
      <stop offset="1" stop-color="#50a4db" stop-opacity="0"/>
    </linearGradient>
    <filter id="drop-shadow-4" filterUnits="userSpaceOnUse">
      <feOffset dx="1" dy="1"/>
      <feGaussianBlur result="blur-4" stdDeviation="2"/>
      <feFlood flood-color="#000" flood-opacity=".6"/>
      <feComposite in2="blur-4" operator="in"/>
      <feComposite in="SourceGraphic"/>
    </filter>
    <filter id="drop-shadow-5" filterUnits="userSpaceOnUse">
      <feOffset dx="1" dy="1"/>
      <feGaussianBlur result="blur-5" stdDeviation="2"/>
      <feFlood flood-color="#000" flood-opacity=".6"/>
      <feComposite in2="blur-5" operator="in"/>
      <feComposite in="SourceGraphic"/>
    </filter>
    <filter id="drop-shadow-6" filterUnits="userSpaceOnUse">
      <feOffset dx="1" dy="1"/>
      <feGaussianBlur result="blur-6" stdDeviation="2"/>
      <feFlood flood-color="#000" flood-opacity=".6"/>
      <feComposite in2="blur-6" operator="in"/>
      <feComposite in="SourceGraphic"/>
    </filter>
    <filter id="luminosity-noclip-9" x="337.7185" y="209.2045" width="192.8623" height="70.423" color-interpolation-filters="sRGB" filterUnits="userSpaceOnUse">
      <feFlood flood-color="#fff" result="bg"/>
      <feBlend in="SourceGraphic" in2="bg"/>
    </filter>
    <mask id="mask-8" x="337.7185" y="209.2045" width="192.8623" height="70.423" maskUnits="userSpaceOnUse">
      <g class="cls-7">
        <text class="cls-10" transform="translate(362.7002 264.3203)"><tspan x="0" y="0">E</tspan><tspan class="cls-44" x="31.772" y="0">K</tspan><tspan class="cls-38" x="66.771" y="0">CH</tspan></text>
      </g>
    </mask>
  </defs>
  <g id="Background">
    <rect id="gradient1" class="cls-20" x="-1" width="1921" height="883"/>
    <rect id="gradient2" class="cls-39" x="-1" y="883" width="1921" height="197"/>
    <g class="cls-1">
      <path class="cls-15" d="M98.6315,642.5084c.0541.0504.1094.0995.1648.1484-.1912.0277-.3863.0479-.5826.0567.1473-.0567.2857-.1246.4178-.2051Z"/>
    </g>
    <g id="logo">
      <path class="cls-23" d="M1490.388,181.6056c-.4594-.4753-.9745-.8933-1.5342-1.2449-.7475-.4805-1.535-.8955-2.3539-1.2405-.9572-.4065-1.9489-.7263-2.9632-.9556-1.0859-.2462-2.196-.3697-3.3094-.3682-2.5073,0-4.3512.4588-5.5318,1.3764-1.1696.9087-1.8237,2.3297-1.7533,3.8091-.0323.7873.1608,1.5674.5567,2.2487.4399.6448,1.0314,1.1716,1.7227,1.5342.9206.5025,1.8976.8939,2.9106,1.166,1.1616.3375,2.5204.697,4.0765,1.0871,1.7482.4101,3.4709.9224,5.1592,1.5342,1.3923.4891,2.703,1.1851,3.888,2.0646,1.0436.7902,1.8873,1.8141,2.4635,2.9895.6193,1.3514.9193,2.8273.8767,4.3132.0433,1.7043-.3283,3.3937-1.0827,4.9225-.6978,1.3476-1.7171,2.5023-2.9675,3.362-1.3316.8994-2.8175,1.5458-4.3834,1.9068-1.7506.4139-3.5445.617-5.3433.6049-2.8135.0008-5.6095-.443-8.2846-1.315-2.6083-.8363-5.0523-2.1176-7.2238-3.7872l2.687-5.0584c.6071.5768,1.2709,1.0908,1.9813,1.5342.9556.6136,1.9668,1.1361,3.0201,1.5605,1.2108.5001,2.4578.9074,3.7302,1.2186,1.3678.3398,2.7724.5091,4.1817.5041,2.3378,0,4.1379-.4062,5.4003-1.2186,1.2424-.7634,1.9712-2.1422,1.9024-3.5987.0316-.8506-.2197-1.6876-.7145-2.3802-.5505-.6977-1.2459-1.2675-2.0383-1.6701-1.0308-.5406-2.1111-.981-3.2262-1.315-1.2712-.3857-2.7177-.7905-4.3395-1.2142-1.6606-.4277-3.2954-.9502-4.8962-1.5649-1.257-.4648-2.4286-1.1343-3.4672-1.9813-.8893-.7373-1.6023-1.6644-2.0865-2.7133-.5077-1.1964-.7514-2.4881-.7145-3.7872-.0318-1.6905.3298-3.3652,1.0564-4.8918.6839-1.3966,1.669-2.6241,2.8843-3.5944,1.2838-1.0005,2.7482-1.7446,4.3132-2.1917,1.755-.5057,3.5739-.7552,5.4003-.7408,2.401-.0239,4.7864.389,7.0397,1.2186,2.0182.744,3.924,1.7633,5.6633,3.0289l-2.7002,4.848Z"/>
      <path class="cls-23" d="M1498.6462,191.2928c.007-2.3042.4195-4.5892,1.2186-6.7504.7968-2.2192,2.0092-4.2663,3.5724-6.0315,1.6031-1.8108,3.5565-3.278,5.7422-4.3132,2.3994-1.1268,5.0249-1.6891,7.6753-1.6438,3.419,0,6.3413.7598,8.7667,2.2793,2.3504,1.4253,4.2569,3.4775,5.5055,5.9263l-4.6595,3.121c-.4744-1.0498-1.117-2.0152-1.9024-2.8579-.704-.7477-1.5277-1.3728-2.4372-1.8498-.8673-.4541-1.7938-.7846-2.7528-.9819-.9056-.188-1.8278-.2849-2.7528-.2893-1.801-.0425-3.5839.3674-5.1855,1.1923-1.4548.7694-2.727,1.8427-3.7302,3.1473-1.0128,1.3143-1.7832,2.7987-2.275,4.3834-.5055,1.5741-.7657,3.2166-.7715,4.8699-.0097,1.7927.2959,3.5732.903,5.26.5699,1.5989,1.4204,3.0832,2.5117,4.3834,1.0646,1.2596,2.3701,2.2939,3.8398,3.0421,1.5081.7659,3.1786,1.1568,4.8699,1.1397.9542-.004,1.9046-.1202,2.8317-.3463.9828-.2352,1.9273-.6086,2.8054-1.109.9146-.5253,1.7511-1.1759,2.4854-1.9331.787-.8172,1.4235-1.7669,1.8805-2.8054l4.9225,2.8054c-.5914,1.3999-1.4557,2.668-2.5424,3.7302-1.0977,1.0816-2.345,1.9998-3.7039,2.7265-1.3858.7436-2.858,1.3134-4.3834,1.6964-1.4797.3786-3.0006.573-4.528.5786-2.518.0313-5.006-.5493-7.2501-1.692-2.1502-1.1014-4.072-2.6007-5.6633-4.4184-1.5929-1.828-2.8472-3.9254-3.7039-6.1937-.8612-2.2558-1.2981-4.6514-1.2887-7.066Z"/>
      <path class="cls-23" d="M1548.2922,172.7687h5.1811l14.8158,37.5786h-6.2331l-3.9713-10.2176h-14.5046l-3.9143,10.2176h-6.2989l14.9254-37.5786ZM1556.9187,195.7376l-6.0315-16.1439-6.2463,16.1439h12.2778Z"/>
      <path class="cls-23" d="M1579.4141,183.8806v26.4668h-5.9263v-37.5786h4.6551l21.4785,27.098v-27.0541h6.014v37.526h-4.9444l-21.2769-26.458Z"/>
      <path class="cls-23" d="M1614.6125,210.3473v-37.5786h13.3386c2.7286-.0598,5.4401.4446,7.9646,1.4816,2.1656.9159,4.109,2.2868,5.6984,4.0196,1.5536,1.7199,2.7354,3.7418,3.4716,5.9395.7876,2.3445,1.1816,4.8032,1.166,7.2764.0307,2.6427-.4148,5.2693-1.315,7.7542-.801,2.2107-2.0535,4.2304-3.6777,5.9307-1.6293,1.6664-3.5961,2.9652-5.7685,3.8091-2.4145.9274-4.9838,1.3856-7.5701,1.3501l-13.3079.0175ZM1640.2289,191.4989c.0203-1.8483-.2565-3.688-.8197-5.4485-.4983-1.5729-1.3177-3.0252-2.4065-4.265-1.0748-1.1915-2.3933-2.1378-3.8661-2.7747-1.6388-.6955-3.4055-1.0389-5.1855-1.0082h-7.4123v27.098h7.4123c1.8066.0337,3.5996-.3174,5.26-1.0301,1.4867-.6507,2.808-1.6275,3.8661-2.8579,1.065-1.266,1.8654-2.7326,2.3539-4.3132.5442-1.7464.8133-3.5668.7978-5.3959v-.0044Z"/>
      <path class="cls-23" d="M1653.0371,210.3473v-37.5786h5.9307v37.5786h-5.9307Z"/>
      <path class="cls-23" d="M1673.8932,183.8806v26.4668h-5.9307v-37.5786h4.6595l21.4785,27.098v-27.0541h5.9833v37.526h-4.9138l-21.2769-26.458Z"/>
      <path class="cls-23" d="M1720.1508,172.7687h5.1899l14.8158,37.5786h-6.2419l-3.9713-10.2176h-14.5002l-3.9187,10.2176h-6.2989l14.9254-37.5786ZM1728.7773,195.7376l-6.0315-16.1439-6.2463,16.1439h12.2778Z"/>
      <path class="cls-23" d="M1744.5004,172.7687l11.3266,30.1137,11.274-30.1137h6.2989l-15.0349,37.5786h-5.0803l-15.0832-37.5786h6.2989Z"/>
      <path class="cls-23" d="M1778.5329,210.3473v-37.5786h5.9438v37.5786h-5.9438Z"/>
      <path class="cls-23" d="M1804.5175,172.7687h5.1899l14.8202,37.5786h-6.2463l-3.9713-10.2176h-14.4914l-3.945,10.2176h-6.2814l14.9254-37.5786ZM1813.1483,195.7376l-6.0359-16.1439-6.2463,16.1439h12.2822Z"/>
      <path class="cls-23" d="M1526.9891,99.3868l23.6702,56.6331,23.6702-56.6331h4.734l-26.3002,62.2438h-4.1116l-26.3879-62.2438h4.7253Z"/>
      <path class="cls-23" d="M1602.7336,99.3868h3.8574l26.3002,62.2438h-4.734l-8.6791-20.5142h-29.7192l-8.6703,20.5142h-4.8217l26.4668-62.2438ZM1618.2507,137.4344l-13.5884-32.6122-13.8514,32.6122h27.4399Z"/>
      <path class="cls-23" d="M1679.6179,103.4195h-22.7935v58.2111h-4.471v-58.2111h-22.7935v-4.0327h50.058v4.0327Z"/>
      <path class="cls-23" d="M1725.3802,109.7316c-4.0327-4.5032-9.7311-6.7533-17.0951-6.7504-6.0783,0-10.5055,1.1543-13.2816,3.4629s-4.1642,5.4208-4.1642,9.3366c-.0605,1.7123.3007,3.4133,1.052,4.9532.7784,1.3958,1.9127,2.5604,3.2875,3.3752,1.7647,1.05,3.6681,1.8468,5.6546,2.367,2.2794.6458,5.0263,1.3179,8.2407,2.0164,3.3314.7013,6.3559,1.4757,9.0736,2.3232,2.4522.7232,4.7855,1.8012,6.9257,3.1999,1.8222,1.2006,3.3263,2.825,4.3834,4.734,1.0199,1.8732,1.5313,4.1817,1.5342,6.9257.0592,2.4932-.4979,4.9624-1.6219,7.1887-1.0862,2.0504-2.6498,3.8094-4.5587,5.1285-2.1318,1.4505-4.5076,2.5047-7.0134,3.1122-2.9682.7311-6.0168,1.0846-9.0736,1.052-9.7048,0-17.9163-3.0976-24.6345-9.2927l2.367-3.5944c2.7315,2.8166,6.0143,5.0399,9.6434,6.5312,4.0602,1.6586,8.414,2.4787,12.7994,2.4109,5.4354,0,9.6872-.9936,12.7556-2.9807,3.0684-1.9871,4.6025-4.997,4.6025-9.0297.0562-1.8164-.3672-3.6154-1.2273-5.2162-.8975-1.5149-2.1451-2.7925-3.6382-3.7259-1.8957-1.1829-3.9462-2.0975-6.0929-2.7177-2.4547-.7569-5.3185-1.4874-8.5914-2.1917-3.3314-.7013-6.2682-1.4465-8.8106-2.2355-2.2724-.6623-4.4305-1.6674-6.3997-2.9807-1.6388-1.1022-2.9791-2.5931-3.9012-4.3395-.8767-1.6949-1.315-3.8281-1.315-6.3997-.0515-2.5768.5041-5.1295,1.6219-7.4517,1.0717-2.1465,2.6188-4.0204,4.5236-5.4792,2.0702-1.5598,4.4217-2.7057,6.9257-3.3752,2.9142-.7887,5.9232-1.1722,8.9421-1.1397,3.6737-.0609,7.3277.5481,10.7831,1.7972,3.2042,1.2279,6.1267,3.0917,8.5914,5.4792l-2.2881,3.5067Z"/>
      <path class="cls-23" d="M1742.1247,161.6306v-62.2438h4.471v62.2438h-4.471Z"/>
      <path class="cls-23" d="M1819.1842,161.6306v-53.8277l-24.5468,41.9926h-2.8054l-24.5468-41.9926v53.8277h-4.471v-62.2438h4.471l25.9583,44.535,25.9495-44.535h4.471v62.2438h-4.4798Z"/>
      <polygon class="cls-40" points="1464.0527 161.4158 1492.5446 99.6104 1520.5981 161.4158 1492.1062 141.2523 1464.0527 161.4158"/>
    </g>
    <path class="cls-23" d="M291.3986,155.5126l-74.4644-34.0979c-7.792-3.5152-13.8852-5.0385-19.9783-4.9213-6.1518-.1172-12.2449,1.4061-20.0369,4.9213l-74.4646,34.0979c-4.4527,1.9918-6.6204,5.6243-6.6204,9.2568s2.1677,7.089,6.6204,9.1399l33.3362,15.1739,46.5771-22.2634c-.6448-.703-.9377-1.4061-.9377-2.1091,0-4.3937,7.4992-8.0262,15.7601-8.0262,8.2022,0,15.6428,3.6325,15.6428,8.0262,0,4.5697-7.4405,8.2022-15.6428,8.2022-2.6948,0-5.2141-.3515-7.4992-1.0546l-44.8778,21.5017,32.1059,14.7055c7.792,3.5738,13.8852,5.0386,20.0369,4.9799,6.0931.0587,12.1862-1.4061,19.9783-4.9799l74.4644-34.1563c4.4528-2.0509,6.6206-5.5074,6.6206-9.1399s-2.1678-7.265-6.6206-9.2568ZM144.5789,203.4959v45.5808c12.4204,7.5578,30.2896,12.4791,52.377,12.4791,44.0574,0,71.7109-19.3926,71.7109-40.1325v-26.8326l-47.8073,21.9114c-8.6711,3.984-16.4044,5.9762-23.9036,5.8589-7.5579.1173-15.2912-1.8749-23.9623-5.8589l-28.4147-13.0061ZM125.1863,194.6489v26.7744c0,6.3864,3.8082,14.2953,10.8973,21.0333v-42.8274l-10.8973-4.9803ZM136.0835,265.3639h8.4954v-16.2871c-3.2223-1.9918-6.0933-4.2182-8.4954-6.6202v22.9073ZM130.1662,265.774v20.0369c0,5.6243,3.5152,9.1399,9.081,9.1399h2.0507c5.6243,0,9.1395-3.5156,9.1395-9.1399v-20.0369c0-5.5656-3.5152-9.0808-9.1395-9.0808h-2.0507c-5.5658,0-9.081,3.5152-9.081,9.0808Z"/>
    <g class="cls-3">
      <path class="cls-33" d="M577.4778,439.7824c-1.0554,0-1.847-.8157-1.847-1.8709,0-1.0315.7916-1.8471,1.847-1.8471h14.728v-19.5493c0-1.0314.8395-1.847,1.8471-1.847,1.0553,0,1.8709.8156,1.8709,1.847v21.3965c0,1.0553-.8157,1.8709-1.8709,1.8709h-16.5751ZM594.0767,467.8712c17.1027,0,31.2552-14.1525,31.2552-31.2311,0-17.1027-14.1763-31.255-31.279-31.255-17.0788,0-31.2071,14.1523-31.2071,31.255,0,17.0787,14.1523,31.2311,31.231,31.2311Z"/>
    </g>
    <g class="cls-5">
      <path class="cls-33" d="M1107.055,461.9395h41.7854c3.1422,0,5.0612-1.5112,5.0612-3.9579,0-7.9638-9.9546-18.9498-25.954-18.9498s-25.9538,10.9861-25.9538,18.9498c0,2.4466,1.919,3.9579,5.0613,3.9579ZM1127.9716,433.4909c6.6925,0,12.3053-5.9487,12.3053-13.6246,0-7.5079-5.6609-13.2408-12.3053-13.2408-6.6203,0-12.2813,5.8288-12.2813,13.2888,0,7.6279,5.613,13.5766,12.2813,13.5766Z"/>
    </g>
    <g class="cls-4">
      <path class="cls-33" d="M133.6178,464.7021h42.7688c6.2125,0,9.3549-3.1184,9.3549-9.235v-37.8994c0-6.1167-3.1424-9.235-9.3549-9.235h-42.7688c-6.1886,0-9.3309,3.0943-9.3309,9.235v37.8994c0,6.1407,3.1423,9.235,9.3309,9.235ZM133.282,460.4564c-3.0703,0-4.7494-1.6311-4.7494-4.7974v-28.6164c0-3.1903,1.6791-4.7975,4.7494-4.7975h43.4165c3.0463,0,4.7733,1.6071,4.7733,4.7975v28.6164c0,3.1662-1.727,4.7974-4.7733,4.7974h-43.4165ZM148.8975,433.2792h1.8229c1.0314,0,1.3193-.2878,1.3193-1.2953v-1.7991c0-1.0074-.2878-1.2713-1.3193-1.2713h-1.8229c-1.0074,0-1.2953.2638-1.2953,1.2713v1.7991c0,1.0074.2878,1.2953,1.2953,1.2953ZM159.3318,433.2792h1.8231c1.0074,0,1.2953-.2878,1.2953-1.2953v-1.7991c0-1.0074-.2878-1.2713-1.2953-1.2713h-1.8231c-1.0315,0-1.3193.2638-1.3193,1.2713v1.7991c0,1.0074.2878,1.2953,1.3193,1.2953ZM169.7421,433.2792h1.8231c1.0074,0,1.3193-.2878,1.3193-1.2953v-1.7991c0-1.0074-.3119-1.2713-1.3193-1.2713h-1.8231c-1.0074,0-1.3193.2638-1.3193,1.2713v1.7991c0,1.0074.3119,1.2953,1.3193,1.2953ZM138.4871,443.5217h1.823c1.0075,0,1.3193-.2638,1.3193-1.2713v-1.8231c0-.9834-.3118-1.2713-1.3193-1.2713h-1.823c-1.0075,0-1.3193.2878-1.3193,1.2713v1.8231c0,1.0074.3118,1.2713,1.3193,1.2713ZM148.8975,443.5217h1.8229c1.0314,0,1.3193-.2638,1.3193-1.2713v-1.8231c0-.9834-.2878-1.2713-1.3193-1.2713h-1.8229c-1.0074,0-1.2953.2878-1.2953,1.2713v1.8231c0,1.0074.2878,1.2713,1.2953,1.2713ZM159.3318,443.5217h1.8231c1.0074,0,1.2953-.2638,1.2953-1.2713v-1.8231c0-.9834-.2878-1.2713-1.2953-1.2713h-1.8231c-1.0315,0-1.3193.2878-1.3193,1.2713v1.8231c0,1.0074.2878,1.2713,1.3193,1.2713ZM169.7421,443.5217h1.8231c1.0074,0,1.3193-.2638,1.3193-1.2713v-1.8231c0-.9834-.3119-1.2713-1.3193-1.2713h-1.8231c-1.0074,0-1.3193.2878-1.3193,1.2713v1.8231c0,1.0074.3119,1.2713,1.3193,1.2713ZM138.4871,453.7881h1.823c1.0075,0,1.3193-.264,1.3193-1.2714v-1.8229c0-1.0074-.3118-1.2714-1.3193-1.2714h-1.823c-1.0075,0-1.3193.264-1.3193,1.2714v1.8229c0,1.0074.3118,1.2714,1.3193,1.2714ZM148.8975,453.7881h1.8229c1.0314,0,1.3193-.264,1.3193-1.2714v-1.8229c0-1.0074-.2878-1.2714-1.3193-1.2714h-1.8229c-1.0074,0-1.2953.264-1.2953,1.2714v1.8229c0,1.0074.2878,1.2714,1.2953,1.2714ZM159.3318,453.7881h1.8231c1.0074,0,1.2953-.264,1.2953-1.2714v-1.8229c0-1.0074-.2878-1.2714-1.2953-1.2714h-1.8231c-1.0315,0-1.3193.264-1.3193,1.2714v1.8229c0,1.0074.2878,1.2714,1.3193,1.2714Z"/>
    </g>
    <path class="cls-14" d="M1543.8221,1095.8589l-.0264-.7638-.3273-1.6.8547-1.4183.1636-1.4364v-1.5456l-.1273-1.3273.1273-.4728.6183-1.2728.2546-1.3455-.1637-1.4546-.5819-1.4183.9455-.8181.4364-1.091v-1.6183l-.8001-1.891.8001-1.4001.4364-1.2909v-1.5092l-.4909-1.7456,1.0363-.9818.491-1.2546v-1.4182l-.9273-2.0002.9273-1.0546.5092-1.5273v-1.5092l-.9819-2.0729.0546-.0181,1.6546-1.3819.3819-1.4728-.5092-1.291-1.0364-1.6183,1.9093-1.8546.6728-1.2364.2545-1.6183,1.6001-.9273.8729-.8183.4364-1.0727,2.4546-2.9093,1.1819-.5091,1.0546-1.0001.3636-.6908.2546-1.1274h1.7819l1.8547-.9636v-1.3273h.4546l.2364-.6001,1.3273-.5273.5819-.3637h2.2184l-.491-.9273-.7455-.2182v-.4364l-3.1275.6546-1.491-.6546-.8183-1.982v-8.9278l15.8009,4.582-1.7455-.6-2.782-2.0729-1.4728-2.2002-.9818,1.2364v1.291l-8.8188-2.9456v-1.6001l14.4918,1.9092-2.8365-.491.2909-.1272v-.8547l-3.1274-1.1818-1.7456-3.2548-1.1091,3.2002v1.2364l-5.964-1.0182v-3.5457l3.3275-2.1638-2.091-1.7092v-16.9283h73.9134v-46.7119h35.0385v8.746c-1.4183.2546-2.8183.5092-4.182.8001h-24.4015c-1.0182,1.291-1.5637,2.6365-1.5637,4.0185,0,1.8547.9637,3.6366,2.7638,5.3094-1.8001,1.691-2.7638,3.473-2.7638,5.3276,0,1.6911.8183,3.3457,2.3638,4.9094-1.5455,1.5819-2.3638,3.2184-2.3638,4.9276s.8183,3.3638,2.3638,4.9275c-1.5455,1.5638-2.3638,3.2184-2.3638,4.9276s.8183,3.3457,2.3638,4.9276c-1.5455,1.5637-2.3638,3.2183-2.3638,4.9094,0,1.7092.8183,3.3638,2.3638,4.9275-1.5455,1.5637-2.3638,3.2184-2.3638,4.9276s.8183,3.3638,2.3638,4.9275c-1.5455,1.5638-2.3638,3.2184-2.3638,4.9276s.8183,3.3457,2.3638,4.9276c-1.5455,1.5637-2.3638,3.2002-2.3638,4.9094s.8183,3.3638,2.3638,4.9275c-1.5455,1.5637-2.3638,3.2184-2.3638,4.9276,0,8.4005,20.0921,15.4919,47.4574,17.6192.9272.0727,1.8364.1273,2.7637.1818,3.1638.2,6.6368.2,9.8733.2728.6728,0,1.3274,0,1.982-.0182,3.6002.1637,7.4187.7092,11.1279,1.0364-.1455-.0728-.2909-.1819-.4-.3091,3.4547.5273,6.5822,1.0363,10.1097,1.7819,1.1091.2182,2.2001.4546,3.2911.7272,6.5458,1.5456,12.8552,3.6548,18.9648,5.8914,1.0182.3636,2.0547.709,3.0729,1.0364,4.1094,1.3455,8.3459,2.491,12.8189,3.3456.9818.2364,1.9638.4364,2.982.6546,15.1645,3.0911,35.093,4.964,56.9307,4.964,47.4755,0,85.9688-8.8733,85.9688-19.8194,0-1.7092-.9273-3.3457-2.6728-4.9276,1.7455-1.5819,2.6728-3.2183,2.6728-4.9275,0-1.691-.9273-3.3457-2.6728-4.9276,1.7455-1.5637,2.6728-3.2184,2.6728-4.9094,0-1.7092-.9273-3.3638-2.6728-4.9275,1.7455-1.5819,2.6728-3.2366,2.6728-4.9276s-.9273-3.3457-2.6728-4.9276c1.7455-1.5637,2.6728-3.2183,2.6728-4.9275,0-1.691-.9273-3.3457-2.6728-4.9094,1.7455-1.5819,2.6728-3.2366,2.6728-4.9276,0-1.7092-.9273-3.3456-2.6728-4.9275,1.7455-1.5819,2.6728-3.2184,2.6728-4.9276,0-1.691-.9273-3.3457-2.6728-4.9276,1.7455-1.5637,2.6728-3.2183,2.6728-4.9093,0-1.8547-1.0912-3.6366-3.1274-5.3277,2.0363-1.691,3.1274-3.4729,3.1274-5.3094,0-3.4184-3.764-6.6549-10.4006-9.4551v-4.4002h-.4546c.309-.2182.4546-.4364.4546-.6546,0-1.9274-12.1283-3.5275-27.7289-3.7275v-12.6917h50.7665v-67.1857H477.0228l28.4563,47.3482-66.3676.5273v-19.0921c-.0364-.0182-.0727-.0363-.1091-.0363v-28.7472h-26.8016v47.7301c-11.3643-.091-22.7286-.1819-34.0747-.3092v-47.4209h-25.2743v47.1301c-8.9097-.1091-17.801-.2364-26.6925-.3819v-46.7482h-9.8733v32.7655h-35.8748v-32.7655h-13.4918v45.6754c-46.2755-.9637-92.5146-2.2548-138.7355-3.8548v-41.8207h-8.9097v25.8742h-32.4018v-25.8742h-10.1279v39.9114c-11.6553-.4546-23.3287-.9272-34.9839-1.4364v-37.0932h-24.3287v36.0203c-5.9822-.2545-9.5097-.1454-15.4919-.4364.0364.0728-2.0729-.1273-2.0547-.0727.0727.1273.0727.2364,0,.3455v5.273c5.7822.3819,12.2189.6547,18.0011,1.0183l58.8581,84.5323v15.11h10.1279v-11.5644l21.474-26.1651,10.9278,17.8919v19.8376h8.9097v-14.91l65.5494-75.1136c3.7457.1818,7.5095.3455,11.2552.5091l61.931,88.9509v20.0194h13.4918v-12.8008l23.7832-28.9836,12.0917,19.8194v21.965h9.8733v-16.5101l74.5681-85.4779,44.3117.9455,69.986,1.6546,12.0371.6546-2.6001,12.5462,127.1894,15.4009,16.1827-8.4732-5.2912-16.4373h.8909l7.6368,17.4737-15.5646,8.1459-6.6368,53.9124-17.5646,60.3309,12.128-61.7128-8.8915-51.1667,11.5644,42.0026,9.3459-43.3481-2.8728,1.5092-72.6043-8.4551-16.892,84.8596,67.295,38.5478,27.5107-16.4191,16.8919-55.658,12.3463-70.186h2.2547l-9.9824,71.0406-9.9461,32.8565,15.2737-1.7274,9.9278,3.2729v10.728l25.438,9.5096,63.6038,11.7462,9.255-15.5464-24.5105-53.0759-19.9103-59.8582-.4546-1.1636,8.0914-2.0729-3.0183-6.1276,44.2389-.2728v42.3299l1.7092,1.1636v21.6559l1.8002,1.0182v10.7824l1.691.9637v8.7823l2.2183,2.182v8.3641h2.5457v4.7458h2.1274v4.6002h2.4366v4.3639h2.491v3.9457h3.1274v3.6548h7.4187v-3.6548h3.0729v-3.9457h2.0183v7.1277h2.2184v4.7457h2.4364v4.4366h2.6547v4.1276h3.3456v3.7275h3.1275v3.8003h4.0184v3.3274h7.6368v-3.3274h4.0185v-3.8003h3.1274v-3.7275h3.3457v-4.1276h2.6547v-4.4366h2.4364v-4.7457h2.2184v-7.1277h2.0183v3.9457h3.0729v3.6548h7.4185v-3.6548h3.1275v-3.9457h2.491v-4.3639h2.4366v-4.6002h2.1274v-4.7458h2.5275v-8.3641l2.2365-2.182v-8.7823l1.691-.9637v-10.7824l1.8001-1.0182v-21.6559l1.7092-1.1636v-43.0208l13.7645-.0909-1.0364,24.3287-3.0547.4546,29.4199,24.2923h24.2196l8.2914,6.4186,18.3829-5.2549,42.9299.8909v6.3276l-2.1457,2.5092,1.9093.9273v2.4002l1.1455.6364v18.8194l-3.0548,2.4364v1.1455l7.8187.3819v20.4376c-1.3637.5273-2.1456,1.1091-2.1456,1.7456,0,.7819,1.1818,1.5091,3.2183,2.091v1.5819l.9091,2.6365,2.3093,2.6365,1.8365,1.4546v19.2739l1.6183,2.5273.2,7.8005h17.0374v-20.8741l1.5273.691h2.0002v-17.2374c3.2183-.6546,5.2185-1.5819,5.2185-2.5819,0-.5819-.6728-1.1273-1.8547-1.6001v-19.0012l1.691.0909,5.8186-5.4912-.7637-1.1455-2.7456-2.6365v-19.1103l.7637-.1455,1.982-2.8728-2.7456-3.1275v-32.0201l6.5822-3.0002-3.5275-2.982.5092-16.8919,8.6369-.0545v48.6029h34.2202l-.9455.9818v2.1275h-1.2546v.8909l3.5275,1.691,3.0729-2.3093-.5092-.5455-1.2546.1091v-2.5092l-1.5273-.3819-.0364-.0545h13.1462v1.3273h1.8365v-.7637l3.5093,1.2v1.2365l-1.0909,1.1091v2.1456h-1.2546v.8727l3.5275,1.691,3.0729-2.2911-.5092-.5455-1.2546.1091v-2.5273l-.7272-.1819v-1.0182l.1455.0546,21.3285,10.3461v2.091h1.1637v5.4367l-.9455.9091v1.0001l.6183.6h4.6548l1.9092-1.6546-1.6183-1.4546v-4.8367h1.1091v-3.3093l13.9827-7.3095.7456.4.0727.8547-.5092.8727v.8727l1.6001.6001.7456,1.3819.6546-1.2728,1.6001-1.2.0727-.7638-.6546-.4364v-.9091l.9637-.7455v1.491l.7272.1636,1.6183,1.9638,1.7456-1.8001,1.1818-1.0728.7274-.2909-1.9638-4.1276,3.0002-3.0547-.6728-.3819,2.4182-2.2001-.6546-.7092-2.1274-1.4183v-6.2003l2.2729-.1091v-.6546h1.2546v4.3275h5.6367l8.8551,4.2547-.8727,1.8183,1.2546.5092-.3637,2.8728-2.6365,2.491,2.1093.6001h.8909v3.6184h-.8909v.7638h.8909v.4909h1.3819v-.4909h.8909v1.6364h.3091l-.3091,6.2004,1.5455-1.2365.4183,2.7093,1.4,3.7275,1.8365,3.7275.5819.7819-.2909,3.6548,2.1456-1.1455,1.6728,2.2911,2.4184,2.5275,2.6365,2.6183,2.5637,2.2001,2.9274,2.2366,3.4366,2.1456,3.2365,1.691,2.8547,1.5455,1.3092.9273.4182.4182-.4182.1273v.4364l.7455.3092.0728.6182-.6365.3819-.1818.8001.7092.5455,2.3456.3273.4728.0728.9818.1272-.1273-.1272h1.3455l1.2546.6546.6183.9818-.7819.491-.1273.3818-.0546-.0727v.8183l.6183.3819.2364.7637.4.0364v9.6369l-1.3637.2364-.8001.7637,1.2001.8545.1455,1.4728.9636.2001.4728,1.2364.8727,1.2909,1.2183,1.0546.7272.9091.3637.9637,1.0728.8727.7999,1.1273.6547,1.891.4,1.6729.6728.6546.691.3637v.8909c-.6182.0364-1.0909.4182-1.0909.9091s.5091.8909,1.1455.8909v4.1458h-1.3274v.4182h1.3274v3.9094h-.0546c-.9818.0363-1.4364.6364-1.4728,1.2545h-3.182v.4183h3.2184c.1636.5455.6546,1.0182,1.491,1v2.9638h.3273v-2.9638c.8363.0182,1.3455-.4546,1.491-1h3.2183v-.4183h-3.182c-.0181-.6182-.4909-1.2182-1.4728-1.2545h-.0545v-3.9094h1.3455v-.4182h-1.3455v-4.1458c.6364,0,1.1637-.4,1.1637-.8909s-.491-.8727-1.1092-.9091v-.8909l.7092-.3637.6546-.6546.4001-1.6729.6546-1.891.8183-1.1273,1.0546-.8727.3636-.9637.7456-.9091,1.2-1.0546.8729-1.2909.4909-1.2364.9455-.2001.1455-1.4728,1.2182-.8545-.8183-.7637-1.3455-.2364v-9.6369l.4-.0364.2183-.7637.6182-.3819v-.8183l-.0545.0727-.1273-.3818-.7638-.491.6001-.9818,1.2728-.6546h1.3273l-.1273.1272.9819-.1272.4909-.0728,2.3457-.3273.691-.5455-.1819-.8001-.6182-.3819.0727-.6182.7274-.3092v-.4364l-.4001-.1273.4001-.4182,1.3091-.9273,2.8729-1.5455,3.2184-1.691,3.4365-2.1456,2.9456-2.2366,2.5639-2.2001,2.6365-2.6183,2.4182-2.5275,1.6547-2.2911,2.1456,1.1455-.2728-3.6548.5637-.7819,1.8365-3.7275,1.4001-3.7275.4364-2.7093,1.5455,1.2365-.3091-6.2004h.3091v-1.6364h.8729v.4909h1.4v-.4909h.8729v-.7638h-.8729v-3.6184h.8729l2.1274-.6001-2.6365-2.491-.3637-2.8728,1.2365-.5092-.8729-1.8183,8.8551-4.2547h5.655v-4.3275h1.2364v.6546l2.2729.1091v6.2003l-2.1275,1.4183-.6546.7092,2.4184,2.2001-.6546.3819,2.9819,3.0547-1.9637,4.1276.7272.2909,1.1819,1.0728,1.7637,1.8001,1.6001-1.9638.7456-.1636v-1.491l.9454.7455v.9091l-.6546.4364.0728.7638,1.6,1.2.6729,1.2728.7272-1.3819,1.6183-.6001v-.8727l-.5092-.8727.0728-.8547.7272-.4,14.0009,7.3095v3.3093h1.091v4.8367l-1.6183,1.4546,1.9092,1.6546h4.6548l.6183-.6v-1.0001l-.9455-.9091v-5.4367h1.1819v-2.091l21.3103-10.3461.1637-.0546v1.0182l-.7456.1819v2.5273l-1.2364-.1091-.5273.5455,3.091,2.2911,3.5094-1.691v-.8727h-1.2365v-2.1456l-1.1091-1.1091v-1.2365l3.5275-1.2v.7637h1.8183v-1.3273h13.1644l-.0363.0545-1.5456.3819v2.5092l-1.2364-.1091-.5273.5455,3.0911,2.3093,3.5093-1.691v-.8909h-1.2364v-2.1275l-.9637-.9818h34.2202v-45.621h7.3277v46.7119h70.5134v17.6374h.0545l-1.4182,1.2001,2.0547,1.6v3.6003l-9.1461,1.691,2.2002-.4182-2.2729-.8729.1637-1.9819-2.1638-1.5274v2.3275l-1.1273.9818.4546,1.982-1.2728.2364,13.1644-1.7092v2.3092l-8.2005,2.2366-1.3455-.8547-.7456-1.1091-3.9457,1.4728v2.1456l-.6546.1818,14.8918-3.3638v9.1279l-1.7274.8909-3.0365-.3091v.6728h-.6728l-.5637.6546.8181.2727h1.0728l.5819.6547h1.0546v.3637h1.2364l.1091.0363-.1819,1.1273.8001,1.1092,1.2364.4546h1.4183v1.3091l.7455.8183,1.1092.691,2.3456,3.1456.7455,1.5274,1.0364.7819,1.2546.8183.3637,2.5455.9818,1.982.6729,1.0727-.4365,1.4183v2.3092l.6183,1.982.3273.4364-.3273,1.1455-.3091,1.6547.3091,1.8546,1.1819,1.7456-.5819,1.4728v1.6183l.5819,1.5273.3455.6365-.3819,1.2727-.2182,1.5638.4,1.7819.6183,1.4001.0182.2182-.491,1.2728-.2182,1.2727.2182,1.6001.6364,1.1273-.1818,1.1819v2.0911l.3637,1.6.2909.4546.0364.0728.0182.2909-.0546-.3637-.3273,1.3274v1.8546l.3273,1.782.6546.9091-.0727.5637-.2182,1.7455M30.2689,918.7029c2.8547,0,5.5822.4727,7.9459,1.2909-4.6003-.2-9.2187-.4-13.8373-.6,1.8365-.4365,3.8185-.691,5.8914-.691ZM76.7444,1006.6172l-56.6034-81.2776c1.9637.1273,3.9275.2364,5.8912.3637l50.7121,72.8407v8.0732ZM76.7444,995.4347l-48.4393-69.6041c2.4002.1636,4.8185.3091,7.2368.4546l41.2025,59.2035v9.946ZM76.7444,982.3794l-38.9479-55.9487c1.9638.1273,3.9094.2364,5.8914.3636l33.0565,47.4939v8.0913ZM76.7444,971.1787l-30.8018-44.2572c1.9456.1273,3.9093.2364,5.873.3637l24.9288,35.8021v8.0914ZM76.7444,959.978l-22.6741-32.5655c1.9638.1091,3.9094.2364,5.8732.3455l16.801,24.1468v8.0732ZM76.7444,948.7956l-14.5463-20.8921c2.4002.1454,4.8184.2727,7.2186.4182l7.3278,10.5279v9.9461ZM76.7444,935.7403l-5.0731-7.2914c.3092.0182.6183.0364.9091.0545l4.164,6.8368v.4001ZM76.7444,931.9218l-2.0002-3.2911c.6728.0364,1.3274.0728,2.0002.1091v3.182ZM86.8723,929.3217c.8545.0546,1.691.0909,2.5455.1455l.1637.2728-2.7092,3.2911v-3.7094ZM86.8723,935.9585l3.7275-4.5457,2.6728,4.3638-3.8184,4.673-2.5819-4.2184v-.2727ZM107.2007,934.0311l2.6728,4.3638-3.1092,3.7821-2.6729-4.3639,3.1093-3.782ZM107.0916,930.449c.2182.0182.4182.0182.6182.0364l-.3455.4182-.2727-.4546ZM115.183,934.8493l2.6729,4.3638-3.1093,3.7821-2.6546-4.3639,3.091-3.782ZM114.8557,930.8673c.3819.0181.7638.0363,1.1455.0545l-.6364.7819-.5092-.8363ZM105.9824,956.596l2.6729,4.3821-3.8366,4.6548-2.6547-4.3639,3.8184-4.673ZM101.1276,959.578l-2.6547-4.3639,3.8185-4.6548,2.6728,4.3639-3.8366,4.6548ZM107.1825,955.1414l3.1092-3.7821,2.6547,4.3639-3.1093,3.8002-2.6546-4.382ZM107.7826,943.868l3.1092-3.7821,2.6729,4.3639-3.1093,3.7821-2.6728-4.3639ZM109.2554,949.6865l-3.1093,3.7821-2.6547-4.3639,3.1093-3.7821,2.6547,4.3639ZM102.4549,947.4319l-2.6546-4.3639,3.0911-3.8002,2.6728,4.382-3.1093,3.7821ZM101.2731,948.8865l-3.8366,4.6548-2.6547-4.3639,3.8184-4.6548,2.6729,4.3639ZM93.7635,947.4864l-3.2911-5.3639,3.8184-4.6548,3.2911,5.3639-3.8184,4.6548ZM96.2546,954.9959l-3.1093,3.7821-2.6728-4.3639,3.1093-3.782,2.6728,4.3638ZM97.2728,956.6688l2.6729,4.3638-3.1093,3.8003-2.6729-4.3821,3.1093-3.782ZM100.964,962.7236l2.6728,4.3639-3.1093,3.7821-2.6728-4.3639,3.1093-3.7821ZM104.6551,968.7604l3.2911,5.3822-3.1093,3.7821-3.2911-5.3822,3.1093-3.7821ZM105.8552,967.3058l3.8184-4.6548,3.2729,5.3822-3.8184,4.6548-3.2729-5.3822ZM113.9829,969.7059l2.6547,4.3638-3.8185,4.6548-2.6546-4.3638,3.8184-4.6548ZM110.8736,961.1963l3.0911-3.7821,3.2911,5.364-3.1092,3.7821-3.273-5.364ZM111.4737,949.9047l3.1093-3.7821,2.6728,4.3639-3.1092,3.7821-2.6729-4.3639ZM111.0555,936.9403l-2.6547-4.3638,1.6183-1.9638c.8909.0545,1.7819.0909,2.6728.1455l1.4728,2.4-3.1092,3.7821ZM103.0732,936.1402l-3.2911-5.3821.5819-.6729c1.5273.0728,3.0547.1637,4.5821.2364l1.2364,2.0365-3.1093,3.7821ZM101.8732,937.5949l-3.1093,3.7821-3.2729-5.364,3.1092-3.782,3.273,5.3639ZM94.4727,934.322l-2.6729-4.3638.291-.3455c1.691.0909,3.382.2,5.0912.2909l.4.6364-3.1092,3.7821ZM86.8723,939.6313l1.3818,2.2729-1.3818,1.6729v-3.9458ZM86.8723,946.5045l2.4-2.9274,3.2911,5.364-3.1092,3.782-2.5819-4.2184v-2.0001ZM86.8723,951.923l1.3818,2.2729-1.3818,1.691v-3.9639ZM86.8723,958.8144l2.4182-2.9456,2.6547,4.3638-5.073,6.2004v-7.6186ZM86.8723,969.3423l6.1094-7.4369,2.6546,4.3821-8.7641,10.6734v-7.6186ZM86.8723,979.8883l9.8005-11.928,2.6547,4.3639-12.4552,15.1827v-7.6186ZM86.8723,990.4344l13.4917-16.4373,3.2729,5.3822-16.7646,20.4194v-9.3642ZM86.8723,1010.3447v-7.6004l17.7828-21.6922,2.6729,4.3639-20.4558,24.9287ZM105.8552,979.5974l3.1092-3.7821,2.6729,4.3639-3.1093,3.782-2.6728-4.3638ZM119.2741,1001.5805l-9.7278-15.9281,3.1093-3.7821,6.6185,10.8369v8.8733ZM119.2741,989.307l-5.4185-8.8914,3.8185-4.673,1.6,2.6365v10.9278ZM119.2741,974.9789l-.4182-.6908.4182-.491v1.1818ZM119.2741,970.8697l-1.4364,1.7455-2.6728-4.3638,3.1092-3.7821,1,1.6365v4.7639ZM119.2741,960.3235l-.8181,1.0001-3.2911-5.364,3.1092-3.7821,1,1.6365v6.5094ZM119.2741,948.0137l-.8363,1.0182-2.6547-4.3639,3.1093-3.7821.3818.6547v6.4731ZM119.2741,937.4858l-.2182.2728-2.6728-4.382,1.9092-2.3275.9818.0546v6.3821ZM119.2741,923.1758c-10.8007-.3818-21.6012-.7819-32.4018-1.2v-6.7459h32.4018v7.9459ZM128.1838,931.5763c.4364.0364.8727.0546,1.3092.0728l.5455.8909c.0727-.291.1636-.5637.2364-.8547.3273.0182.6364.0364.9636.0546l-3.0547,3.4911v-3.6548ZM128.1838,941.7951l.2.3274c.0728-.8729.1637-1.7456.2728-2.6003l6.2185-7.6004c1.5274.091,3.0365.1637,4.5639.2364l-10.9824,12.5827c-.0364.9818-.1091,1.9637-.1819,2.9456l13.4372-15.401c.1818,0,.3637.0182.5455.0182l-14.0736,17.1465v-7.655ZM128.1838,956.1232l.0546.091c-.0182-.6547-.0364-1.291-.0546-1.9274v-1.9093l16.3828-19.9466c1.4728.0727,2.9638.1455,4.4366.2182l-20.8194,23.8378v-.3637ZM128.1838,959.2144l10.746-12.3099-10.746,13.0917v-.7819ZM128.1838,962.9237l24.6924-30.0746c1.4364.0728,2.891.1455,4.3275.2182l-28.9836,33.202c.0363-.3637.0545-.7274.0727-1.0909l-.1091-.1819v-2.0728ZM128.1838,969.0332l31.2928-35.8567c1.9819.0909,3.9639.2001,5.9457.291l-37.2386,42.657v-7.0913ZM128.1838,978.8519l39.5114-45.2754c1.982.0909,3.9458.2,5.9276.2909l-45.4391,52.0759v-7.0914ZM128.1838,988.6525l47.7301-54.676c2.4366.1273,4.873.2364,7.3096.3455l-55.0397,63.0583v-8.7278ZM128.1838,1007.1991v-7.0914l57.3308-65.6766c1.9819.0909,3.9457.1819,5.9275.2728l-63.2583,72.4952ZM266.9193,1020.8363l-59.4581-85.4052c2.1275.1091,4.2913.2001,6.4186.291l53.0395,76.1682v8.946ZM266.9193,1008.4537l-50.5485-72.6225c2.6183.1273,5.2731.2364,7.9095.3455l42.6389,61.2582v11.0188ZM266.9193,993.9801l-40.1842-57.6943c2.1456.0909,4.2911.1818,6.4185.2728l33.7657,48.4756v8.946ZM266.9193,981.5975l-31.2927-44.9299,6.4367.2727,24.856,35.7113v8.946ZM266.9193,969.1968l-22.4014-32.1656c2.1456.091,4.273.1819,6.4186.2728l15.9827,22.9468v8.946ZM266.9193,956.8142l-13.5281-19.4193,7.9096.3273,5.6185,8.0732v11.0188ZM266.9193,942.3588l-3.1638-4.5457c.3273.0182.6364.0364.9637.0364l2.2001,3.6002v.9091ZM280.4111,938.4495c.9091.0364,1.8183.0727,2.7274.1091l.2727.4546-3.0001,3.6366v-4.2002ZM280.4111,945.9045l4.1274-5.0366,2.9638,4.8366-4.2366,5.1458-2.8546-4.673v-.2728ZM302.9214,943.7589l2.9457,4.8367-3.4366,4.182-2.9456-4.8185,3.4365-4.2002ZM302.4851,939.2678c.4728.0182.9455.0363,1.4183.0545l-.8001.9637-.6183-1.0182ZM311.7584,944.6498l2.9456,4.8367-3.4366,4.2002-2.9456-4.8367,3.4366-4.2002ZM310.9584,939.5768c.7637.0182,1.5091.0364,2.2547.0727l-1.2546,1.5274-1-1.6001ZM301.5759,968.7422l2.9456,4.8367-4.2365,5.1639-2.9456-4.8366,4.2365-5.164ZM296.1939,972.0515l-2.9456-4.8366,4.2365-5.164,2.9456,4.8367-4.2365,5.1639ZM302.8852,967.1421l3.4547-4.2002,2.9456,4.8367-3.4365,4.2002-2.9638-4.8367ZM303.5579,954.6504l3.4547-4.2002,2.9457,4.8367-3.4366,4.2002-2.9638-4.8367ZM305.1943,961.0873l-3.4365,4.2002-2.9456-4.8367,3.4365-4.2002,2.9456,4.8367ZM297.6667,958.5962l-2.9456-4.8367,3.4365-4.2002,2.9456,4.8367-3.4365,4.2002ZM296.3392,960.1963l-4.2184,5.1639-2.9456-4.8366,4.2184-5.164,2.9456,4.8367ZM288.0296,958.6689l-3.6366-5.964,4.2366-5.1457,3.6366,5.9457-4.2366,5.164ZM290.7935,966.9603l-3.4366,4.2002-2.9456-4.8366,3.4366-4.1822,2.9456,4.8185ZM291.939,968.8332l2.9456,4.8366-3.4366,4.182-2.9638-4.8366,3.4548-4.182ZM296.012,975.5245l2.9638,4.8366-3.4547,4.182-2.9457-4.8366,3.4366-4.182ZM300.1031,982.2158l3.6366,5.9457-3.4366,4.1822-3.6366-5.9458,3.4366-4.182ZM301.4305,980.5975l4.2183-5.1458,3.6366,5.9458-4.2365,5.1458-3.6184-5.9458ZM310.431,983.2522l2.9456,4.8366-4.2365,5.1458-2.9456-4.8367,4.2365-5.1457ZM306.9763,973.8335l3.4366-4.1822,3.6366,5.9458-3.4366,4.182-3.6366-5.9457ZM307.6491,961.3417l3.4366-4.2002,2.9456,4.8367-3.4184,4.2002-2.9638-4.8367ZM307.1945,946.9773l-2.9638-4.8185,2.2547-2.7456c.7092.0182,1.4183.0546,2.1274.0728l2.0184,3.3093-3.4366,4.182ZM298.3394,946.1046l-3.6184-5.964.9091-1.1273c1.5091.0545,3.0001.1091,4.4911.1636l1.6547,2.7274-3.4366,4.2004ZM297.012,947.7045l-3.4183,4.2002-3.6366-5.9639,3.4365-4.182,3.6184,5.9457ZM288.8116,944.0862l-2.9456-4.8366.4727-.5637c1.7638.0727,3.5275.1273,5.2913.1818l.6182,1.0364-3.4365,4.182ZM280.4111,949.9593l1.5273,2.5092-1.5273,1.8546v-4.3638ZM280.4111,957.578l2.6728-3.2548,3.6184,5.9458-3.4366,4.2002-2.8546-4.6912v-2.2001ZM280.4111,963.5601l1.5455,2.5092-1.5455,1.8728v-4.382ZM280.4111,971.1969l2.6728-3.2548,2.9456,4.8185-5.6185,6.855v-8.4187ZM280.4111,982.8521l6.764-8.2187,2.9456,4.8367-9.7096,11.8189v-8.4369ZM280.4111,994.5255l10.8369-13.2007,2.9638,4.8184-13.8008,16.8192v-8.4369ZM280.4111,1006.199l14.9281-18.1829,3.6366,5.9457-18.5647,22.6195v-10.3824ZM280.4111,1028.2549v-8.4369l19.692-24.0015,2.9456,4.8367-22.6376,27.6016ZM301.4305,994.2165l3.4365-4.2002,2.9456,4.8367-3.4365,4.182-2.9456-4.8185ZM316.286,1018.5452l-10.7642-17.6374,3.4365-4.2002,7.3278,12.0189v9.8188ZM316.286,1004.9444l-6.0003-9.837,4.2184-5.1639,1.7819,2.9092v12.0917ZM316.286,989.0889l-.4546-.7637.4546-.5455v1.3091ZM316.286,984.5249l-1.5819,1.9456-2.9638-4.8366,3.4366-4.182,1.1091,1.8183v5.2548ZM316.286,972.8697l-.9091,1.1091-3.6366-5.9457,3.4366-4.2002,1.1091,1.8364v7.2005ZM316.286,959.2508l-.9273,1.1273-2.9456-4.8367,3.4366-4.2002.4364.7274v7.1823ZM316.286,947.5774l-.2546.3091-2.9456-4.8367,2.7274-3.3092c.1455,0,.3091,0,.4728.0181v7.8187ZM316.286,928.267c-11.9644-.2-23.9106-.4182-35.8748-.6546v-4.673h35.8748v5.3276ZM365.5616,928.0488c3.0911,0,6.0367.3637,8.7278,1.0001-5.5276-.0546-11.0551-.1273-16.5828-.1819,2.4366-.5273,5.0913-.8183,7.855-.8183ZM326.1593,940.0859c.2728.0182.5455.0182.8183.0364l1.2182,1.982c.1818-.6365.3637-1.291.5819-1.9274.5273.0182,1.0727.0363,1.6183.0545l-4.2366,4.8548v-5.0003ZM326.1593,952.3594l.2182.3637c.0727-.9636.1637-1.9274.2909-2.891l7.7641-9.4733c1.7274.0546,3.4548.1091,5.1822.1637l-13.1645,15.0918c-.0545,1.0909-.1091,2.1638-.2182,3.2547l15.9464-18.2556c.1818,0,.3819,0,.5637.0182l-16.5828,20.2012v-8.4733ZM326.1593,968.2331l.0364.0727c-.0182-.7092-.0364-1.4182-.0364-2.1274v-2.0911l19.1647-23.3832c1.691.0546,3.3639.1091,5.0549.1637l-24.2196,27.7652v-.4ZM326.1593,971.6515l11.8916-13.6554-11.8916,14.5099v-.8545ZM326.1593,975.7609l28.5108-34.7658c1.6547.0546,3.2911.1092,4.9458.1637l-33.4202,38.2932c.0181-.4.0545-.8001.0727-1.2182l-.1091-.1819v-2.291ZM326.1593,982.5067l36.0203-41.2752c2.2183.0546,4.4548.1273,6.6731.2001l-42.6934,48.9301v-7.855ZM326.1593,993.3801l45.2573-51.8759c2.2365.0546,4.4548.1273,6.6731.2l-51.9304,59.5127v-7.8368ZM326.1593,1004.2353l54.5123-62.4764c2.7456.0909,5.4913.1636,8.2187.2364l-62.731,71.8952v-9.6551ZM326.1593,1024.7637v-7.855l65.313-74.8408c2.2366.0546,4.4548.1273,6.6913.1818l-72.0043,82.514ZM416.8374,929.4308c2.8183-.7272,5.964-1.1455,9.2551-1.1455,3.4547,0,6.7276.4546,9.6732,1.2364-6.3094-.0181-12.6188-.0545-18.9284-.0909ZM582.5018,954.6504l-9.255-.5091-4.164,8.6369v-10.7098l13.8009.6183-.3819,1.9637ZM598.8846,937.1949h-5.9276l-1.2-.7092h-.1273l-10.2915-6.2003-3.2366,15.2009,5.7639,2.2911-.3455,1.7455-9.5823-4.0366.3636-1.4364c.0182,0,.0364-.0182.0546-.0364l5.7095-20.8012,19.1465,13.3463-1.3273.1636c.3273.1637.6546.3273,1,.4728ZM757.3305,1025.5275l24.9833,55.4942-27.0562-50.8211-34.2384,42.1843,31.4565-46.1663-18.2739-66.7313,23.1287,66.0403ZM1222.4674,1000.4532h-.8909v-3.6184h.8909v3.6184ZM1264.6154,1057.0203c0,.4182-.4546.7637-1.0364.7637-.5637,0-1.0182-.3455-1.0182-.7637v-7.7096c.691.0728,1.3819.1273,2.0547.1819v7.5277ZM1268.4701,1057.5657c0,.5455-.5637.9636-1.2728.9636s-1.2909-.4182-1.2909-.9636v-7.9641c.8545.0727,1.7092.1091,2.5637.1273v7.8368ZM1269.1975,1086.6402c-.5455,0-.8909-.3091-1.0364-.6728h1.0364v.6728ZM1269.1975,1085.5491h-1.1092c.0182-.4546.3637-.9091,1.0546-.9272h.0546v.9272ZM1269.5248,1086.6402v-.6728h1.0364c-.1273.3637-.4728.6728-1.0364.6728ZM1269.5793,1084.6219c.7092.0181,1.0364.4727,1.0546.9272h-1.1091v-.9272h.0545ZM1272.6159,1057.5657c0,.5455-.5819.9636-1.291.9636s-1.2728-.4182-1.2728-.9636v-7.855c.2728-.0182.5455-.0182.8365-.0364.5637-.0545,1.1455-.0909,1.7274-.1273v8.0187ZM1276.107,1057.0203c0,.4182-.4728.7637-1.0364.7637s-1.0364-.3455-1.0364-.7637v-7.6006c.691-.0545,1.3819-.1272,2.0729-.2182v7.8187ZM1317.1458,1000.4532h-.8729v-3.6184h.8729v3.6184ZM1527.4856,1030.3823l-1.5092-.691v-13.0008l1.5092.4001v13.2917ZM1531.9768,1031.3459l-2.7637-.4364v-13.3644l2.7637.7272v13.0735ZM1535.577,1044.0195l-2.2366-4.2729,2.3275.709,2.3456,3.5639h-2.4364ZM1539.3954,1032.0551l-4.7821-.3637v-12.728l4.7821,1.2546v11.8371ZM1544.4866,1032.0369v-11.8007l5.9276-.7455v12.0553l-5.9276.4909ZM1550.2507,1043.4012l-2.5275,1.091,1.2546-2.6911,2.7274-2.691-1.4546,4.2911ZM1555.8146,1030.9277l-2.7638.3455v-12.3462l2.7638-.6001v12.6007ZM1559.0693,1030.2914l-1.5274.3455v-12.6917l.6183-.1454.9091-.5819v13.0735Z"/>
    <path d="M1869.2334,793.0772v-16.9568c15.6012-.2779,27.7369-2.4104,27.7369-4.9983,0-.2942-.1597-.5834-.4639-.8639h.4639v-5.8949c6.6318-3.761,10.4005-8.0704,10.4005-12.6551,0-2.4608-1.0928-4.8437-3.1273-7.1071,2.0345-2.2634,3.1273-4.6437,3.1273-7.1071,0-2.2736-.9293-4.4803-2.6747-6.5866,1.7454-2.1062,2.6747-4.3131,2.6747-6.5865,0-2.2747-.9293-4.4828-2.6747-6.5878,1.7454-2.1062,2.6747-4.3143,2.6747-6.5891,0-2.2734-.9293-4.4803-2.6747-6.5865,1.7454-2.1063,2.6747-4.3131,2.6747-6.5866s-.9293-4.4815-2.6747-6.5878c1.7454-2.1062,2.6747-4.3131,2.6747-6.5878,0-2.2734-.9293-4.4803-2.6747-6.5865,1.7454-2.105,2.6747-4.3131,2.6747-6.5866s-.9293-4.4815-2.6747-6.5878c1.7454-2.1062,2.6747-4.3142,2.6747-6.5865,0-2.2747-.9293-4.4816-2.6747-6.5878,1.7454-2.1063,2.6747-4.3143,2.6747-6.5878,0-14.6475-38.497-26.5223-85.9809-26.5223-21.8345,0-41.7638,2.5118-56.9262,6.6475-1.011.2798-2.0032.569-2.9852.8789-4.4664,1.15-8.6978,2.6721-12.8109,4.4615-1.0298.4476-2.0534.9116-3.0845,1.3945-6.1036,2.9959-12.4161,5.8164-18.9599,7.8937-1.0915.3464-2.1867.6714-3.2882.9732-3.5272.9796-6.6482,1.673-10.1163,2.3659.117-.1741.254-.3074.405-.4118-3.7019.4527-7.5347,1.1618-11.1335,1.3864-.6412-.0146-1.2977-.0214-1.9742-.022-3.243.0879-6.7123.0879-9.871.3571-.9267.0755-1.8485.1622-2.7613.2578-27.3672,2.8444-47.4689,12.3193-47.4689,23.5684,0,2.2823.8274,4.4904,2.3753,6.5853-1.5492,2.0961-2.3753,4.3055-2.3753,6.5891,0,2.2822.8274,4.4904,2.3753,6.5852-1.5492,2.0974-2.3753,4.3056-2.3753,6.5891,0,2.2823.8274,4.4904,2.3753,6.5865-1.5492,2.0963-2.3753,4.3043-2.3753,6.5891,0,2.2823.8274,4.4904,2.3753,6.5853-1.5492,2.0961-2.3753,4.3055-2.3753,6.5891,0,2.2798.8274,4.4891,2.3753,6.5852-1.5492,2.0974-2.3753,4.3056-2.3753,6.5891,0,2.2823.8274,4.4916,2.3753,6.5853-1.5492,2.0961-2.3753,4.3067-2.3753,6.5902,0,2.2799.8274,4.4892,2.3753,6.584-1.5492,2.095-2.3753,4.3069-2.3753,6.5891,0,2.4721.9733,4.8576,2.7777,7.1046-1.8069,2.2496-2.7777,4.6362-2.7777,7.1097,0,1.8459.5433,3.6441,1.5705,5.3743h24.4085c1.353.3823,2.7488.7444,4.1824,1.0852v11.6805h-35.0452v-62.4754h-73.9169v-22.6455l2.1012-2.2986-3.3347-2.8897v-4.7342l5.9603-1.3681v1.6648l1.1191,4.2816,1.7303-4.3646,3.1286-1.5819v-1.1493l-.2868-.1572,2.8368-.6513-14.4883,2.5337v-2.1225l8.8097-3.9459v1.724l.9883,1.646,1.4801-2.9249,2.7814-2.7965,1.7467-.7822-15.8062,6.1163v-11.942l.8249-2.6545,1.4813-.8652,3.1273.8652v-.5747l.7406-.2905.4942-1.2347h-2.2232l-.5747-.493-1.3178-.7003-.2465-.8211h-.454v-1.7718l-1.8521-1.2763h-1.7907l-.2465-1.5027-.3708-.9243-1.0501-1.3592-1.1719-.6791-2.4697-3.8905-.4338-1.4197-.8639-1.1103-1.6045-1.2361-.2477-2.1603-.679-1.6674-1.9139-2.4697,1.0488-2.1615.4942-1.729-.3697-1.9754-1.6674-1.8472-.0541-.022.9795-2.7613v-2.0378l-.4942-2.037-.9254-1.4209.9254-2.6551v-1.9133l-.4929-1.6674-1.0324-1.3278.4767-2.315v-2.037l-.4326-1.729-.8022-1.8528.8022-2.5314v-2.1609l-.4325-1.4819-.9494-1.0901.5797-1.8944.1647-1.934-.2477-1.8113-.6224-1.6876-.127-.6569.127-1.7711v-2.0597l-.1597-1.934-.8639-1.8937.3307-2.1395v-1.6058l-.3307-1.8113-.4942-1.8114-.1647-.0169v-4.4898l-.2465-2.203-.5772-2.4697-.3067-.0458-.0541-1.8472h.6916v-.4935h-.7042l-.0905-3.2259c.5319-.205.9129-.7175.9129-1.3223,0-.6331-.4176-1.1631-.9884-1.3461l-.0578-2.0817c.6803-.1686,1.1895-.7777,1.1895-1.5121,0-.7659-.5507-1.3977-1.2763-1.5329l-.0617-2.2275c.5143-.1535.8992-.6124.8992-1.179,0-.5897-.4163-1.0613-.967-1.192l-.0151-.5633c.6299-.1239,1.1066-.6797,1.1066-1.3474,0-.6935-.5144-1.2612-1.1833-1.3563l-.029-1.0807c.5257-.0811.9369-.5169.9369-1.0669,0-.5722-.4414-1.0255-.9984-1.0796l-.0264-.9644c.7243-.039,1.3003-.6338,1.3003-1.3675,0-.7596-.6137-1.3751-1.3744-1.3751-.0013,0-.0026.0013-.0039.0013l-.1396-4.9638c.2968-.0346.5308-.2829.5308-.596,0-.3263-.2503-.5866-.5633-.6042l-.044-1.5234-.005,1.5215c-.3207.0094-.576.2761-.576.6061,0,.3289.254.5923.5721.6054l-.0088,2.1037h-.6401l-.6953.2314-.7406.1691h-.957l-.9895.1396-.4615.3238.5407.4325-.4489.664.0628.889,1.651-.6268.9255-.0308.972.1389.7732.0515-.0012.4923c-.6414.1164-1.128.6752-1.128,1.35,0,.6727.4829,1.2272,1.1191,1.3479l-.0037,1.0167c-.4791.1182-.8388.5313-.8388,1.0468,0,.5117.3559.9243.8312,1.0456l-.0037,1.1103c-.6288.1252-1.104.6815-1.104,1.348,0,.6633.4715,1.2166,1.0953,1.3454l-.0013.5653c-.5507.1294-.9683.6016-.9683,1.192,0,.5873.4126,1.0569.9595,1.1914l-.0076,2.2509c-.6564.1848-1.1405.7808-1.1405,1.497,0,.7117.479,1.3051,1.1304,1.4938l-.0076,2.1019c-.5671.1854-.9808.7136-.9808,1.3442,0,.6255.4087,1.1518.972,1.3404l-.0113,3.2077h-.5847v.4935h.5823l-.0052,1.6775-.2061-.0315-.4137,2.3063-.1635,2.3866v2.264l.2466,2.154-.1232-.0125-.6955,2.5928v1.8932l.2013,2.3457.0829.7596-.6576,1.2166-.3232,2.3879v2.469l.3232,1.7692-.2905.6194-.3697,2.1395v2.8003l.1836,1.5624-.6363,1.5239-.205,2.1403.205,1.6881.4929,1.7057-.0138.3106-.6237,1.8523-.3898,2.3873.2061,2.1.386,1.6887-.3444.8632-.5886,2.037v2.1609l.5886,1.9755-1.1733,2.3471-.3106,2.4695.3106,2.2232.3169,1.5184-.3169.5803-.6186,2.6551v3.0871l.4225,1.8999-.6689,1.4335-.9884,2.6557-.3572,3.4077-1.2486,1.1003-1.0488,1.0488-.7418,2.0383-2.3452,4.1986-1.1116.9255-.7419,1.1115v1.729h-1.4196l-1.2348.6174-.8022,1.4813.1937,1.5127-.112.0515h-1.2347v.493h-1.0689l-.5772.865h-1.07l-.8237.3697.5772.8652h.6576v.9066l3.0456-.4124,1.7289,1.1921v12.2174l-14.9007-4.518,4.3218,1.5856-3.6629-1.343v2.886l3.9521,1.9766.7406-1.4837,1.3443-1.1644,8.2048,3.0115v3.0758l-13.1718-2.2873,1.2789.3144-.4552,2.6494,1.1254,1.3178v3.1286l2.1679-2.0597-.1647-2.6331,2.2722-1.1884-2.1943-.5394,9.1417,2.2433v4.8236l-2.0571,2.1515,1.4109,1.6058h-.0528v23.5859h-70.513v62.4754h-7.3132v-61.0293h-34.2304l.9594-1.3003v-2.8594h1.2462v-1.1719l-3.5172-2.271-3.0782,3.0782.5117.733,1.2462-.147v3.3713l1.5404.5143.034.0528h-13.1517v-1.7592h-1.8333v1.0185l-3.5172-1.6108v-1.6536l1.0978-1.4925v-2.857h1.246v-1.1732l-3.517-2.271-3.0782,3.0782.5156.7332,1.2436-.1472v3.3724l.7343.2427v1.3606l-.1483-.0667-21.3252-13.8446v-2.7902h-1.1719v-7.2682l.9531-1.2323v-1.3191l-.6237-.8061h-4.655l-1.9051,2.198,1.6134,1.9491v6.4785h-1.0991v4.4324l-13.998,9.7667-.733-.5332-.0729-1.1329.5143-1.1733v-1.1732l-1.6146-.8061-.7319-1.832-.6602,1.685-1.612,1.6146-.0743,1.0248.6602.5859v1.2072l-.9518.991v-1.9781l-.7332-.2201-1.612-2.6394-1.7592,2.4182-1.172,1.4284-.733.4037,1.9629,5.5014-2.989,4.1005.6589.5131-2.418,2.931.6602.9532,2.1251,1.9063v8.2802l-2.2723.1446v.8802h-1.2449v-5.7893h-5.6434l-8.8612-5.6899.8739-2.4446-1.2473-.6602.3684-3.8465,2.6381-3.3334-2.1251-.8073h-.8814v-4.8361h.8814v-1.0248h-.8814v-.6615h-1.3908v.6615h-.8802v-2.2006h-.3106l.3106-8.2804-1.5441,1.6397-.4351-3.6189-1.3933-4.9833-1.8308-4.9846-.5784-1.0399.2842-4.8953-2.1465,1.5316-1.6625-3.0707-2.4193-3.3713-2.6381-3.5158-2.5639-2.9337-2.9323-3.004-3.443-2.8582-3.2254-2.271-2.8582-2.0521-1.3178-1.2462-.4061-.5483.4061-.1835v-.5873l-.7357-.4037-.0717-.8425.6225-.5117.1849-1.0638-.6966-.733-2.3452-.439-.4841-.0879-.9745-.1773.1207.1773h-1.3378l-1.2638-.8652-.6061-1.3191.7721-.6589.1282-.5055.0528.0792v-1.0776l-.6224-.5118-.2188-1.026-.4037-.0567v-12.8877l1.3543-.3206.8073-1.0261-1.2084-1.1354-.1485-1.9786-.9518-.2565-.4778-1.6492-.8777-1.7221-1.2084-1.4291-.7356-1.209-.3647-1.2826-1.0626-1.1726-.8061-1.502-.6602-2.5287-.4036-2.2352-.6576-.8796-.6966-.4929v-1.2008c.6124-.0397,1.099-.559,1.099-1.2002,0-.6597-.513-1.1921-1.1493-1.2078v-5.5354h1.333v-.5488h-1.333v-5.248c.0189.0024.0314.0081.0503.0075.9732-.0371,1.446-.8456,1.4737-1.6855h3.1776v-.5496h-3.2217c-.1509-.7324-.6539-1.3555-1.48-1.3511v-3.9623h-.342v3.9623c-.8248-.0044-1.3291.6187-1.4787,1.3511h-3.2229v.5496h3.1802c.0275.8399.4991,1.6484,1.4724,1.6855.0189.0006.034-.005.0491-.0075v5.248h-1.3304v.5488h1.3304v5.5354c-.6362.0157-1.148.5481-1.148,1.2078,0,.6406.4879,1.1593,1.099,1.2002v1.2008l-.6966.4929-.6589.8796-.4037,2.2352-.6589,2.5287-.8061,1.502-1.0626,1.1726-.3659,1.2826-.7318,1.209-1.2097,1.4291-.8802,1.7221-.4753,1.6492-.9532.2565-.147,1.9786-1.2097,1.1354.8073,1.0261,1.3555.3206v12.8877l-.4024.0567-.2213,1.026-.6225.5118v1.0776l.0529-.0792.1307.5055.7683.6589-.6048,1.3191-1.2638.8652h-1.3378l.1219-.1773-.9758.1773-.4829.0879-2.3439.439-.6966.733.1823,1.0638.6236.5117-.0742.8425-.7318.4037v.5873l.4035.1835-.4035.5483-1.3216,1.2462-2.857,2.0521-3.2228,2.271-3.4454,2.8582-2.9298,3.004-2.5651,2.9337-2.6382,3.5158-2.4194,3.3713-1.6623,3.0707-2.1489-1.5316.2853,4.8953-.5784,1.0399-1.832,4.9846-1.3933,4.9833-.4338,3.6189-1.5441-1.6397.3119,8.2804h-.3119v2.2006h-.8789v-.6615h-1.3932v.6615h-.8778v1.0248h.8778v4.8361h-.8778l-2.1251.8073,2.6369,3.3334.366,3.8465-1.2449.6602.8726,2.4446-8.8612,5.6899h-5.6436v5.7893h-1.2449v-.8802l-2.2722-.1446v-8.2802l2.1251-1.9063.6602-.9532-2.418-2.931.6589-.5131-2.9865-4.1005,1.9604-5.5014-.7319-.4037-1.1732-1.4284-1.7579-2.4182-1.6134,2.6394-.7318.2201v1.9781l-.9532-.991v-1.2072l.659-.5859-.073-1.0248-1.6133-1.6146-.6576-1.685-.7345,1.832-1.6107.8061v1.1732l.513,1.1733-.0742,1.1329-.7343.5332-13.9955-9.7667v-4.4324h-1.1003v-6.4785l1.6121-1.9491-1.905-2.198h-4.6526l-.6237.8061v1.3191l.9532,1.2323v7.2682h-1.172v2.7902l-21.3264,13.8446-.1459.0667v-1.3606l.7319-.2427v-3.3724l1.2449.1472.5143-.7332-3.0782-3.0782-3.5183,2.271v1.1732h1.2473v2.857l1.0978,1.4925v1.6536l-3.5171,1.6108v-1.0185h-1.8321v1.7592h-13.1505l.0339-.0528,1.538-.5143v-3.3713l1.2449.147.5143-.733-3.0771-3.0782-3.5183,2.271v1.1719h1.2449v2.8594l.9582,1.3003h-34.2291v65.0367l-8.6361-.0755-.503-22.599,3.5259-3.9837-6.5904-4.0175v-42.8402l2.7589-4.1898-1.9931-3.8326-.7658-.1975v-25.5551l2.7589-3.5259.7658-1.5341-5.8233-7.3574-1.6887.1119v-25.3967c1.167-.6514,1.8396-1.3807,1.8396-2.1552,0-1.3467-1.9906-2.5678-5.2108-3.4555v-23.063h-1.9931l-1.5341.9274v-27.9079h-1.8396l-.7657.3363v-18.8838h-2.1454v-11.0184h-.6903v-3.3342h1.6095v-3.2763h-2.0697v-2.1842h-1.2649v-2.8946c2.2797-.3679,4.0239-2.3087,4.0239-4.6646s-1.7441-4.2973-4.0239-4.6657v-3.3726l.6513-.6897-.3068-2.2993.3068-2.147.6892-1.0727v-2.2992l-.6111,2.6821v-1.3411l-.8451-1.1116.3849-1.4561v-1.2267l-.9973-.7658-.9971,1.4562.4992,1.6862-.4992,1.4178.4992,2.1081-.4992,3.602.5181.398v4.3973c-2.4457.2188-4.3684,2.2263-4.3684,4.6997,0,2.3559,1.7454,4.2967,4.0238,4.6646v2.8946h-.9771v2.1842h-1.7252v3.2763h1.7252v4.6809l-1.0927.9531-1.0148,2.5866v9.9264l-.4602.3452-2.1454,2.2992-1.5328,2.7589v18.2846l-1.304,1.49-1.6095,3.3719v25.7922l-1.8396,1.9541-2.2985,3.5259-.9206,3.5253v2.1055c-2.0245.7947-3.2191,1.7592-3.2191,2.7992,0,.8437.7784,1.6359,2.1465,2.3287v27.3484l-7.8176.5232v1.5328l3.0657,3.2455v25.1754l-1.1506.8577v3.2191l-1.9151,1.226,2.1452,3.3473v8.4854l-42.9219,1.1958-18.3952-7.0493-8.2778,8.5846h-24.221l-29.432,32.4975,3.0657.6137,1.0261,32.5467-13.7666-.117v-57.5485l-1.6963-1.5718v-28.9554l-1.8019-1.3556v-14.438l-1.6963-1.2764v-11.7597l-2.2257-2.9249v-11.1737h-2.5438v-6.359h-2.1201v-6.1477h-2.4369v-5.8295h-2.4922v-5.2995h-3.1248v-4.8752h-7.4215v4.8752h-3.0745v5.2995h-2.0119v-9.539h-2.2268v-6.3603h-2.437v-5.9352h-2.6494v-5.512h-3.3411v-4.9815h-3.126v-5.0876h-4.0276v-4.4521h-7.6302v4.4521h-4.0276v5.0876h-3.1286v4.9815h-3.3386v5.512h-2.6507v5.9352h-2.4357v6.3603h-2.227v9.539h-2.0132v-5.2995h-3.0745v-4.8752h-7.4202v4.8752h-3.126v5.2995h-2.4911v5.8295h-2.4381v6.1477h-2.1201v6.359h-2.5438v11.1737l-2.2257,2.9249v11.7597l-1.695,1.2764v14.438l-1.8019,1.3556v28.9554l-1.6963,1.5718v56.6257l-44.2435-.376,3.0254-8.1848-8.0942-2.7752.4578-1.5542,19.8929-80.0783,24.5128-70.9946-9.2498-20.8126-63.5956,15.7244-25.4383,12.7197v14.3375l-9.9427,4.3922-15.2629-2.3112,9.9427,43.9379,9.9867,95.0572-2.2534-.0176-12.357-93.884-16.8814-74.4626-27.5199-21.9696-67.2945,51.57,16.9007,113.5215,72.5948-11.3082,2.8846,2.0208-9.3598-57.9837-11.5629,56.1943,8.9033-68.4506-12.1407-82.5576,17.5754,80.7066,6.6401,72.1288,15.5597,10.8932-7.6341,23.3786-.904-.0076,5.3001-21.984-16.1866-11.3309-127.1901,20.5794,2.6029,16.7894-12.0301.8841-69.9899,2.208-44.3075,1.2599-74.5777-114.3314v-22.0884h-9.8653v29.3817l-12.0986,26.502-23.7765-38.7647v-17.1191h-13.502v26.77l-61.9314,118.9928c-3.7447.2251-7.5007.4502-11.248.6803l-65.5434-100.473v-19.9483h-8.9141v26.536l-10.9254,23.942-21.476-35.0201v-15.4579h-10.1281v20.2035l-58.8632,113.1004c-5.7743.4903-12.2277,1.2601-17.9988,1.7644v7.0632c.0578.1409.0698.2916,0,.4565-.0314.0742,2.0798-.1836,2.0421-.1057,5.9924-.3759,9.519-.6377,15.5127-.9973v50.1184h24.3293v-51.5532c11.6553-.6714,23.3181-1.309,34.9779-1.9226v53.3927h10.1281v-34.6014h32.4015v34.6014h8.9141v-55.9416c46.2132-2.1301,92.4579-3.8529,138.7228-5.1555v61.0971h13.502v-43.8222h35.8751v43.8222h9.8653v-62.5394c8.8921-.1862,17.7892-.3609,26.6889-.5131v63.0525h25.2742v-63.4398c11.3617-.1597,22.7196-.2879,34.0782-.3948v63.8346h26.8114v-38.4466c.0327-.0138.0648-.0301.0968-.0427v-25.5603l66.3765.7142-28.4581,63.3354h1442.976v-89.8802h-50.7666ZM1269.5338,608.7515c.5457.007.8966.4124,1.0337.911h-1.0337v-.911ZM1269.5338,610.2121h1.1003c-.0201.6249-.3533,1.2185-1.0499,1.2467-.0189,0-.0314.007-.0503.0113v-1.258ZM30.2611,833.41c-2.0585,0-4.0396-.3256-5.8748-.9079,4.6173-.2728,9.2259-.542,13.8357-.8135-2.3735,1.0902-5.0896,1.7214-7.9609,1.7214ZM76.7472,819.9879c-.6689.0478-1.3373.0968-2.0087.1534l2.0087-4.4036v4.2502ZM76.7472,811.1719l-4.1665,9.1342c-.2981.0225-.6011.0452-.9016.0716l5.0681-9.744v.5382ZM76.7472,806.4753l-7.3234,14.0747c-2.4049.1899-4.8179.3747-7.2228.5609l14.5462-27.9444v13.3088ZM76.7472,789.003l-16.8064,32.2902c-1.956.1546-3.9132.318-5.8698.4715l22.6762-43.5758v10.814ZM76.7472,774.0293l-24.9359,47.9165c-1.9604.1584-3.917.3132-5.8742.469l30.8101-59.1971v10.8116ZM76.7472,759.0555l-33.0666,63.5428c-1.9666.1572-3.9257.3206-5.8823.4829l38.9489-74.8386v10.8129ZM76.7472,744.0855l-41.213,79.1843c-2.4099.1974-4.828.3961-7.2361.6011l48.4491-93.0955v13.3101ZM76.7472,726.6145l-50.7149,97.44c-1.9598.1673-3.9233.3256-5.8855.4903l56.6004-108.7419v10.8116ZM108.5218,746.1075l3.1065,5.0663-2.6658,5.8371-3.1028-5.0613,2.6621-5.8421ZM115.1919,811.8283l-3.1059-5.0613,2.6646-5.8408,3.1096,5.0612-2.6684,5.841ZM115.9979,817.0605c-.3841.0277-.767.0529-1.1481.0831l.5143-1.1229.6338,1.0399ZM107.2002,812.906l-3.1028-5.065,2.6653-5.8358,3.1053,5.0599-2.6677,5.841ZM107.7107,817.6566c-.2019.0152-.4068.0303-.6137.0453l.2717-.6024.342.557ZM104.9581,784.9578l-2.6671,5.8421-3.8195-6.2294,2.6645-5.8434,3.8221,6.2307ZM102.1635,776.4826l2.6614-5.8421,3.8239,6.2319-2.6645,5.8421-3.8208-6.2319ZM101.2656,793.0445l-2.6639,5.8421-3.8245-6.2294,2.6682-5.8434,3.8201,6.2307ZM102.4621,794.9935l3.1053,5.0613-2.6676,5.8397-3.1009-5.0613,2.6632-5.8397ZM103.485,792.7464l2.6677-5.8421,3.1072,5.0613-2.6658,5.8446-3.1091-5.0637ZM110.4507,793.9121l3.1072,5.0637-2.6639,5.8434-3.1054-5.065,2.6621-5.8421ZM110.284,789.721l-3.1083-5.0612,2.6702-5.8422,3.1009,5.065-2.6627,5.8384ZM109.6755,774.624l-3.8271-6.2307,3.2851-7.19,3.8208,6.2332-3.2788,7.1876ZM104.6595,766.4468l-3.1072-5.0625,3.2819-7.1888,3.1059,5.0612-3.2806,7.1901ZM103.6321,768.6938l-2.6658,5.8422-3.1046-5.0663,2.6658-5.8397,3.1046,5.0637ZM99.9422,776.7781l-2.664,5.8433-3.1072-5.0637,2.6653-5.8395,3.1059,5.06ZM96.2509,784.866l-2.6677,5.8421-3.1028-5.0612,2.6653-5.8422,3.1053,5.0613ZM93.7568,794.9029l3.8226,6.2294-3.28,7.1888-3.8252-6.2319,3.2826-7.1864ZM94.4654,812.5149l3.109,5.0637-.3954.8613c-1.702.1245-3.3964.2503-5.094.3747l-.2829-.4576,2.6633-5.8421ZM95.4908,810.2666l3.2787-7.1851,3.1091,5.06-3.2826,7.1901-3.1053-5.065ZM103.0701,810.0893l3.1065,5.0625-1.2374,2.7098c-1.5278.1119-3.0549.2288-4.5789.3383l-.5734-.9192,3.2832-7.1913ZM111.0624,809.0128l3.1078,5.065-1.475,3.2166c-.8896.0691-1.7906.127-2.6821.1937l-1.6171-2.6331,2.6664-5.8422ZM114.5833,796.7288l-3.1065-5.0613,2.6671-5.8395,3.104,5.0625-2.6645,5.8384ZM113.9729,781.6356l-3.1002-5.0612,3.2763-7.1914,3.1053,5.065-3.2813,7.1876ZM113.9797,765.1894l-3.8201-6.2333,2.6664-5.8371,3.819,6.232-2.6653,5.8384ZM86.8753,710.8134l20.4531,33.3476-2.6658,5.8397-17.7873-28.9994v-10.1879ZM86.8753,724.9194l16.7606,27.327-3.2756,7.1888-13.485-21.9816v-12.5343ZM86.8753,741.3744l12.4589,20.3079-2.6658,5.8421-9.7931-15.9633v-10.1867ZM86.8753,755.4768l8.7676,14.2935-2.6671,5.8408-6.1005-9.9489v-10.1854ZM86.8753,769.5779l5.0757,8.2802-2.6658,5.841-2.4099-3.9333v-10.1879ZM86.8753,783.6839l1.3838,2.2585-1.3838,3.0379v-5.2964ZM86.8753,793.5474l2.5809-5.6522,3.1065,5.0587-3.2832,7.19-2.4043-3.9232v-2.6734ZM86.8753,800.1403l1.3807,2.2483-1.3807,3.0254v-5.2738ZM86.8753,809.9798l2.5759-5.6434,3.8214,6.2307-2.6695,5.8434-3.7278-6.0874v-.3433ZM86.8753,814.2427l2.7035,4.411-.1628.3622c-.8451.0628-1.6944.1245-2.5408.1886v-4.9619ZM119.2767,838.07h-32.4015v-9.0398c10.7996-.5545,21.5981-1.0839,32.4015-1.5943v10.6342ZM119.2767,816.8293c-.3244.0188-.6488.0439-.9764.0691l-1.9132-3.1211,2.6645-5.8421.2251.3672v8.5268ZM119.2767,802.874l-.393.8676-3.1059-5.0625,2.6658-5.841.8331,1.3644v8.6714ZM119.2767,786.4404l-1.0059,2.2056-3.1041-5.065,3.2826-7.1901.8274,1.3555v8.6941ZM119.2767,770.0104l-.9971,2.1905-3.1085-5.065,2.6671-5.8397,1.4385,2.3465v6.3677ZM119.2767,759.7257l-.4124-.6765.4124-.9066v1.5831ZM119.2767,753.5805l-1.6095,3.5235-3.8169-6.2333,5.4265-11.9004v14.6102ZM119.2767,734.4095l-6.6211,14.5147-3.1096-5.06,9.7308-21.3238v11.8691ZM128.1909,778.17l10.7473,17.5276-10.7473-16.4814v-1.0462ZM130.2814,816.0408c-.0842-.3773-.1704-.7508-.2477-1.133l-.5426,1.1895c-.4325.0301-.8663.0591-1.3001.0931v-4.884l3.0418,4.669c-.3151.0214-.6344.0415-.9513.0654ZM141.7065,815.2574l-13.4384-20.6034c.0874,1.3064.1503,2.6167.1805,3.927l10.982,16.831c-1.514.1056-3.0299.2074-4.547.3106l-6.2256-10.1464c-.1107-1.1631-.1962-2.3251-.2723-3.4869l-.1948.4275v-10.2444l14.0721,22.9473c-.1843.0112-.3679.0251-.5565.0377ZM144.5705,815.0588l-16.3796-26.6996v-2.5338c.0164-.86.0301-1.7177.0439-2.5803l-.0439.1019v-.4853l20.8039,31.8953c-1.4731.0993-2.9519.2024-4.4243.3018ZM152.8709,814.4903l-24.68-40.2385v-2.7701l.1012-.234c-.0202-.4866-.0409-.9732-.0711-1.4611l28.9761,44.4207c-1.4385.0981-2.8815.1849-4.3262.2829ZM159.4807,814.0565l-31.2898-47.9693v-9.4786l37.2225,57.0582c-1.9748.1308-3.956.2615-5.9326.3898ZM167.6938,813.5184l-39.5029-60.5603v-9.4824l45.4329,69.6528c-1.9754.1258-3.9508.2604-5.9301.3899ZM175.9105,812.9801l-47.7196-73.1486v-11.6705l55.0311,84.3601c-2.4401.1534-4.8751.3005-7.3114.4589ZM185.5062,812.3791l-57.3153-87.8621v-9.4837l63.2554,96.9723c-1.9786.1232-3.9559.2452-5.9401.3734ZM266.9137,802.9884l-2.193,4.8098c-.3226.0113-.6445.0288-.9664.0478l3.1593-6.0722v1.2146ZM266.9137,797.1689l-5.6208,10.8103c-2.6376.1409-5.265.2842-7.8974.4263l13.5182-25.969v14.7323ZM266.9137,777.8293l-15.9796,30.7108c-2.1408.1156-4.2748.2275-6.415.347l22.3946-43.0288v11.971ZM266.9137,761.2548l-24.8585,47.7643c-2.1415.1221-4.2836.2477-6.4225.3647l31.281-60.1013v11.9723ZM266.9137,744.6752l-33.755,64.852c-2.1371.1232-4.2785.2426-6.4174.3684l40.1724-77.1913v11.971ZM266.9137,728.0996l-42.6421,81.9356c-2.6362.1496-5.2738.3043-7.9055.4602l50.5477-97.1307v14.7349ZM266.9137,708.7624l-53.0287,101.8826c-2.1382.1271-4.2879.2553-6.4275.3823l59.4561-114.2409v11.976ZM304.3832,725.9417l3.4367,5.607-2.9532,6.4658-3.4359-5.6057,2.9524-6.4671ZM311.762,798.6967l-3.4372-5.602,2.9493-6.4683,3.4366,5.6044-2.9487,6.4658ZM311.9537,803.3405l1.2625,2.0584c-.7526.0352-1.5007.0679-2.2503.1031l.9877-2.1615ZM302.9165,799.8901l-3.4391-5.6033,2.9556-6.4658,3.4328,5.602-2.9493,6.4671ZM303.9042,805.8365c-.4778.0227-.9519.0453-1.421.068l.6206-1.3718.8004,1.3039ZM300.4348,768.9505l-2.9513,6.467-4.2326-6.8996,2.9513-6.4633,4.2326,6.8959ZM297.3396,759.5685l2.9506-6.467,4.2269,6.8971-2.9449,6.4684-4.2326-6.8985ZM296.3469,777.9048l-2.95,6.4646-4.2301-6.8972,2.9494-6.4683,4.2306,6.9009ZM297.6704,780.0587l3.4385,5.6045-2.9513,6.467-3.4391-5.6044,2.9519-6.4671ZM298.8065,777.5715l2.95-6.4658,3.4391,5.607-2.9525,6.467-3.4366-5.6082ZM306.5159,778.8655l3.4372,5.6057-2.948,6.467-3.4391-5.6057,2.95-6.467ZM306.331,774.2254l-3.4391-5.6044,2.9525-6.4683,3.4341,5.6057-2.9475,6.467ZM305.6527,757.5114l-4.2288-6.8984,3.6315-7.956,4.2301,6.8959-3.6328,7.9585ZM300.1022,748.4564l-3.4416-5.6031,3.6339-7.9585,3.4391,5.6045-3.6315,7.9571ZM298.9687,750.9461l-2.9525,6.4646-3.4378-5.6044,2.9506-6.4683,3.4398,5.6082ZM294.8813,759.8967l-2.95,6.4671-3.4385-5.6045,2.9519-6.4658,3.4366,5.6033ZM290.7959,768.8498l-2.9525,6.4671-3.4372-5.6057,2.95-6.4646,3.4398,5.6031ZM288.0307,779.9582l4.2339,6.8984-3.6334,7.9585-4.2306-6.8959,3.6302-7.9609ZM288.8185,799.46l3.438,5.602-.625,1.3681c-1.7629.0905-3.5309.1684-5.2958.2591l-.4672-.7659,2.95-6.4633ZM289.9527,796.9715l3.6328-7.9598,3.4341,5.6058-3.6278,7.9583-3.4391-5.6044ZM298.3418,796.7716l3.4411,5.6044-1.6605,3.6428c-1.4982.073-2.9908.1447-4.484.2176l-.9248-1.5052,3.6283-7.9596ZM307.1905,795.5807l3.4378,5.6033-2.0187,4.4262c-.7086.0339-1.4147.0704-2.122.1019l-2.2508-3.6655,2.9537-6.4658ZM311.0912,781.9864l-3.4379-5.607,2.9506-6.4658,3.4354,5.6044-2.9482,6.4684ZM310.414,765.2723l-3.4391-5.607,3.6347-7.9572,3.4359,5.6058-3.6315,7.9583ZM310.4222,747.0669l-4.2345-6.8958,2.9543-6.4684,4.2308,6.8972-2.9506,6.467ZM280.4156,686.8701l22.6416,36.9164-2.9467,6.4646-19.6948-32.104v-11.277ZM280.4156,702.4839l18.5568,30.253-3.6328,7.961-14.924-24.3343v-13.8798ZM280.4156,720.702l13.7917,22.4857-2.9525,6.4621-10.8392-17.6722v-11.2755ZM280.4156,736.3132l9.7057,15.8226-2.9488,6.4646-6.7568-11.0078v-11.2793ZM280.4156,751.9295l5.6208,9.1593-2.9537,6.4671-2.6671-4.3509v-11.2755ZM280.4156,767.5396l1.5347,2.5023-1.5347,3.3637v-5.8659ZM280.4156,778.4581l2.8582-6.261,3.4335,5.6083-3.6284,7.9572-2.6632-4.3407v-2.9637ZM280.4156,785.7588l1.5271,2.4885-1.5271,3.3499v-5.8384ZM280.4156,796.6533l2.8506-6.2471,4.2295,6.8959-2.9506,6.4671-4.1294-6.7374v-.3786ZM280.4156,801.3701l2.9934,4.8827-.271.5985c-.9066.0453-1.8145.0918-2.7223.1422v-5.6233ZM316.2907,827.7502h-35.8751v-6.2584c11.9558-.3143,23.9117-.6048,35.8751-.8637v7.1222ZM316.2907,805.2594c-.1616.0063-.3282.0126-.4866.0214l-2.7205-4.4237,2.9531-6.4697.254.4075v10.4645ZM316.2907,788.7867l-.4432.9583-3.4367-5.6033,2.9487-6.4696.9312,1.5114v9.6032ZM316.2907,770.5914l-1.1135,2.442-3.4429-5.607,3.6347-7.9572.9217,1.4976v9.6245ZM316.2907,752.4023l-1.1116,2.4256-3.4322-5.607,2.9487-6.4671,1.5951,2.6017v7.0468ZM316.2907,741.0161l-.4621-.7457.4621-1.0059v1.7516ZM316.2907,734.212l-1.7838,3.9019-4.2287-6.8996,6.0125-13.1756v16.1733ZM316.2907,712.9887l-7.3373,16.0716-3.4353-5.6057,10.7726-23.6063v13.1404ZM326.1561,737.5631l42.6949,65.4566c-2.2219.0843-4.4489.1799-6.6746.2641l-36.0203-55.2223v-10.4984ZM326.1561,761.4358l11.9012,19.4076-11.9012-18.2469v-1.1607ZM328.7778,804.6884c-.2099-.8587-.4017-1.7176-.5802-2.5803l-1.2178,2.6646c-.2748.0088-.5515.0227-.8237.0364v-6.6859l4.2339,6.4948c-.5363.0225-1.0776.0478-1.6121.0703ZM342.176,804.1113l-15.9388-24.426c.0981,1.4486.166,2.8985.205,4.3482l13.1675,20.1884c-1.7209.0743-3.4417.1446-5.1701.2226l-7.7692-12.6702c-.1207-1.2851-.2212-2.5753-.3017-3.859l-.2126.4766v-11.3409l16.5783,27.0377c-.1804.0063-.3723.0164-.5583.0227ZM345.3322,803.9793l-19.1762-31.2654v-2.8104c.012-.9507.027-1.9.0484-2.8494l-.0484.1132v-.5357l24.2179,37.1313c-1.6806.0704-3.3605.1459-5.0417.2163ZM326.1561,757.099v-3.067l.1163-.2589c-.0225-.5408-.0559-1.0815-.0855-1.6171l33.4244,51.2324c-1.6497.0666-3.2939.1307-4.9449.1948l-28.5102-46.4842ZM365.5627,820.9184c-2.7589,0-5.4133-.3872-7.8628-1.089,5.5309-.0918,11.0574-.1798,16.5833-.2615-2.6841.8652-5.6303,1.3505-8.7205,1.3505ZM371.4181,802.9168l-45.2621-69.3888v-10.4947l51.9417,79.6257c-2.2257.0879-4.452.171-6.6796.2578ZM380.6691,802.5659l-54.5131-83.5741v-12.9178l62.7426,96.1877c-2.7388.0993-5.487.1987-8.2295.3043ZM391.4713,802.1661l-65.3153-100.1286v-10.4959l71.9992,110.3792c-2.2244.078-4.4551.1635-6.684.2453ZM426.0984,820.5991c-3.2914,0-6.4369-.5483-9.2612-1.5253,6.3049-.0515,12.6135-.1006,18.9234-.1396-2.9323,1.0613-6.2124,1.6649-9.6623,1.6649ZM569.0904,774.4517l4.1628,11.5623,9.2422-.689.3911,2.6281-13.7961.8349v-14.3362ZM580.0566,827.3943l-5.7051-27.8425c-.0188-.0176-.0364-.0353-.0559-.0528l-.3496-1.9214,9.5705-5.3983.3483,2.3414-5.7553,3.0568,3.2372,20.3493,10.2879-8.2942.1163-.0013,1.1978-.9544h5.9365c-.3428.1987-.6785.41-1.006.6438l1.3273.2024-19.1498,17.8709ZM721.024,627.8366l34.2254,56.4257,27.0566-67.9886-24.9756,74.2319-23.1246,88.3398,18.2683-89.2641-31.4502-61.7447ZM1222.4611,728.8967h-.8789v-4.8361h.8789v4.8361ZM1264.6223,658.4517c-.6741.0793-1.3744.1559-2.0699.2566v-10.3174c0-.5709.4628-1.0337,1.035-1.0337.5708,0,1.0349.4628,1.0349,1.0337v10.0608ZM1268.4752,658.1387c-.8589.0138-1.7153.0716-2.5703.161v-10.657c0-.7092.5771-1.2851,1.2851-1.2851.7092,0,1.2852.5758,1.2852,1.2851v10.496ZM1269.1918,611.4701c-.0151-.0044-.0301-.0113-.0491-.0113-.6966-.0282-1.0298-.6218-1.0499-1.2467h1.099v1.258ZM1269.1918,609.6625h-1.0324c.1384-.4986.4905-.904,1.0324-.911v.911ZM1272.612,658.3876c-.5784-.0591-1.1542-.1143-1.7289-.166-.2804-.0251-.5596-.044-.8401-.0591v-10.5198c0-.7092.5747-1.2851,1.2839-1.2851.7105,0,1.2851.5758,1.2851,1.2851v10.7449ZM1276.1053,658.834c-.6877-.1082-1.3782-.2024-2.0672-.2855v-10.1576c0-.5709.4626-1.0337,1.0323-1.0337.5722,0,1.0348.4628,1.0348,1.0337v10.4431ZM1317.1461,728.8967h-.8802v-4.8361h.8802v4.8361ZM1527.4916,701.8037l-1.5228.5357v-17.4081l1.5228-.9053v17.7778ZM1531.9794,700.2255l-2.7588.9695v-17.8734l2.7588-.6024v17.5063ZM1538.8716,606.8395l-.0202.3961-.0389.0831.0591-.4791ZM1538.449,616.1196l.0026.0792-.0063.0238.0037-.103ZM1535.577,665.7827h2.4331l-2.3389,4.7695-2.3376.9368,2.2433-5.7063ZM1539.3871,697.6214l-4.7745,1.6787v-17.0373l4.7745-.474v15.8326ZM1550.42,698.5846l-5.9339-1.0022v-15.7672l5.9339.6476v16.1218ZM1548.9827,668.7414l-1.2663-3.6012,2.5312,1.4599,1.4599,5.7453-2.7249-3.604ZM1555.8119,700.1488l-2.7576-.8135v-16.5091l2.7576.459v16.8636ZM1559.0624,701.6264l-.904-.7858-.6187-.1812v-16.973l1.5228.4539v17.4862Z"/>
  </g>
  <g id="flag">
    <g>
      <g class="cls-25">
        <rect class="cls-13" x="127.2092" y="883" width="1250.7818" height="75.235"/>
      </g>
      <g class="cls-27">
        <rect class="cls-12" x="127.2092" y="1004.6296" width="1250.7818" height="75.8623"/>
      </g>
    </g>
    <rect class="cls-21" x="-1.3176" y="883" width="81.5049" height="75.235"/>
    <g class="cls-30">
      <polygon class="cls-37" points="126.5819 958.235 126.5819 883 80.1873 883 80.1873 958.235 -1.3176 958.235 -1.3176 1004.6296 80.1873 1004.6296 80.1873 1080.4919 126.5819 1080.4919 126.5819 1004.6296 1377.3637 1004.6296 1377.3637 958.235 126.5819 958.235"/>
    </g>
    <rect class="cls-22" x="-1.3176" y="1004.6296" width="81.5049" height="75.8623"/>
  </g>
  <g id="input-fields">
    <text id="type" class="cls-24" transform="translate(559.02 265.6606)">ATC Validation</text>
    <text id="callsign" class="cls-11" transform="translate(333.2705 175.5093)">Kastrup Tower</text>
    <text id="date" class="cls-34" transform="translate(206.7568 454.2817)">10 Aug 2024</text>
    <text id="time" class="cls-36" transform="translate(643.4263 454.2817)">17:00 - 19:00 UTC</text>
    <text id="candidate" class="cls-35" transform="translate(1181.9854 454.2817)">Candidate</text>
    <g class="cls-32">
      <rect class="cls-23" x="337.7185" y="209.2045" width="192.8623" height="66.7955"/>
    </g>
  </g>
</svg>