<?xml version="1.0" encoding="UTF-8"?>
<svg xmlns="http://www.w3.org/2000/svg" xmlns:xlink="http://www.w3.org/1999/xlink" viewBox="0 0 1920 1080">
  <defs>
    <style>
      .cls-1 {
        mask: url(#mask);
      }

      .cls-2 {
        filter: url(#luminosity-noclip);
      }

      .cls-3 {
        filter: url(#drop-shadow-1);
      }

      .cls-4 {
        filter: url(#drop-shadow-3);
      }

      .cls-5 {
        filter: url(#drop-shadow-2);
      }

      .cls-6 {
        filter: url(#luminosity-noclip-3);
      }

      .cls-7 {
        filter: url(#luminosity-noclip-5);
      }

      .cls-8 {
        font-size: 56.4838px;
      }

      .cls-8, .cls-9 {
        font-family: Roboto-Bold, Roboto;
        font-weight: 700;
      }

      .cls-10 {
        fill: url(#linear-gradient-5);
      }

      .cls-11 {
        fill: url(#linear-gradient-4);
      }

      .cls-12 {
        fill: url(#linear-gradient-3);
      }

      .cls-13 {
        fill: url(#linear-gradient-2);
      }

      .cls-13, .cls-14, .cls-15, .cls-16, .cls-17, .cls-18, .cls-19, .cls-20 {
        mix-blend-mode: multiply;
      }

      .cls-14 {
        fill: url(#linear-gradient-9);
      }

      .cls-15 {
        fill: url(#linear-gradient-6);
      }

      .cls-16 {
        fill: url(#linear-gradient-7);
      }

      .cls-17 {
        fill: url(#linear-gradient-8);
      }

      .cls-21 {
        fill: url(#linear-gradient);
      }

      .cls-22, .cls-23, .cls-9 {
        fill: #dfebeb;
      }

      .cls-24 {
        isolation: isolate;
      }

      .cls-25 {
        mask: url(#mask-2);
      }

      .cls-26 {
        mask: url(#mask-3);
      }

      .cls-27 {
        mask: url(#mask-4);
      }

      .cls-28 {
        mask: url(#mask-1);
      }

      .cls-18 {
        fill: url(#linear-gradient-10);
      }

      .cls-19 {
        fill: url(#linear-gradient-12);
      }

      .cls-29, .cls-30, .cls-31, .cls-32 {
        fill: #fff;
      }

      .cls-30 {
        filter: url(#drop-shadow-4);
      }

      .cls-30, .cls-31, .cls-32 {
        font-size: 47.3059px;
      }

      .cls-30, .cls-31, .cls-32, .cls-23 {
        font-family: Roboto-Regular, Roboto;
      }

      .cls-31 {
        filter: url(#drop-shadow-6);
      }

      .cls-32 {
        filter: url(#drop-shadow-5);
      }

      .cls-33 {
        fill: url(#linear-gradient-11);
      }

      .cls-23 {
        font-size: 60px;
      }

      .cls-34 {
        fill: #1a475f;
      }

      .cls-35 {
        fill: #43c6e7;
      }

      .cls-9 {
        font-size: 83.695px;
      }

      .cls-36 {
        letter-spacing: -.1016em;
      }

      .cls-37 {
        letter-spacing: -.063em;
      }

      .cls-38 {
        letter-spacing: -.0293em;
      }

      .cls-39 {
        letter-spacing: -.0054em;
      }

      .cls-40 {
        letter-spacing: -.0137em;
      }

      .cls-41 {
        letter-spacing: -.0137em;
      }
    </style>
    <linearGradient id="linear-gradient" x1="960.5269" y1="886" x2="960.5269" y2="0" gradientUnits="userSpaceOnUse">
      <stop offset=".0819" stop-color="#ff241a"/>
      <stop offset=".1183" stop-color="#e4221b"/>
      <stop offset=".1998" stop-color="#b01e1e"/>
      <stop offset=".2848" stop-color="#811b20"/>
      <stop offset=".3713" stop-color="#591823"/>
      <stop offset=".4599" stop-color="#391624"/>
      <stop offset=".5511" stop-color="#201526"/>
      <stop offset=".646" stop-color="#0e1327"/>
      <stop offset=".7471" stop-color="#041327"/>
      <stop offset=".8651" stop-color="#011328"/>
    </linearGradient>
    <filter id="luminosity-noclip" x="98.2137" y="642.5084" width=".5826" height=".2051" color-interpolation-filters="sRGB" filterUnits="userSpaceOnUse">
      <feFlood flood-color="#fff" result="bg"/>
      <feBlend in="SourceGraphic" in2="bg"/>
    </filter>
    <filter id="luminosity-noclip-2" x="98.2137" y="-8732" width=".5826" height="32766" color-interpolation-filters="sRGB" filterUnits="userSpaceOnUse">
      <feFlood flood-color="#fff" result="bg"/>
      <feBlend in="SourceGraphic" in2="bg"/>
    </filter>
    <mask id="mask-1" x="98.2137" y="-8732" width=".5826" height="32766" maskUnits="userSpaceOnUse"/>
    <linearGradient id="linear-gradient-2" x1="95.7707" y1="487.7249" x2="101.5729" y2="816.5504" gradientUnits="userSpaceOnUse">
      <stop offset="0" stop-color="#fff"/>
      <stop offset=".097" stop-color="#efefef"/>
      <stop offset=".2865" stop-color="#c5c5c5"/>
      <stop offset=".55" stop-color="#818181"/>
      <stop offset=".8742" stop-color="#252525"/>
      <stop offset="1" stop-color="#000"/>
    </linearGradient>
    <mask id="mask" x="98.2137" y="642.5084" width=".5826" height=".2051" maskUnits="userSpaceOnUse">
      <g class="cls-2">
        <g class="cls-28">
          <path class="cls-13" d="M98.6315,642.5084c.0541.0504.1094.0995.1648.1484-.1912.0277-.3863.0479-.5826.0567.1473-.0567.2857-.1246.4178-.2051Z"/>
        </g>
      </g>
    </mask>
    <linearGradient id="linear-gradient-3" x1="95.7707" y1="487.7249" x2="101.5729" y2="816.5504" gradientUnits="userSpaceOnUse">
      <stop offset="0" stop-color="#221714"/>
      <stop offset=".2346" stop-color="#242323"/>
      <stop offset=".6904" stop-color="#2c424d"/>
      <stop offset="1" stop-color="#325b6d"/>
    </linearGradient>
    <filter id="drop-shadow-1" filterUnits="userSpaceOnUse">
      <feOffset dx="1" dy="1"/>
      <feGaussianBlur result="blur" stdDeviation="2"/>
      <feFlood flood-color="#000" flood-opacity=".6"/>
      <feComposite in2="blur" operator="in"/>
      <feComposite in="SourceGraphic"/>
    </filter>
    <filter id="drop-shadow-2" filterUnits="userSpaceOnUse">
      <feOffset dx="1" dy="1"/>
      <feGaussianBlur result="blur-2" stdDeviation="2"/>
      <feFlood flood-color="#000" flood-opacity=".6"/>
      <feComposite in2="blur-2" operator="in"/>
      <feComposite in="SourceGraphic"/>
    </filter>
    <filter id="drop-shadow-3" filterUnits="userSpaceOnUse">
      <feOffset dx="1" dy="1"/>
      <feGaussianBlur result="blur-3" stdDeviation="2"/>
      <feFlood flood-color="#000" flood-opacity=".6"/>
      <feComposite in2="blur-3" operator="in"/>
      <feComposite in="SourceGraphic"/>
    </filter>
    <linearGradient id="linear-gradient-4" x1="960.0743" y1="857.1565" x2="960.0743" y2="1312.4354" gradientUnits="userSpaceOnUse">
      <stop offset=".0438" stop-color="#011328"/>
      <stop offset=".1552" stop-color="#435160" stop-opacity=".7368"/>
      <stop offset=".395" stop-color="#acb2b9" stop-opacity=".3237"/>
      <stop offset=".6605" stop-color="#ebecee" stop-opacity=".0779"/>
      <stop offset="1" stop-color="#fff" stop-opacity="0"/>
    </linearGradient>
    <linearGradient id="linear-gradient-5" x1="1648" y1="983" x2="-1" y2="983" gradientUnits="userSpaceOnUse">
      <stop offset="0" stop-color="#000" stop-opacity="0"/>
      <stop offset=".1121" stop-color="#040404" stop-opacity=".0177"/>
      <stop offset=".2361" stop-color="#111" stop-opacity=".07"/>
      <stop offset=".3659" stop-color="#272727" stop-opacity=".1568"/>
      <stop offset=".4997" stop-color="#474747" stop-opacity=".2785"/>
      <stop offset=".6365" stop-color="#6e6e6e" stop-opacity=".435"/>
      <stop offset=".776" stop-color="#9f9f9f" stop-opacity=".6267"/>
      <stop offset=".9149" stop-color="#d8d8d8" stop-opacity=".8488"/>
      <stop offset="1" stop-color="#fff"/>
    </linearGradient>
    <linearGradient id="linear-gradient-6" x1="-369.3574" y1="924.5854" x2="1210.6024" y2="921.7282" gradientTransform="translate(364.6637)" gradientUnits="userSpaceOnUse">
      <stop offset=".0925" stop-color="#0062af"/>
      <stop offset=".1541" stop-color="#287abb"/>
      <stop offset=".24" stop-color="#5a99cb"/>
      <stop offset=".3303" stop-color="#86b4d9"/>
      <stop offset=".4235" stop-color="#abcbe4"/>
      <stop offset=".5201" stop-color="#c9deee"/>
      <stop offset=".6213" stop-color="#e1ecf5"/>
      <stop offset=".7291" stop-color="#f2f7fa"/>
      <stop offset=".848" stop-color="#fbfdfe"/>
      <stop offset="1" stop-color="#fff"/>
    </linearGradient>
    <linearGradient id="linear-gradient-7" x1="-369.1463" y1="1041.3782" x2="1210.8135" y2="1038.521" gradientTransform="translate(364.6637)" gradientUnits="userSpaceOnUse">
      <stop offset=".0894" stop-color="#0062af"/>
      <stop offset=".1512" stop-color="#287abb"/>
      <stop offset=".2374" stop-color="#5a99cb"/>
      <stop offset=".328" stop-color="#86b4d9"/>
      <stop offset=".4215" stop-color="#abcbe4"/>
      <stop offset=".5184" stop-color="#c9deee"/>
      <stop offset=".62" stop-color="#e1ecf5"/>
      <stop offset=".7282" stop-color="#f2f7fa"/>
      <stop offset=".8475" stop-color="#fbfdfe"/>
      <stop offset="1" stop-color="#fff"/>
    </linearGradient>
    <linearGradient id="linear-gradient-8" x1="-369.3552" y1="926.0451" x2="1210.609" y2="923.1878" gradientTransform="translate(364.6637)" gradientUnits="userSpaceOnUse">
      <stop offset=".2606" stop-color="#0062af"/>
      <stop offset=".2807" stop-color="#106cb4" stop-opacity=".9345"/>
      <stop offset=".3648" stop-color="#4f93c7" stop-opacity=".6877"/>
      <stop offset=".4531" stop-color="#85b4d8" stop-opacity=".4756"/>
      <stop offset=".5447" stop-color="#b1cfe6" stop-opacity=".3027"/>
      <stop offset=".6407" stop-color="#d3e4f1" stop-opacity=".1689"/>
      <stop offset=".7429" stop-color="#ecf3f9" stop-opacity=".074"/>
      <stop offset=".8558" stop-color="#fafcfd" stop-opacity=".0178"/>
      <stop offset="1" stop-color="#fff" stop-opacity="0"/>
    </linearGradient>
    <linearGradient id="linear-gradient-9" x1="171.7033" y1="1041.2528" x2="1572.2963" y2="1041.2528" gradientUnits="userSpaceOnUse">
      <stop offset=".1391" stop-color="#0062af"/>
      <stop offset=".1625" stop-color="#106cb4" stop-opacity=".9345"/>
      <stop offset=".2605" stop-color="#4f93c7" stop-opacity=".6877"/>
      <stop offset=".3632" stop-color="#85b4d8" stop-opacity=".4756"/>
      <stop offset=".4699" stop-color="#b1cfe6" stop-opacity=".3027"/>
      <stop offset=".5816" stop-color="#d3e4f1" stop-opacity=".1689"/>
      <stop offset=".7007" stop-color="#ecf3f9" stop-opacity=".074"/>
      <stop offset=".8321" stop-color="#fafcfd" stop-opacity=".0178"/>
      <stop offset="1" stop-color="#fff" stop-opacity="0"/>
    </linearGradient>
    <filter id="luminosity-noclip-3" x="-1" y="886.0849" width="1516.3882" height="193.5427" color-interpolation-filters="sRGB" filterUnits="userSpaceOnUse">
      <feFlood flood-color="#fff" result="bg"/>
      <feBlend in="SourceGraphic" in2="bg"/>
    </filter>
    <filter id="luminosity-noclip-4" x="-1" y="-8732" width="1516.3882" height="32766" color-interpolation-filters="sRGB" filterUnits="userSpaceOnUse">
      <feFlood flood-color="#fff" result="bg"/>
      <feBlend in="SourceGraphic" in2="bg"/>
    </filter>
    <mask id="mask-3" x="-1" y="-8732" width="1516.3882" height="32766" maskUnits="userSpaceOnUse"/>
    <linearGradient id="linear-gradient-10" x1="-376.3889" y1="983.1509" x2="1323.2546" y2="980.0772" gradientTransform="translate(364.6637)" gradientUnits="userSpaceOnUse">
      <stop offset=".2182" stop-color="#fff"/>
      <stop offset=".2673" stop-color="#dadada"/>
      <stop offset=".3434" stop-color="#a7a7a7"/>
      <stop offset=".4231" stop-color="#7a7a7a"/>
      <stop offset=".505" stop-color="#545454"/>
      <stop offset=".5895" stop-color="#353535"/>
      <stop offset=".6777" stop-color="#1e1e1e"/>
      <stop offset=".7711" stop-color="#0d0d0d"/>
      <stop offset=".8731" stop-color="#030303"/>
      <stop offset="1" stop-color="#000"/>
    </linearGradient>
    <mask id="mask-2" x="-1" y="886.0849" width="1516.3882" height="193.5427" maskUnits="userSpaceOnUse">
      <g class="cls-6">
        <g class="cls-26">
          <polygon class="cls-18" points="1515.3882 962.8344 171.7033 962.8344 171.7033 886.0849 130.6941 886.0849 130.6941 962.8344 -1 962.8344 -1 1002.8781 130.6941 1002.8781 130.6941 1079.6276 171.7033 1079.6276 171.7033 1002.8781 1515.3882 1002.8781 1515.3882 962.8344"/>
        </g>
      </g>
    </mask>
    <linearGradient id="linear-gradient-11" x1="-376.3889" y1="983.1509" x2="1323.2546" y2="980.0772" gradientTransform="translate(364.6637)" gradientUnits="userSpaceOnUse">
      <stop offset=".2182" stop-color="#fff"/>
      <stop offset=".2673" stop-color="#fff" stop-opacity=".8552"/>
      <stop offset=".3434" stop-color="#fff" stop-opacity=".6568"/>
      <stop offset=".4231" stop-color="#fff" stop-opacity=".4808"/>
      <stop offset=".505" stop-color="#fff" stop-opacity=".3325"/>
      <stop offset=".5895" stop-color="#fff" stop-opacity=".2117"/>
      <stop offset=".6777" stop-color="#fff" stop-opacity=".1182"/>
      <stop offset=".7711" stop-color="#fff" stop-opacity=".0519"/>
      <stop offset=".8731" stop-color="#fff" stop-opacity=".0125"/>
      <stop offset="1" stop-color="#fff" stop-opacity="0"/>
    </linearGradient>
    <linearGradient id="linear-gradient-12" x1="-376.3889" y1="983.1509" x2="1323.2546" y2="980.0772" gradientTransform="translate(364.6637)" gradientUnits="userSpaceOnUse">
      <stop offset=".0709" stop-color="#fff100"/>
      <stop offset=".134" stop-color="#fff328" stop-opacity=".841"/>
      <stop offset=".2219" stop-color="#fff55a" stop-opacity=".6459"/>
      <stop offset=".3144" stop-color="#fff886" stop-opacity=".4728"/>
      <stop offset=".4098" stop-color="#fffaab" stop-opacity=".3269"/>
      <stop offset=".5087" stop-color="#fffcc9" stop-opacity=".208"/>
      <stop offset=".6123" stop-color="#fffde1" stop-opacity=".116"/>
      <stop offset=".7227" stop-color="#fffef2" stop-opacity=".0508"/>
      <stop offset=".8444" stop-color="#fffefb" stop-opacity=".0122"/>
      <stop offset="1" stop-color="#fff" stop-opacity="0"/>
    </linearGradient>
    <filter id="drop-shadow-4" filterUnits="userSpaceOnUse">
      <feOffset dx="1" dy="1"/>
      <feGaussianBlur result="blur-4" stdDeviation="2"/>
      <feFlood flood-color="#000" flood-opacity=".6"/>
      <feComposite in2="blur-4" operator="in"/>
      <feComposite in="SourceGraphic"/>
    </filter>
    <filter id="drop-shadow-5" filterUnits="userSpaceOnUse">
      <feOffset dx="1" dy="1"/>
      <feGaussianBlur result="blur-5" stdDeviation="2"/>
      <feFlood flood-color="#000" flood-opacity=".6"/>
      <feComposite in2="blur-5" operator="in"/>
      <feComposite in="SourceGraphic"/>
    </filter>
    <filter id="drop-shadow-6" filterUnits="userSpaceOnUse">
      <feOffset dx="1" dy="1"/>
      <feGaussianBlur result="blur-6" stdDeviation="2"/>
      <feFlood flood-color="#000" flood-opacity=".6"/>
      <feComposite in2="blur-6" operator="in"/>
      <feComposite in="SourceGraphic"/>
    </filter>
    <filter id="luminosity-noclip-5" x="337.7185" y="209.2045" width="192.8623" height="70.423" color-interpolation-filters="sRGB" filterUnits="userSpaceOnUse">
      <feFlood flood-color="#fff" result="bg"/>
      <feBlend in="SourceGraphic" in2="bg"/>
    </filter>
    <mask id="mask-4" x="337.7185" y="209.2045" width="192.8623" height="70.423" maskUnits="userSpaceOnUse">
      <g class="cls-7">
        <text class="cls-8" transform="translate(364.9067 264.3203)"><tspan x="0" y="0">ESSA</tspan></text>
      </g>
    </mask>
  </defs>
  <g class="cls-24">
    <g id="Background">
      <rect id="gradient1" class="cls-21" x="1.0538" width="1918.9462" height="886"/>
      <rect id="gradient2" class="cls-34" x="-1" y="886" width="1921" height="194"/>
      <g class="cls-1">
        <path class="cls-12" d="M98.6315,642.5084c.0541.0504.1094.0995.1648.1484-.1912.0277-.3863.0479-.5826.0567.1473-.0567.2857-.1246.4178-.2051Z"/>
      </g>
      <g id="logo">
        <path class="cls-22" d="M1490.388,181.6056c-.4594-.4753-.9745-.8933-1.5342-1.2449-.7475-.4805-1.535-.8955-2.3539-1.2405-.9572-.4065-1.9489-.7263-2.9632-.9556-1.0859-.2462-2.196-.3697-3.3094-.3682-2.5073,0-4.3512.4588-5.5318,1.3764-1.1696.9087-1.8237,2.3297-1.7533,3.8091-.0323.7873.1608,1.5674.5567,2.2487.4399.6448,1.0314,1.1716,1.7227,1.5342.9206.5025,1.8976.8939,2.9106,1.166,1.1616.3375,2.5204.697,4.0765,1.0871,1.7482.4101,3.4709.9224,5.1592,1.5342,1.3923.4891,2.703,1.1851,3.888,2.0646,1.0436.7902,1.8873,1.8141,2.4635,2.9895.6193,1.3514.9193,2.8273.8767,4.3132.0433,1.7043-.3283,3.3937-1.0827,4.9225-.6978,1.3476-1.7171,2.5023-2.9675,3.362-1.3316.8994-2.8175,1.5458-4.3834,1.9068-1.7506.4139-3.5445.617-5.3433.6049-2.8135.0008-5.6095-.443-8.2846-1.315-2.6083-.8363-5.0523-2.1176-7.2238-3.7872l2.687-5.0584c.6071.5768,1.2709,1.0908,1.9813,1.5342.9556.6136,1.9668,1.1361,3.0201,1.5605,1.2108.5001,2.4578.9074,3.7302,1.2186,1.3678.3398,2.7724.5091,4.1817.5041,2.3378,0,4.1379-.4062,5.4003-1.2186,1.2424-.7634,1.9712-2.1422,1.9024-3.5987.0316-.8506-.2197-1.6876-.7145-2.3802-.5505-.6977-1.2459-1.2675-2.0383-1.6701-1.0308-.5406-2.1111-.981-3.2262-1.315-1.2712-.3857-2.7177-.7905-4.3395-1.2142-1.6606-.4277-3.2954-.9502-4.8962-1.5649-1.257-.4648-2.4286-1.1343-3.4672-1.9813-.8893-.7373-1.6023-1.6644-2.0865-2.7133-.5077-1.1964-.7514-2.4881-.7145-3.7872-.0318-1.6905.3298-3.3652,1.0564-4.8918.6839-1.3966,1.669-2.6241,2.8843-3.5944,1.2838-1.0005,2.7482-1.7446,4.3132-2.1917,1.755-.5057,3.5739-.7552,5.4003-.7408,2.401-.0239,4.7864.389,7.0397,1.2186,2.0182.744,3.924,1.7633,5.6633,3.0289l-2.7002,4.848Z"/>
        <path class="cls-22" d="M1498.6462,191.2928c.007-2.3042.4195-4.5892,1.2186-6.7504.7968-2.2192,2.0092-4.2663,3.5724-6.0315,1.6031-1.8108,3.5565-3.278,5.7422-4.3132,2.3994-1.1268,5.0249-1.6891,7.6753-1.6438,3.419,0,6.3413.7598,8.7667,2.2793,2.3504,1.4253,4.2569,3.4775,5.5055,5.9263l-4.6595,3.121c-.4744-1.0498-1.117-2.0152-1.9024-2.8579-.704-.7477-1.5277-1.3728-2.4372-1.8498-.8673-.4541-1.7938-.7846-2.7528-.9819-.9056-.188-1.8278-.2849-2.7528-.2893-1.801-.0425-3.5839.3674-5.1855,1.1923-1.4548.7694-2.727,1.8427-3.7302,3.1473-1.0128,1.3143-1.7832,2.7987-2.275,4.3834-.5055,1.5741-.7657,3.2166-.7715,4.8699-.0097,1.7927.2959,3.5732.903,5.26.5699,1.5989,1.4204,3.0832,2.5117,4.3834,1.0646,1.2596,2.3701,2.2939,3.8398,3.0421,1.5081.7659,3.1786,1.1568,4.8699,1.1397.9542-.004,1.9046-.1202,2.8317-.3463.9828-.2352,1.9273-.6086,2.8054-1.109.9146-.5253,1.7511-1.1759,2.4854-1.9331.787-.8172,1.4235-1.7669,1.8805-2.8054l4.9225,2.8054c-.5914,1.3999-1.4557,2.668-2.5424,3.7302-1.0977,1.0816-2.345,1.9998-3.7039,2.7265-1.3858.7436-2.858,1.3134-4.3834,1.6964-1.4797.3786-3.0006.573-4.528.5786-2.518.0313-5.006-.5493-7.2501-1.692-2.1502-1.1014-4.072-2.6007-5.6633-4.4184-1.5929-1.828-2.8472-3.9254-3.7039-6.1937-.8612-2.2558-1.2981-4.6514-1.2887-7.066Z"/>
        <path class="cls-22" d="M1548.2922,172.7687h5.1811l14.8158,37.5786h-6.2331l-3.9713-10.2176h-14.5046l-3.9143,10.2176h-6.2989l14.9254-37.5786ZM1556.9187,195.7376l-6.0315-16.1439-6.2463,16.1439h12.2778Z"/>
        <path class="cls-22" d="M1579.4141,183.8806v26.4668h-5.9263v-37.5786h4.6551l21.4785,27.098v-27.0541h6.014v37.526h-4.9444l-21.2769-26.458Z"/>
        <path class="cls-22" d="M1614.6125,210.3473v-37.5786h13.3386c2.7286-.0598,5.4401.4446,7.9646,1.4816,2.1656.9159,4.109,2.2868,5.6984,4.0196,1.5536,1.7199,2.7354,3.7418,3.4716,5.9395.7876,2.3445,1.1816,4.8032,1.166,7.2764.0307,2.6427-.4148,5.2693-1.315,7.7542-.801,2.2107-2.0535,4.2304-3.6777,5.9307-1.6293,1.6664-3.5961,2.9652-5.7685,3.8091-2.4145.9274-4.9838,1.3856-7.5701,1.3501l-13.3079.0175ZM1640.2289,191.4989c.0203-1.8483-.2565-3.688-.8197-5.4485-.4983-1.5729-1.3177-3.0252-2.4065-4.265-1.0748-1.1915-2.3933-2.1378-3.8661-2.7747-1.6388-.6955-3.4055-1.0389-5.1855-1.0082h-7.4123v27.098h7.4123c1.8066.0337,3.5996-.3174,5.26-1.0301,1.4867-.6507,2.808-1.6275,3.8661-2.8579,1.065-1.266,1.8654-2.7326,2.3539-4.3132.5442-1.7464.8133-3.5668.7978-5.3959v-.0044Z"/>
        <path class="cls-22" d="M1653.0371,210.3473v-37.5786h5.9307v37.5786h-5.9307Z"/>
        <path class="cls-22" d="M1673.8932,183.8806v26.4668h-5.9307v-37.5786h4.6595l21.4785,27.098v-27.0541h5.9833v37.526h-4.9138l-21.2769-26.458Z"/>
        <path class="cls-22" d="M1720.1508,172.7687h5.1899l14.8158,37.5786h-6.2419l-3.9713-10.2176h-14.5002l-3.9187,10.2176h-6.2989l14.9254-37.5786ZM1728.7773,195.7376l-6.0315-16.1439-6.2463,16.1439h12.2778Z"/>
        <path class="cls-22" d="M1744.5004,172.7687l11.3266,30.1137,11.274-30.1137h6.2989l-15.0349,37.5786h-5.0803l-15.0832-37.5786h6.2989Z"/>
        <path class="cls-22" d="M1778.5329,210.3473v-37.5786h5.9438v37.5786h-5.9438Z"/>
        <path class="cls-22" d="M1804.5175,172.7687h5.1899l14.8202,37.5786h-6.2463l-3.9713-10.2176h-14.4914l-3.945,10.2176h-6.2814l14.9254-37.5786ZM1813.1483,195.7376l-6.0359-16.1439-6.2463,16.1439h12.2822Z"/>
        <path class="cls-22" d="M1526.9891,99.3868l23.6702,56.6331,23.6702-56.6331h4.734l-26.3002,62.2438h-4.1116l-26.3879-62.2438h4.7253Z"/>
        <path class="cls-22" d="M1602.7336,99.3868h3.8574l26.3002,62.2438h-4.734l-8.6791-20.5142h-29.7192l-8.6703,20.5142h-4.8217l26.4668-62.2438ZM1618.2507,137.4344l-13.5884-32.6122-13.8514,32.6122h27.4399Z"/>
        <path class="cls-22" d="M1679.6179,103.4195h-22.7935v58.2111h-4.471v-58.2111h-22.7935v-4.0327h50.058v4.0327Z"/>
        <path class="cls-22" d="M1725.3802,109.7316c-4.0327-4.5032-9.7311-6.7533-17.0951-6.7504-6.0783,0-10.5055,1.1543-13.2816,3.4629s-4.1642,5.4208-4.1642,9.3366c-.0605,1.7123.3007,3.4133,1.052,4.9532.7784,1.3958,1.9127,2.5604,3.2875,3.3752,1.7647,1.05,3.6681,1.8468,5.6546,2.367,2.2794.6458,5.0263,1.3179,8.2407,2.0164,3.3314.7013,6.3559,1.4757,9.0736,2.3232,2.4522.7232,4.7855,1.8012,6.9257,3.1999,1.8222,1.2006,3.3263,2.825,4.3834,4.734,1.0199,1.8732,1.5313,4.1817,1.5342,6.9257.0592,2.4932-.4979,4.9624-1.6219,7.1887-1.0862,2.0504-2.6498,3.8094-4.5587,5.1285-2.1318,1.4505-4.5076,2.5047-7.0134,3.1122-2.9682.7311-6.0168,1.0846-9.0736,1.052-9.7048,0-17.9163-3.0976-24.6345-9.2927l2.367-3.5944c2.7315,2.8166,6.0143,5.0399,9.6434,6.5312,4.0602,1.6586,8.414,2.4787,12.7994,2.4109,5.4354,0,9.6872-.9936,12.7556-2.9807,3.0684-1.9871,4.6025-4.997,4.6025-9.0297.0562-1.8164-.3672-3.6154-1.2273-5.2162-.8975-1.5149-2.1451-2.7925-3.6382-3.7259-1.8957-1.1829-3.9462-2.0975-6.0929-2.7177-2.4547-.7569-5.3185-1.4874-8.5914-2.1917-3.3314-.7013-6.2682-1.4465-8.8106-2.2355-2.2724-.6623-4.4305-1.6674-6.3997-2.9807-1.6388-1.1022-2.9791-2.5931-3.9012-4.3395-.8767-1.6949-1.315-3.8281-1.315-6.3997-.0515-2.5768.5041-5.1295,1.6219-7.4517,1.0717-2.1465,2.6188-4.0204,4.5236-5.4792,2.0702-1.5598,4.4217-2.7057,6.9257-3.3752,2.9142-.7887,5.9232-1.1722,8.9421-1.1397,3.6737-.0609,7.3277.5481,10.7831,1.7972,3.2042,1.2279,6.1267,3.0917,8.5914,5.4792l-2.2881,3.5067Z"/>
        <path class="cls-22" d="M1742.1247,161.6306v-62.2438h4.471v62.2438h-4.471Z"/>
        <path class="cls-22" d="M1819.1842,161.6306v-53.8277l-24.5468,41.9926h-2.8054l-24.5468-41.9926v53.8277h-4.471v-62.2438h4.471l25.9583,44.535,25.9495-44.535h4.471v62.2438h-4.4798Z"/>
        <polygon class="cls-35" points="1464.0527 161.4158 1492.5446 99.6104 1520.5981 161.4158 1492.1062 141.2523 1464.0527 161.4158"/>
      </g>
      <path class="cls-22" d="M291.3986,155.5126l-74.4644-34.0979c-7.792-3.5152-13.8852-5.0385-19.9783-4.9213-6.1518-.1172-12.2449,1.4061-20.0369,4.9213l-74.4646,34.0979c-4.4527,1.9918-6.6204,5.6243-6.6204,9.2568s2.1677,7.089,6.6204,9.1399l33.3362,15.1739,46.5771-22.2634c-.6448-.703-.9377-1.4061-.9377-2.1091,0-4.3937,7.4992-8.0262,15.7601-8.0262,8.2022,0,15.6428,3.6325,15.6428,8.0262,0,4.5697-7.4405,8.2022-15.6428,8.2022-2.6948,0-5.2141-.3515-7.4992-1.0546l-44.8778,21.5017,32.1059,14.7055c7.792,3.5738,13.8852,5.0386,20.0369,4.9799,6.0931.0587,12.1862-1.4061,19.9783-4.9799l74.4644-34.1563c4.4528-2.0509,6.6206-5.5074,6.6206-9.1399s-2.1678-7.265-6.6206-9.2568ZM144.5789,203.4959v45.5808c12.4204,7.5578,30.2896,12.4791,52.377,12.4791,44.0574,0,71.7109-19.3926,71.7109-40.1325v-26.8326l-47.8073,21.9114c-8.6711,3.984-16.4044,5.9762-23.9036,5.8589-7.5579.1173-15.2912-1.8749-23.9623-5.8589l-28.4147-13.0061ZM125.1863,194.6489v26.7744c0,6.3864,3.8082,14.2953,10.8973,21.0333v-42.8274l-10.8973-4.9803ZM136.0835,265.3639h8.4954v-16.2871c-3.2223-1.9918-6.0933-4.2182-8.4954-6.6202v22.9073ZM130.1662,265.774v20.0369c0,5.6243,3.5152,9.1399,9.081,9.1399h2.0507c5.6243,0,9.1395-3.5156,9.1395-9.1399v-20.0369c0-5.5656-3.5152-9.0808-9.1395-9.0808h-2.0507c-5.5658,0-9.081,3.5152-9.081,9.0808Z"/>
      <g class="cls-3">
        <path class="cls-29" d="M577.4778,439.7824c-1.0554,0-1.847-.8157-1.847-1.8709,0-1.0315.7916-1.8471,1.847-1.8471h14.728v-19.5493c0-1.0314.8395-1.847,1.8471-1.847,1.0553,0,1.8709.8156,1.8709,1.847v21.3965c0,1.0553-.8157,1.8709-1.8709,1.8709h-16.5751ZM594.0767,467.8712c17.1027,0,31.2552-14.1525,31.2552-31.2311,0-17.1027-14.1763-31.255-31.279-31.255-17.0788,0-31.2071,14.1523-31.2071,31.255,0,17.0787,14.1523,31.2311,31.231,31.2311Z"/>
      </g>
      <g class="cls-5">
        <path class="cls-29" d="M1107.055,461.9395h41.7854c3.1422,0,5.0612-1.5112,5.0612-3.9579,0-7.9638-9.9546-18.9498-25.954-18.9498s-25.9538,10.9861-25.9538,18.9498c0,2.4466,1.919,3.9579,5.0613,3.9579ZM1127.9716,433.4909c6.6925,0,12.3053-5.9487,12.3053-13.6246,0-7.5079-5.6609-13.2408-12.3053-13.2408-6.6203,0-12.2813,5.8288-12.2813,13.2888,0,7.6279,5.613,13.5766,12.2813,13.5766Z"/>
      </g>
      <g class="cls-4">
        <path class="cls-29" d="M133.6178,464.7021h42.7688c6.2125,0,9.3549-3.1184,9.3549-9.235v-37.8994c0-6.1167-3.1424-9.235-9.3549-9.235h-42.7688c-6.1886,0-9.3309,3.0943-9.3309,9.235v37.8994c0,6.1407,3.1423,9.235,9.3309,9.235ZM133.282,460.4564c-3.0703,0-4.7494-1.6311-4.7494-4.7974v-28.6164c0-3.1903,1.6791-4.7975,4.7494-4.7975h43.4165c3.0463,0,4.7733,1.6071,4.7733,4.7975v28.6164c0,3.1662-1.727,4.7974-4.7733,4.7974h-43.4165ZM148.8975,433.2792h1.8229c1.0314,0,1.3193-.2878,1.3193-1.2953v-1.7991c0-1.0074-.2878-1.2713-1.3193-1.2713h-1.8229c-1.0074,0-1.2953.2638-1.2953,1.2713v1.7991c0,1.0074.2878,1.2953,1.2953,1.2953ZM159.3318,433.2792h1.8231c1.0074,0,1.2953-.2878,1.2953-1.2953v-1.7991c0-1.0074-.2878-1.2713-1.2953-1.2713h-1.8231c-1.0315,0-1.3193.2638-1.3193,1.2713v1.7991c0,1.0074.2878,1.2953,1.3193,1.2953ZM169.7421,433.2792h1.8231c1.0074,0,1.3193-.2878,1.3193-1.2953v-1.7991c0-1.0074-.3119-1.2713-1.3193-1.2713h-1.8231c-1.0074,0-1.3193.2638-1.3193,1.2713v1.7991c0,1.0074.3119,1.2953,1.3193,1.2953ZM138.4871,443.5217h1.823c1.0075,0,1.3193-.2638,1.3193-1.2713v-1.8231c0-.9834-.3118-1.2713-1.3193-1.2713h-1.823c-1.0075,0-1.3193.2878-1.3193,1.2713v1.8231c0,1.0074.3118,1.2713,1.3193,1.2713ZM148.8975,443.5217h1.8229c1.0314,0,1.3193-.2638,1.3193-1.2713v-1.8231c0-.9834-.2878-1.2713-1.3193-1.2713h-1.8229c-1.0074,0-1.2953.2878-1.2953,1.2713v1.8231c0,1.0074.2878,1.2713,1.2953,1.2713ZM159.3318,443.5217h1.8231c1.0074,0,1.2953-.2638,1.2953-1.2713v-1.8231c0-.9834-.2878-1.2713-1.2953-1.2713h-1.8231c-1.0315,0-1.3193.2878-1.3193,1.2713v1.8231c0,1.0074.2878,1.2713,1.3193,1.2713ZM169.7421,443.5217h1.8231c1.0074,0,1.3193-.2638,1.3193-1.2713v-1.8231c0-.9834-.3119-1.2713-1.3193-1.2713h-1.8231c-1.0074,0-1.3193.2878-1.3193,1.2713v1.8231c0,1.0074.3119,1.2713,1.3193,1.2713ZM138.4871,453.7881h1.823c1.0075,0,1.3193-.264,1.3193-1.2714v-1.8229c0-1.0074-.3118-1.2714-1.3193-1.2714h-1.823c-1.0075,0-1.3193.264-1.3193,1.2714v1.8229c0,1.0074.3118,1.2714,1.3193,1.2714ZM148.8975,453.7881h1.8229c1.0314,0,1.3193-.264,1.3193-1.2714v-1.8229c0-1.0074-.2878-1.2714-1.3193-1.2714h-1.8229c-1.0074,0-1.2953.264-1.2953,1.2714v1.8229c0,1.0074.2878,1.2714,1.2953,1.2714ZM159.3318,453.7881h1.8231c1.0074,0,1.2953-.264,1.2953-1.2714v-1.8229c0-1.0074-.2878-1.2714-1.2953-1.2714h-1.8231c-1.0315,0-1.3193.264-1.3193,1.2714v1.8229c0,1.0074.2878,1.2714,1.3193,1.2714Z"/>
      </g>
      <g class="cls-20">
        <path class="cls-11" d="M1895.0737,910.6902l-.2156,34.6031.2169.1607-.2195.2195-.3254,51.8183h12.927v2.1454h-5.0126v4.055h-3.0639v3.3359h11.4191v4.0538h-16.3541l-.0576,9.298h.537v4.0523h3.202v17.2862h-5.5696v18.0576h5.5696v2.7426h-5.5696v1.4905h-.8343v-22.2907h-15.8761v-17.2862h2.7856v-4.0523h-11.8344v-1.4303h13.673l.0214-3.3373h-13.6944v-4.5304h-119.4778v7.8677h-90.6987v-108.2595h-21.3948l-14.0976,12.6713c17.2902,21.1377,27.4452,46.8621,27.4452,74.6233,0,71.9382-68.1241,130.2542-152.1578,130.2542s-152.1579-58.316-152.1579-130.2542c0-27.3689,9.8643-52.7625,26.7125-73.7274l-15.0952-13.5672h-17.1v58.7446h1.9257l-9.622,33.2398-1.224,1.3486-1.9243-1.6485-21.0145-.1674-.4125,7.4285.9615,2.3222-.9615,1.2722-9.6221,24.045c.2692.1392.4499.3884.4499.6762,0,.4366-.4137.7915-.924.7915v.6441l.5853.0843.624-.2235-.4271.4499-.6228.1406.4259.4058.8516.3523-1.0499-.0576-.5222-.4768-.3616,1.9927-.0321-1.9364-.3951.4206h-.983l.9535-.3644.2276-.5062h-.7218l-.4593-.7579.5236.4767.7232-.2237.4098-.4539c-.387-.0952-.6736-.3964-.6736-.7581,0-.2906.1861-.541.4567-.6789l-4.6203-14.7429-2.6582,16.7465.853.2518-3.4764,3.7898-.5906,10.3613.3616.225-.0335.3923h.624l-.9521,11.0335h-4.6898l-19.7743,56.2377v2.1306h-.4273v4.4648h-.9186l-1.1156,2.8632h-.4258l-1.5093,6.0357v.8423l-.3923.5063-1.149,3.3493c.6843.2839,1.1558.8824,1.1558,1.5776,0,.9347-.8545,1.6967-1.9285,1.7488v2.669c.1166.0617.1969.1714.1969.2987,0,.1259-.0804.2371-.1969.2987v2.5792h4.1983c.0429-.1445.1969-.2518.3804-.2518.2155,0,.3923.15.3923.3362,0,.1861-.1768.3375-.3923.3375-.1835,0-.3375-.1085-.3804-.2531h-4.1983v2.961c.1166.0535.1969.1607.1969.2825,0,.1205-.0804.2264-.1969.2799v2.2043h-.4392v-2.2043c-.1178-.0535-.1969-.1593-.1969-.2799,0-.1218.0791-.229.1969-.2825v-2.961h-4.1997c-.0442.1447-.1969.2531-.3802.2531-.217,0-.3925-.1514-.3925-.3375,0-.1862.1755-.3362.3925-.3362.1833,0,.3361.1072.3802.2518h4.1997v-2.5792c-.1192-.0616-.1969-.1728-.1969-.2987,0-.1273.0778-.237.1969-.2987v-2.669c-1.0754-.0521-1.9297-.8142-1.9297-1.7488,0-.6951.4727-1.2937,1.1556-1.5776l-1.1489-3.3493-.3938-.5063v-.8423l-1.5079-6.0357h-.4258l-1.1156-2.8632h-.9186v-4.4648h-.4259v-2.1306l-19.7757-56.2377h-4.6898l-.9521-11.0335h.6227l-.0335-.3923.3629-.225-.5905-10.3613-3.4766-3.7898.8531-.2518-2.6583-16.7465-4.6215,14.7429c.2704.138.4567.3884.4567.6789,0,.3616-.2852.6629-.6722.7581l.4111.4539.7204.2237.525-.4767-.458.7579h-.7232l.2276.5062.9536.3644h-.9843l-.3923-.4206-.0336,1.9364-.3602-1.9927-.5249.4768-1.0499.0576.8517-.3523.4272-.4058-.6227-.1406-.4258-.4499.6213.2235.5853-.0843v-.6441c-.5089,0-.9228-.3549-.9228-.7915,0-.2878.1807-.537.4513-.6762l-9.6234-24.045-.9614-1.2722.9614-2.3222-.4125-7.4285-21.0144.1674-1.9257,1.6485-1.2213-1.3486-9.6221-33.2398h1.9244v-58.7446h-6.8794v68.4616h-.0776l2.5271,2.3289-3.1806,1.4517v27.6836l.9522.9494h1.4958l1.2253,1.2549-1.2708.154-2.4026.3482-1.6338.7781-.6789.466-.7714.1942h-.2718v.8155h1.4517v.446l.4981,1.2616v.9333l-.4981,1.0085-.6348.5812-1.3606.2718-.5451.5063-.1352.3482.6803.7379-1.4062-.0188v5.1023l1.0418.6429-1.0418.3682-.999.5437-.0255-.0014v.4406c0,.541-.4861.9857-1.1061,1.0312v1.8292l-.7258,1.5536v2.6261c.4232.2197.7258.7674.7258,1.4115,0,.6427-.3027,1.1918-.7258,1.4101v15.6711h-.6348v-15.5974c-.5182-.1406-.908-.7526-.908-1.4838,0-.7326.3898-1.3446.908-1.4838v-2.5538l-.908-1.7478v-1.6417c-.5893-.0697-1.0433-.5022-1.0433-1.0245v-.6536l-.8597-.3682-1.2254-.4661,1.2254-.4446v-5.2428l-1.4531-.0188.908-.7379v-.5048l-.4084-.2706-1.074-.1942-.6951-.3509-.7714-.6588-.2263-.8558v-1.2025l.2263-.7567v-.446h1.271v-.932l-.1366-.0778-.9522-.5839-2.1319-.7753-3.356-.7753.7245-.8665h1.5883l1.0433-1.5346v-19.1075l-6.1603,3.135-6.2567,4.4261-8.4369,6.7549-97.9892,6.5392v125.8095h-.1688l1.7664,2.4507,3.0253.2075,1.5708,1.1383-5.1987.6215-4.1127.6079v3.6882l.6041.5182-.6041.4647-.5437.6736v9.938h-.3027v14.8047h-.4204v-14.8047h-.3027v-9.7826l-.0629-.3107-.4834-.5182-.7862-.4647.7862-.5772v-3.3145l-.0617.0081-6.8927,1.5534-5.2001,1.7597-3.8703,2.2779-1.8119,2.1748v1.6553l.4821,1.1383,1.9351.4151v.7245l1.2094.829v5.279l-2.0557.9321v4.5546l-3.5059,1.1396.4822,1.7584-.8076.3656.1433.6709-1.0285.6215.3642.9816.0602,2.693.9669.4139-.3013,1.1383-.4246-.7767-.6053-.0509v.8276l-.4232.6736.4232.3094-.3013.7781-.6656.4646-.3629-.6722v-.6213l-.3937-.3107v-1.2937l.3937-.7245-.3937-3.0546.3937-.3094-.4232-.4151-.225-.6724h-.1378v32.2021l1.5119.77.059.7245,6.5914,2.5364v3.1069l-6.8325,2.1735-1.9325.2183-.304,1.1784-.6643.6482-.908.6469v.8276l-.3027.9843-.9066.3629h-.1205v.1821c0,.134-.0014.2678-.0026.3991.17.1031.2746.2464.2746.4032,0,.1621-.114.308-.2947.4111-.0053.1607-.0121.3161-.02.4673.541.0924.92.3027.92.5451,0,.2558-.4166.4727-1.0018.557-.1124,1.1237-.2919,1.8495-.4955,1.8495-.2023,0-.3804-.7205-.4929-1.8361-.632-.075-1.0942-.3027-1.0942-.5705,0-.2558.4206-.4741,1.0085-.5584-.0067-.1326-.0121-.268-.0188-.4071-.2316-.1031-.3844-.2692-.3844-.458,0-.1821.1433-.3442.363-.4487,0-.1151-.0014-.2344-.0014-.3535,0-.0602,0-.1218.0014-.1821h-.4848l-.6951-.5705-.3629-1.2949h-.3027l-.304-.4125-.2866-.2852-3.5823,4.5558-1.9954,2.6128-.3628,1.7611.1821,2.0182.8464,2.0703,1.3297,2.1735,2.4802,1.8119v3.5207l-.8478.9307-4.1714,3.7791-2.116,3.0025h-.0616v3.2181c.9668.2799,1.6633,1.0606,1.6633,1.9833,0,.9213-.6965,1.7035-1.6633,1.9846v2.286h-.513v9.5672l.0643-.079,8.3431,4.9161-.154.1929.2263-.1286,2.1655,2.807h2.7935l.4071,1.4356.999,1.2053-2.0408.5812v-.9709l-.6803-.2318-.7258.5813.2718.9709-1.1075,1.1263-1.7048-1.204.8624-.8155-1.2708-.5812-.5437.2518.0455.7967-2.1762-.4673,1.133-1.2427.4553-1.4356h2.6314l-1.939-2.5123-8.0553-4.7475v2.2901h2.8632l.4085,1.4369.9962,1.2039-2.0408.5825v-.9709l-.6791-.233-.7257.5825.2718.9709-1.1061,1.1249-1.7062-1.2039.8611-.8142-1.2694-.5825-.5423.2516.0441.7955-2.1775-.4646,1.1342-1.2428.454-1.4369h2.669v-2.128l-8.0096,4.0269-1.7959,1.9833h1.9753l.4085,1.4356.9976,1.2053-2.0409.5812v-.9695l-.6803-.233-.7245.5825.2706.9709-1.1062,1.1249-1.7047-1.2026.8624-.8155-1.2709-.5825-.545.2518.0468.7969-2.1774-.4661,1.1328-1.2441.454-1.4356h3.4135l2.0865-2.302.2156.1419-.1392-.2009,8.3311-4.1902v-9.6368h-.5129v-2.286c-.9669-.2811-1.6633-1.0633-1.6633-1.9846,0-.9228.6964-1.7035,1.6633-1.9833v-3.2181h-.0617l-1.9337-2.9515-1.8147-1.5-1.9953-2.1225-1.512-2.0195.363-3.1565,1.9364-1.1396,2.3569-2.3289.6656-1.0873.4232-1.2937v-1.5534l-.3644-1.2427-.7847-1.4491-1.6941-2.0168-2.2967-2.4346-2.3007-1.903-.7834.4018v.466l-.4834.8798-.6053.4152h-.4527v.1285c0,.1353-.0014.2678-.0027.4004.1688.1018.2745.2451.2745.4032,0,.162-.1138.308-.2932.4124-.0067.1581-.0134.3135-.0215.4661.5411.0924.9188.2999.9188.545,0,.2545-.4166.4715-1.0004.5572-.1126,1.1223-.292,1.8481-.4956,1.8481-.2022,0-.3803-.7205-.4941-1.8361-.6334-.075-1.0928-.3013-1.0928-.5692,0-.2571.4192-.4753,1.0085-.5584-.0067-.1338-.0134-.2692-.0188-.4071-.233-.1044-.3858-.2704-.3858-.4579,0-.1835.1447-.3442.3644-.4487-.0014-.1178-.0014-.2357-.0014-.3549v-.1285h-.3027l-.6643-.6215-.4848-.7767v-1.0351l-.8464-.6737-.4834-.6722v-.7164l-2.2981-.4742-6.1073-2.381,1.2099-3.364,6.5298-1.7611.2719-.8276,1.3619-.5932v-32.1203h-.4875l-.178,1.1906-.6964.466v3.9332l-.3321.829.3321.5691-.5732.8798h-.908v-.829l.4834-.4646-.6643-.5184-.3027-1.0873v-3.7779l.6041-.4151v-.7755h-.9669l-.7252-2.1748.7252-.4139v-.7245l-3.0232-1.0352-.3623-4.4514-1.451-.7258.1205-2.7935-.4834-.5182.3629-2.3824,1.5715-.517v-1.0351l2.0557-.7246v-1.8628l-1.0888-1.7609-3.1444-2.0691-4.7151-2.0718-5.0795-1.4476-3.8696-.5317v3.3774l.6046.5182-.6046.4647-.5444.6736v9.938h-.3027v14.8047h-.4198v-14.8047h-.304v-9.7826l-.0616-.3107-.4842-.5182-.7867-.4647.7867-.5772v-3.6078l-9.1305-1.2508,1.3298-1.4489h3.3876l2.2612-3.0132v-123.0079l-158.5726-12.4021-2.1762-4.1917-4.8967-6.5217-1.595-1.1128-1.3037,1.0699-1.8146,1.1383-.7184,1.461,2.5926,1.437-.6046.466v13.5297c.5343.0202.8464.0336.8464.0336v.3615l-1.8059.1929-.0221.3949c.2409.1045.4077.3161.4077.5639,0,.2692-.1968.4982-.4727.5893l-.1928,3.4309-.2492-3.4055c-.3247-.0669-.567-.3161-.567-.6146,0-.2706.1995-.5022.4787-.592l-.0214-.2973-1.4243.1514-1.6934.7767-.7867,1.1918-.2699.9709.9354.9428.2457,1.3941c.9595.7018,1.5689,1.741,1.5689,2.9021,0,1.9953-1.7959,3.6344-4.0886,3.8139l.1574.7419.3635,1.1892-.9381,3.056-.2571,15.0725c.065-.0066.1305-.0107.1976-.0107,1.7516,0,3.1738,2.3289,3.1738,5.2028,0,.1285-.0033.2571-.0093.383-.1119-2.2941-1.2823-4.1007-2.7113-4.1007-1.5031,0-2.7218,1.9968-2.7218,4.4595,0,2.3436,1.1021,4.2612,2.5029,4.4434-.0778.0095-.1554.016-.2344.016-1.7536,0-3.1753-2.3274-3.1753-5.2013,0-2.4869,1.0654-4.564,2.4883-5.0783l.233-15.2385-.4848-3.3145.4848-.8262v-.8035c-2.2465-.2169-3.99-1.8361-3.99-3.8046,0-1.2509.7043-2.3596,1.7944-3.0587l.4427-1.3406.7855-.9949-.2418-1.0768-.9066-.7969-1.3306-.9106-1.3867-.1768-.0195.3508c.2418.1045.4085.3161.4085.5639,0,.2692-.1969.4982-.4727.5893l-.1929,3.4309-.249-3.4055c-.324-.0669-.5679-.3161-.5679-.6146,0-.2706.2009-.5022.4801-.592l-.0293-.403-1.2361-.1567v-.7767c0-.0267.2892-.0402.7854-.0416v-13.2645l-.7854-.2558,2.9636-1.4731v-.8571l-.9682-1.5522-1.9345-2.1748-2.2377-3.1043-1.666-3.4162-.3375-2.1748h-1.5641v3.6251h-1.0907v-4.5653l-3.3693-56.1318-5.6474,61.6707,4.29,8.9578h-63.2014v3.0667l1.7785,1.0138v2.985l-2.4191.5625v2.8497h2.4191l-1.4229,1.3994-.9963,1.074v2.1548h-.6401v-1.4624l-1.5655,1.2173v4.6912l-1.4229,1.6445v5.3594l.7117.608.7112.6106-.7112.5477-.7117.3054-.4139.557.5565.7821v1.5843l-.4982,1.7048-.9254,1.157-1.281.7929-.6394.5489.4265.5451.4273.5504.0709.6682-.9247.612-.2137.1821v5.9071h-1.992v3.4109l1.4926.5477-.9235.4875v.7914l.1768.975-.1768,1.1584-1.068.7914-1.1376,1.0955-.9568,9.0033v2.4038c.2799.071.5035.2545.5035.517,0,.2611-.2237.446-.5035.5169v1.1959c.2585.075.4673.2464.4673.4929,0,.2477-.2088.4218-.4673.4982v.1473c.298.0897.5384.2892.5384.5732,0,.2865-.2404.486-.5384.5758v.1593c.2223.0843.3958.2357.3958.4539,0,.2183-.1735.3683-.3958.4527v4.1019c.1821.0629.3254.1862.3254.363,0,.2357-.223.4258-.4982.4258-.2759,0-.4989-.1901-.4989-.4258,0-.1821.1561-.3094.3421-.3696v-4.0512c-.2892-.0468-.5196-.237-.5196-.4968,0-.2597.2304-.4513.5196-.4968v-.0723c-.3635-.0495-.6622-.292-.6622-.62,0-.3254.2987-.5692.6622-.6174v-.0857c-.2845-.059-.5196-.2492-.5196-.5156,0-.2625.235-.454.5196-.5129v-1.1706c-.2892-.0655-.5196-.2558-.5196-.5222,0-.2692.2304-.4567.5196-.5249v-2.3958l-.9561-9.0033-1.1384-1.0955-1.0666-.7914-.1774-1.1584.1774-.975v-.7914l-.9247-.4875,1.4931-.5477v-3.4109h-1.992v-5.9071l-.213-.1821-.9254-.612.071-.6682.4272-.5504.4272-.5451-.6408-.5489-1.281-.7929-.9247-1.157-.4982-1.7048v-1.5843l.5565-.7821-.4137-.557-.7119-.3054-.711-.5477.711-.6106.7119-.608v-5.3594l-1.4229-1.6445v-4.6912l-1.5655-1.2173v1.4624h-.6408v-2.1548l-.995-1.074-1.4236-1.3994h2.4186v-2.8497l-2.4186-.5625v-2.985l1.7792-1.0138v-3.0667h-132.1988v.7312h.0583v1.3955c.2845.1111.5115.2946.5115.5544,0,.2585-.227.4406-.5115.5517v3.5275h.5115v.4875h-.5115v1.524h-.5377v-1.524h-.7291v-.4875h.7291v-3.4618c-.4044-.0629-.7291-.2973-.7291-.6174,0-.3228.3247-.5558.7291-.6187v-.0536h-.089v-1.8868l-.4273-2.9222-.9963-3.5944-.5686-1.7676-.7124-.608v-1.1571l-.7821-.7928-.9964-1.0352v-1.2775l.6408-.9147-1.281-.7914-.0709-.6094.9956-.5477v-2.4976l-.6401-1.0968-1.1382-.8531-.531-.695,7.2376-1.907-5.9306-3.9895,5.9306-1.8133v-5.2575l-5.7183-2.5365.2116-5.8026,18.849-1.2696v-3.4444l9.5705-2.9475h-13.2579v3.6599h-20.5283v13.179h3.8494v3.2957l-8.8881.1286,6.7494,4.9964-35.497,2.1975-5.1318-2.1975h-12.4028v9.1533l.2618.3456-12.7805,7.0976-1.1163,8.528-.4774-.0469-.4782-.0442,1.0278-7.857-2.6521,1.4705.1278.5744h1.0118v1.9231h-.5832l.8785,3.9331h.6677v1.6486h-9.6234v7.7337h-2.8866v-7.7337h-14.2194v-1.6486h1.8266l-2.0142-3.9331h-8.2486l-5.0133,20.4104h.4045v2.1949h-.9435l-5.8904,23.9795h1.2749v1.2829h-17.2146v7.8704h-2.4586v-7.8704h-10.6921v-1.2829h.1593l-7.5362-12.9446v35.0036h-2.8866v-39.9639l-3.5354-6.0745h-2.2391v-2.1949h.9602l-11.8799-20.4104h-26.5847l-4.4066,13.6824v.0455h-.0148l-1.9151,5.9487h1.9299v1.4664h-2.4019l-4.7748,14.8261h1.1892v1.4651h-4.7046v4.3014h-2.5652v-4.3014h-13.4715v-1.4651h1.8494l-5.188-14.8261h-1.1523v-1.4664h.6395l-14.2851-40.821h-106.7436l3.9225-36.8169h-3.6366v2.5378h-30.0049c-12.5128,112.5623-46.9411,130.0735-77.838,140.7642l-.2765,1.4691,3.3888,3.7189,1.2708,5.1666.6355,2.4479,3.4939,3.7163.1066,1.903,1.694.5437.6355,1.8132-.6355,1.2682-1.1651.5437-1.4824-.1795-.6355.4527-2.1173,2.2672-1.4831,2.8994.5296,1.4517-3.2829,1.994-.8471-2.0851.9528-1.4503.742-3.8073,2.4352-3.8984-1.0585-1.6311-2.0121-5.0769-6.3537-3.9881-3.2831-5.8523h-2.1179.0014c-.2404.0845-.4801.1661-.7191.2505-.5177-1.2777-1.0968-2.5391-1.7209-3.7873,32.0319-10.6223,72.2703-18.1766,79.4898-140.9141h-25.2684v-2.5378h-47.0173v-3.0827l-4.6598-1.994-2.5444-2.9006h-7.1975l-2.9656-3.6266-2.9649-3.2635h-10.1656l-2.9656-2.9008h-6.777l-7.6246-3.6265v-26.1074h1919.8513v26.1074h-24.9263ZM520.441,975.0098h-1.1383v2.6195h1.1383v-2.6195ZM522.8601,975.0098h-1.1382v2.6195h1.1382v-2.6195ZM51.3389,1076.3364c-1.4563.4915-2.902.9735-4.3363,1.4583l-.0476,1.1464,2.9643,2.8123.4239,2.3541,5.2952,1.6339-.3175-4.0793-.7419-.7258-1.7999-3.5368-1.4403-1.0632ZM460.1202,978.0738l-10.6572.2304-.8029,6.1334,11.4601-6.3638ZM447.6162,985.0188l.8759-6.6945-5.6989.1231,1.8368,8.2293,2.9863-1.6579ZM437.3046,993.9793h7.9768l-.8791-3.9331h-4.0705l-2.7654,1.5346-.2618-.3468v2.7453ZM437.3046,990.7451l1.2587-.699h-1.2587v.699ZM437.3046,988.123h4.72l1.7342-.9628-1.9397-8.6913-4.5144.095v9.5591ZM434.4179,993.9793v-3.9331h-.8524l.4761,3.8929-.478.0402h.8543ZM434.4179,988.123v-9.4961l-2.2418.0483,1.1537,9.4479h1.0881ZM431.2105,978.6952l-4.1105.0885,1.6157,9.3394h3.648l-1.1531-9.4278ZM429.7288,993.9793h3.3506l-.4813-3.9331h-3.5495l.6803,3.9331ZM428.7566,993.9793l-.6817-3.9331h-5.3956l.3509,3.9024-.4801.0307h6.2065ZM422.5059,988.123h5.2368l-1.6129-9.318-4.4514.0964.8276,9.2216ZM421.8524,991.5901l-.138-1.544h-.6527l.7907,1.544ZM420.078,988.123h1.4624l-.8257-9.2016-5.2858.114,4.649,9.0876ZM419.028,988.123l-4.59-8.9712-2.2043,8.9712h6.7942ZM413.4718,979.0782l-22.6623.4875,1.386,8.5573h19.0553l2.221-9.0448ZM410.778,990.0462h-18.2704l2.4045,14.8447,12.1745.1835,3.6915-15.0282ZM394.8417,1010.4565l-.7707-4.7553-8.1836-.1259.8462,4.8812h8.1081ZM387.1154,1012.6515l3.0044,17.3103,7.8877.0481-2.8103-17.3585h-8.0819ZM406.8851,1005.8966l-11.8397-.1807.7673,4.7407h9.9522l1.1202-4.5599ZM405.2258,1012.6515h-9.0576l2.8123,17.3638,1.978.0107,4.2673-17.3745ZM399.7672,1034.8739l.9883-4.0255-1.6417-.0081.6534,4.0336ZM399.0803,1036.6309l-.9388-5.7974-7.8791-.0495,1.015,5.8469h7.8028ZM384.38,1036.6309h5.9252l-1.0157-5.8523-4.9095-.0295v5.8817ZM384.38,1029.9256l4.7662.0295-3.0031-17.3036h-1.7631v17.2741ZM384.38,1010.4565h1.3808l-.8491-4.8947-.5317-.0081v4.9028ZM384.38,1004.7303l.3884.0053-.3884-2.2325v2.2272ZM384.38,996.8987l1.3634,7.8516,8.1945.1233-2.4026-14.8274h-7.1553v6.8525ZM384.38,988.123h6.8445l-1.3827-8.5373-5.4618.1192v8.4181ZM371.4242,1012.6515h-6.1528l6.6068,17.1978,2.807.0162-3.2609-17.2139ZM375.6606,1029.872l4.5118.0282-3.2315-17.2488h-4.5418l3.2616,17.2205ZM371.9819,1010.4565h4.5485l-.9442-5.038-4.5713-.0697.9669,5.1076ZM375.4316,1004.5923l-2.7252-14.5462h-4.5906l2.7426,14.4765,4.5732.0697ZM372.3461,988.123l-1.5233-8.1288-4.5927.099,1.5213,8.0298h4.5946ZM373.3204,988.123h8.564l-1.4463-8.335-8.6437.1861,1.526,8.1489ZM381.9214,982.7315v-2.9758l-.5142.0108.5142,2.9649ZM373.6807,990.0462l2.7292,14.5608,5.5115.0843v-14.6452h-8.2407ZM376.5632,1005.4334l.9421,5.0232h4.4161v-4.9416l-5.3582-.0816ZM377.9166,1012.6515l3.2321,17.2541.7727.0053v-17.2595h-4.0048ZM381.3033,1030.7304l.6181,3.2998v-3.2945l-.6181-.0053ZM381.4345,1036.6309l-1.1075-5.9059-4.5097-.0281,1.1235,5.934h4.4937ZM375.9667,1036.6309l-1.1256-5.9407-2.6456-.0147,2.2886,5.9554h1.4825ZM372.4641,1036.6309h1.0071l-2.2913-5.9607-2.1956-.016,3.4799,5.9768ZM363.8524,1021.8382l4.651,7.991,2.3596.0147-6.6048-17.1924h-.4058v9.1868ZM363.8524,1008.9581l.5751,1.4984h6.5808l-.9703-5.1237-6.1856-.0924v3.7177ZM363.8524,1004.4156l6.0283.0923-2.74-14.4617h-3.2883v14.3694ZM363.8524,988.123h2.9248l-1.5179-8.0082-1.4068.0293v7.9789ZM360.9658,1016.878v-4.2266h-2.4607l2.4607,4.2266ZM357.2267,1010.4565h3.739v-5.2616l-6.862-.1044,3.1229,5.366ZM353.6204,1004.2588l7.3454.1124v-.292l-5.3929-14.0332h-10.226l8.2735,14.2127ZM356.5861,990.0462l4.3797,11.3991v-11.3991h-4.3797ZM360.9658,988.123v-7.9172l-8.0927.174,2.9751,7.7432h5.1176ZM354.835,988.123l-2.9663-7.7218-11.9843.2571,4.3435,7.4647h10.607ZM343.152,988.123l-4.3309-7.4419-18.245.3938-2.2699,7.048h24.8459ZM305.8283,1023.7681l1.1409-3.5449h-1.1658l.0248,3.5449ZM305.7982,1019.3982l1.4363.0027,2.6456-8.2119h-4.1402l.0583,8.2091ZM305.7299,1009.7227h4.6215l1.9157-5.9487h-6.5788l.0416,5.9487ZM305.683,1002.9491h6.85l4.1554-12.9029h-11.0965l.0911,12.9029ZM305.5779,988.123h11.7292l2.2632-7.0253-14.04.2999.0476,6.7254ZM302.5882,1026.0151h2.2941l-.0409-5.7933-2.2532-.0026v5.7959ZM302.5882,1019.3956l2.2479.0026-.0583-8.2091h-2.1896v8.2065ZM302.5882,1009.7227h2.1796l-.0415-5.9487h-2.138v5.9487ZM302.5882,1002.9491h2.132l-.0911-12.9029h-2.0409v12.9029ZM302.5882,988.123h2.0275l-.0476-6.704-1.9799.0416v6.6624ZM300.023,1026.0151v-5.7986l-5.3132-.0067.0207,5.8041-.482.0012h5.7745ZM300.023,988.123v-6.6076l-5.4511.1179.0764,21.3157h5.3748v-12.9029h-3.5287v-1.9231h3.5287ZM294.6508,1003.7741l.0214,5.9487h5.3508v-5.9487h-5.3722ZM294.6776,1011.1891l.0288,8.1985,5.3166.0053v-8.2038h-5.3454ZM289.3845,1026.0151h4.3832l-.0202-5.8054-4.363-.0053v5.8107ZM289.3845,1019.3809l4.3597.0053-.0295-8.1972h-4.3302v8.1919ZM289.3845,1009.7227h4.3256l-.0214-5.9487h-4.3042v5.9487ZM289.3845,1002.9491h4.3014l-.0757-21.2943-4.2257.0911v21.2032ZM288.4223,1023.2042v-3.001h-.5893l.0014-.8222h.5879v-8.1919h-4.205l4.205,12.0151ZM283.7044,1009.7227h4.7179v-5.9487h-6.7997l2.0818,5.9487ZM281.3341,1002.9491h7.0882v-21.1831l-14.3922.3094,7.3039,20.8737ZM273.7207,981.1928v-12.291h-4.3007l4.3007,12.291ZM658.1176,1001.5055h-1.2101l-.3554-.0817v2.7025h1.5655v-2.6207ZM663.4543,1037.0768h.9247v-5.05l-.9247.0389v5.0111ZM664.9125,1011.7114h-2.4681v6.7012c0,.5825.5518,1.058,1.2361,1.058.681,0,1.232-.4754,1.232-1.058v-6.7012ZM666.5839,1037.8683h-.6402v3.1283l.6402-.1833v-2.9449ZM668.8263,1040.8132l.6402.1833v-3.1283h-.6402v2.9449ZM670.0356,1011.7114h-2.5136v6.6811c0,.5934.561,1.0781,1.2548,1.0781.6977,0,1.2589-.4848,1.2589-1.0781v-6.6811ZM671.9554,1032.0657l-.9235-.0389v5.05h.9235v-5.0111ZM673.4988,1011.7114h-1.378v7.1686c0,.3254.312.5906.6896.5906.377,0,.6884-.2652.6884-.5906v-7.1686ZM678.8582,1001.4238l-.3556.0817h-1.2099v2.6207h1.5655v-2.7025ZM758.1678,995.2581h-.8469v13.1253c.2664.0053.5503.0121.8469.0188v-13.1441ZM767.6004,995.2581h-.9669v13.4147c.3368.0133.6602.024.9669.0361v-13.4508ZM986.4883,1172.2351h-4.5948v3.5435l.2264.7512,1.4208-.2316-.7405.7767.7405.9695-1.4075-.0911-.482,1.062-.5303-1.0083h-1.3594l.9978-.8545-.679-.9321,1.1784.2719.1514-.3535v-3.9037h-4.5961v19.4624h1.6927l-.786,1.0861v.7767l.1914.5182h1.8668l-.1833-1.0352-.0603-1.3458-.6053-.8798-.8464-.517.6656-.7767,1.753-.2075h2.7828l1.1477.2584.5437.7258-.7245.5692-.6656.8785-.2423,1.1918.0442,1.1383h2.6783v-.5182l-.8478-1.1892,1.2696-.1768v-19.9592ZM978.5965,1195.0106l.454.4139h.9682l-.0723-.4139h-1.3499ZM982.7708,1195.4245h2.2056l.5129-.4139h-2.598l-.1205.4139ZM986.4883,1198.53h-9.6742v.2062l.7258.7781,1.2696.62,1.0888.4152h3.9291l1.3312-.4661.9669-.5182.3629-.438v-.5972ZM1153.9195,986.4959l-2.4171,1.1021v15.0123l.2409,1.0847.7258.4151.5437-.3107.6656-.7753.2409-1.6071v-14.9211ZM1464.2241,991.5527h18.2142v-5.4398h-18.2142v5.4398ZM1464.2241,980.4924h18.2142v-5.4385h-18.2142v5.4385ZM1464.2241,968.3447h18.2142v-5.4385h-18.2142v5.4385ZM1464.2241,957.2857h18.2142v-5.4384h-18.2142v5.4384ZM1485.4729,910.6902h-3.1752v14.5046h3.1752v-14.5046ZM1487.2393,953.1155c-2.7319,0-2.7319,3.6251,0,3.6251,2.7306,0,2.7306-3.6251,0-3.6251ZM1486.9567,967.9817c2.7319,0,2.7319-3.6251,0-3.6251-2.7306,0-2.7306,3.6251,0,3.6251ZM1487.2393,958.7976c-2.7319,0-2.7319,3.6252,0,3.6252,2.7306,0,2.7306-3.6252,0-3.6252ZM1487.3812,976.0812c-2.7332,0-2.7332,3.6265,0,3.6265s2.7319-3.6265,0-3.6265ZM1487.5232,981.6413c-2.7319,0-2.7319,3.6252,0,3.6252,2.7306,0,2.7306-3.6252,0-3.6252ZM1487.5232,986.9593c-2.7319,0-2.7319,3.6251,0,3.6251,2.7306,0,2.7306-3.6251,0-3.6251ZM1495.6387,910.6902h-3.1752v14.5046h3.1752v-14.5046ZM1500.5119,963.9936c-2.7319,0-2.7319,3.6252,0,3.6252s2.7319-3.6252,0-3.6252ZM1499.9468,990.8269c2.7319,0,2.7319-3.6265,0-3.6265s-2.7319,3.6265,0,3.6265ZM1499.9468,985.509c2.7319,0,2.7319-3.6252,0-3.6252s-2.7319,3.6252,0,3.6252ZM1499.8062,979.8282c2.7318,0,2.7318-3.6252,0-3.6252s-2.7319,3.6252,0,3.6252ZM1500.37,962.3023c2.7319,0,2.7319-3.6265,0-3.6265-2.7306,0-2.7306,3.6265,0,3.6265ZM1500.5119,956.5009c2.7319,0,2.7319-3.6278,0-3.6278s-2.7319,3.6278,0,3.6278ZM1504.9567,910.6902h-3.1738v14.5046h3.1738v-14.5046ZM1523.1025,951.8473h-18.2142v5.4384h18.2142v-5.4384ZM1523.1025,962.9062h-18.2142v5.4385h18.2142v-5.4385ZM1523.1025,975.0539h-18.2142v5.4385h18.2142v-5.4385ZM1523.1025,986.1129h-18.2142v5.4398h18.2142v-5.4398ZM1893.3409,920.738l-.0509.0522-.4996-.3884-3.9988,3.577,4.5063,3.5126.0429-6.7535ZM1891.5933,928.0473l-3.9265-3.0613-4.0001,3.5756,3.9265,3.0627,4.0001-3.577ZM1883.7202,937.0975l4.2266,3.1096,3.9532-3.3359-4.2331-3.3024-3.9467,3.5287ZM1891.5933,919.4658l-3.9265-3.0641-4.0001,3.5783,3.9265,3.0613,4.0001-3.5756ZM1893.2873,929.3691l-.4968-.3858-3.9988,3.577,4.4528,3.4738.0428-6.665ZM1893.2325,937.9104l-.0952-.075-3.9198,3.3078,3.9774,2.9261.0376-6.1589ZM1893.1816,945.9468l-5.1586-3.7965-4.2933,3.6239,3.8636,3.0158,4.134-3.6989,1.1062,1.0178-4.0417,3.6171,4.3456,3.3895.0443-7.1687ZM1891.5933,988.127l-3.9265-3.0639-4.0001,3.5782,3.9265,3.0615,4.0001-3.5757ZM1883.3654,997.4919h9.2295l-4.9281-3.8448-4.3014,3.8448ZM1891.5933,979.5442l-3.9265-3.0627-4.0001,3.5783,3.9265,3.0613,4.0001-3.577ZM1891.5933,970.9627l-3.9265-3.0639-4.0001,3.577,3.9265,3.0627,4.0001-3.5757ZM1891.5933,962.3799l-3.9265-3.0639-4.0001,3.577,3.9265,3.0613,4.0001-3.5744ZM1891.5933,953.7972l-3.9265-3.0641-4.0001,3.5756,3.9265,3.0641,4.0001-3.5756ZM1893.1266,954.993l-.3361-.2611-3.9988,3.5756,4.2933,3.3479.0416-6.6624ZM1893.0731,963.533l-.2826-.2197-3.9988,3.5783,4.2399,3.305.0416-6.6637ZM1893.0209,972.0743l-.2304-.1781-3.9988,3.577,4.1849,3.2636.0443-6.6624ZM1892.9659,980.6156l-.1754-.1352-3.9988,3.577,4.1314,3.2221.0428-6.6638ZM1892.9124,989.1569l-.1219-.095-3.9988,3.577,4.0791,3.1819.0416-6.6638ZM1747.3205,910.6902v86.8017h133.2849l.5436-86.8017h-133.8284ZM1882.1333,1020.38h10.5822l.0388-6.1991h-10.5835l-.0376,6.1991ZM1882.2847,996.4527l4.1823-3.743-4.1395-3.2274-.0428,6.9704ZM1882.3369,987.8217l4.13-3.6935-4.0859-3.1872-.0442,6.8807ZM1882.3918,979.1894l4.0752-3.644-4.0336-3.1457-.0416,6.7897ZM1882.4454,970.5597l4.0215-3.5957-3.9788-3.1055-.0428,6.7012ZM1882.5002,961.9286l3.9667-3.5487-3.9265-3.0627-.0402,6.6114ZM1882.5538,953.2962l3.9131-3.4992-3.8729-3.0199-.0402,6.5191ZM1882.6073,944.7122l4.1448-3.498-4.1046-3.0199-.0402,6.5179ZM1882.6609,936.0355l3.806-3.4055-3.7658-2.9355-.0402,6.341ZM1882.7144,927.4046l3.7525-3.356-3.7123-2.8953-.0402,6.2513ZM1882.7708,918.7735l3.6961-3.3078-3.6587-2.8537-.0374,6.1615ZM1891.3469,910.6902h-6.8914l-.7888.7057,3.9265,3.0627,4.0001-3.577-.2464-.1914ZM1893.2901,912.2062l-.4996-.3871-3.9988,3.5757,4.5599,3.5554.0428-6.8525-.1044.1085Z"/>
      </g>
      <g>
        <path d="M554.797,758.8534h24.8807v-108.2715l8.3256-.4874-.3053-3.0399-8.0203-.8276v-8.5078l8.3256-.4868-.3053-3.0413-8.0203-.8276v-8.8581l8.3256-.4868-.3053-3.0405-8.0203-.827v-8.5085l8.3256-.4867-.3053-3.0413-8.0203-.8269v-29.8464l.7646-1.5226,7.7144-.3107.3816-29.079-4.8874-1.0773v-4.0678h-3.9733v-15.7857h-6.5869v-1.9887h-2.509l.16-35.43-.3441-.0021-.0107,2.4574h-1.279l.0295-7.3667-.3435-.0014-.0288,7.3681h-2.1601l.0121-2.4554-.3441-.0021-.0108,2.4574h-.9159l.01-2.3376-.3435-.0019-.1593,35.3142h-1.9599v1.9887h-8.0967v15.7857h-2.2344v4.1876l-5.8797.9575v28.2989l6.9497.6241,1.1644,2.3195v28.7898l-8.6498.3066v3.275l8.6498.8631v8.4181l-8.6498.3073v3.2743l8.6498.8638v8.7675l-8.6498.3073v3.275l8.6498.8638v8.4168l-8.6498.3066v3.2757l8.6498.8624v108.9089ZM569.1055,491.2782h1.2775l-.0307,7.1331h-1.2756l.0288-7.1331ZM569.0747,498.9362h1.2742l-.0368,8.2588h-1.2703l.0328-8.2588ZM569.0391,507.7655h1.2703l-.0362,8.0693h-1.2662l.0321-8.0693ZM569.0044,516.4776h1.2655l-.0314,7.1317h-1.2629l.0288-7.1317ZM566.6032,491.2782h2.158l-.0281,7.1331h-2.1622l.0322-7.1331ZM566.5684,498.9362h2.1634l-.0335,8.2588h-2.1668l.0369-8.2588ZM566.5289,507.7655h2.1668l-.0322,8.0693h-2.1722l.0376-8.0693ZM566.4894,516.4776h2.1722l-.0288,7.1317h-2.1756l.0322-7.1317ZM565.343,491.2782h.916l-.0321,7.1331h-.916l.0321-7.1331ZM565.3089,498.9362h.916l-.0369,8.2588h-.918l.0388-8.2588ZM565.2687,507.7655h.9167l-.0369,8.0693h-.9159l.0361-8.0693ZM565.2299,516.4776h.916l-.0328,7.1317h-.9154l.0321-7.1317Z"/>
        <path d="M1895.0737,854.8276l-.2156-41.2562.2169-.1902-.2195-.2625-.3254-61.7804h12.927v-2.5579h-5.0126v-4.8345h-3.0639v-3.9774h11.4191v-4.8331h-16.3541l-.0576-11.0858h.537v-4.8317h3.202v-20.6086h-5.5696v-21.53h5.5696v-3.269h-5.5696v-1.7771h-.8343v26.5761h-15.8761v20.6086h2.7856v4.8317h-11.8344v1.7062h13.673l.0214,3.9788h-13.6944v5.4008h-119.4778v-9.3796h-90.6987v129.0717h-21.3948l-14.0976-15.1073c17.2902-25.2008,27.4452-55.8707,27.4452-88.9699,0-85.768-68.1241-155.2964-152.1578-155.2964s-152.1579,69.5284-152.1579,155.2964c0,32.6305,9.8643,62.9067,26.7125,87.9012l-15.0952,16.176h-17.1v-70.038h1.9257l-9.622-39.6304-1.224-1.6083-1.9243,1.9658-21.0145.1997-.4125-8.8574.9615-2.7682-.9615-1.5172-9.6221-28.6665c.2692-.1661.4499-.4634.4499-.8062,0-.521-.4137-.9442-.924-.9442v-.7686l.5853-.1005.624.2678-.4271-.537-.6228-.1673.4259-.4849.8516-.4191-1.0499.0683-.5222.5677-.3616-2.3757-.0321,2.3088-.3951-.5008h-.983l.9535.4353.2276.6026h-.7218l-.4593.904.5236-.5691.7232.2678.4098.541c-.387.1124-.6736.4727-.6736.904,0,.3454.1861.6441.4567.8088l-4.6203,17.5782-2.6582-19.9659.853-.3013-3.4764-4.5184-.5906-12.3526.3616-.268-.0335-.4687h.624l-.9521-13.1547h-4.6898l-19.7743-67.0489v-2.5411h-.4273v-5.3227h-.9186l-1.1156-3.4135h-.4258l-1.5093-7.1968v-1.0044l-.3923-.6026-1.149-3.9941c.6843-.3382,1.1558-1.0519,1.1558-1.8802,0-1.1149-.8545-2.0222-1.9285-2.0858v-3.1813c.1166-.0743.1969-.2049.1969-.3561,0-.1507-.0804-.2826-.1969-.3556v-3.0755h4.1983c.0429.1721.1969.3007.3804.3007.2155,0,.3923-.1795.3923-.4011s-.1768-.4025-.3923-.4025c-.1835,0-.3375.1293-.3804.3014h-4.1983v-3.5295c.1166-.0649.1969-.1914.1969-.3368,0-.1445-.0804-.2704-.1969-.3347v-2.6275h-.4392v2.6275c-.1178.0643-.1969.1902-.1969.3347,0,.1454.0791.2719.1969.3368v3.5295h-4.1997c-.0442-.1721-.1969-.3014-.3802-.3014-.217,0-.3925.1809-.3925.4025s.1755.4011.3925.4011c.1833,0,.3361-.1286.3802-.3007h4.1997v3.0755c-.1192.073-.1969.2049-.1969.3556,0,.1513.0778.2818.1969.3561v3.1813c-1.0754.0636-1.9297.9709-1.9297,2.0858,0,.8283.4727,1.5421,1.1556,1.8802l-1.1489,3.9941-.3938.6026v1.0044l-1.5079,7.1968h-.4258l-1.1156,3.4135h-.9186v5.3227h-.4259v2.5411l-19.7757,67.0489h-4.6898l-.9521,13.1547h.6227l-.0335.4687.3629.268-.5905,12.3526-3.4766,4.5184.8531.3013-2.6583,19.9659-4.6215-17.5782c.2704-.1647.4567-.4634.4567-.8088,0-.4313-.2852-.7915-.6722-.904l.4111-.541.7204-.2678.525.5691-.458-.904h-.7232l.2276-.6026.9536-.4353h-.9843l-.3923.5008-.0336-2.3088-.3602,2.3757-.5249-.5677-1.0499-.0683.8517.4191.4272.4849-.6227.1673-.4258.537.6213-.2678.5853.1005v.7686c-.5089,0-.9228.4232-.9228.9442,0,.3428.1807.6401.4513.8062l-9.6234,28.6665-.9614,1.5172.9614,2.7682-.4125,8.8574-21.0144-.1997-1.9257-1.9658-1.2213,1.6083-9.6221,39.6304h1.9244v70.038h-6.8794v-81.6232h-.0776l2.5271-2.7775-3.1806-1.7302v-33.0055l.9522-1.1316h1.4958l1.2253-1.4958-1.2708-.1849-2.4026-.4151-1.6338-.9281-.6789-.5544-.7714-.2316h-.2718v-.9723h1.4517v-.5317l.4981-1.5039v-1.1128l-.4981-1.2025-.6348-.6938-1.3606-.324-.5451-.6027-.1352-.4151.6803-.8798-1.4062.0214v-6.0825l1.0418-.766-1.0418-.4394-.999-.6481-.0255.0014v-.5249c0-.6455-.4861-1.1759-1.1061-1.2294v-2.1815l-.7258-1.8521v-3.131c.4232-.2612.7258-.9147.7258-1.6821s-.3027-1.4222-.7258-1.6821v-18.6843h-.6348v18.5973c-.5182.1673-.908.8959-.908,1.769s.3898,1.6017.908,1.769v3.0441l-.908,2.0837v1.9578c-.5893.0831-1.0433.5987-1.0433,1.2214v.778l-.8597.4406-1.2254.5544,1.2254.5303v6.2513l-1.4531.0215.908.8798v.6026l-.4084.3228-1.074.2316-.6951.4178-.7714.786-.2263,1.0192v1.4343l.2263.9026v.5317h1.271v1.1102l-.1366.0937-.9522.6951-2.1319.9254-3.356.924.7245,1.0338h1.5883l1.0433,1.8293v22.7808l-6.1603-3.7377-6.2567-5.2763-8.4369-8.0539-97.9892-7.7967v-103.9972h-.1688l1.7664-2.9215,3.0253-.247,1.5708-1.3573-5.1987-.7405-4.1127-.7258v-4.3966l.6041-.6174-.6041-.555-.5437-.8022v-11.8497h-.3027v-17.6497h-.4204v17.6497h-.3027v11.6642l-.0629.3704-.4834.6174-.7862.555.7862.6877v3.9519l-.0617-.01-6.8927-1.8521-5.2001-2.0984-3.8703-2.7152-1.8119-2.5928v-1.9739l.4821-1.3573,1.9351-.4941v-.8638l1.2094-.9883v-6.2941l-2.0557-1.1109v-5.431l-3.5059-1.358.4822-2.0978-.8076-.4346.1433-.8002-1.0285-.7405.3642-1.1718.0602-3.21.9669-.4935-.3013-1.3579-.4246.9261-.6053.0623v-.9883l-.4232-.8022.4232-.3696-.3013-.9267-.6656-.5544-.3629.8022v.7405l-.3937.3697v1.5433l.3937.8638-.3937,3.6413.3937.3696-.4232.4942-.225.8021h-.1378v-38.3929l1.5119-.9186.059-.8638,6.5914-3.0232v-3.7042l-6.8325-2.5913-1.9325-.2606-.304-1.4055-.6643-.7721-.908-.7714v-.9869l-.3027-1.1732-.9066-.4325h-.1205v-.2176c0-.1607-.0014-.3194-.0026-.4761.17-.1231.2746-.2932.2746-.4806,0-.1936-.114-.3677-.2947-.4908-.0053-.1902-.0121-.3764-.02-.5572.541-.1098.92-.3596.92-.6488,0-.3047-.4166-.5639-1.0018-.665-.1124-1.3392-.2919-2.2049-.4955-2.2049-.2023,0-.3804.8597-.4929,2.1903-.632.089-1.0942.3596-1.0942.6796,0,.3053.4206.5651,1.0085.6648-.0067.1581-.0121.3201-.0188.4861-.2316.1233-.3844.3208-.3844.5458,0,.2176.1433.4098.363.5343,0,.1386-.0014.2799-.0014.4225,0,.0724,0,.1447.0014.2176h-.4848l-.6951.6789-.3629,1.5441h-.3027l-.304.4929-.2866.3401-3.5823-5.4317-1.9954-3.1156-.3628-2.0991.1821-2.4065.8464-2.4681,1.3297-2.5928,2.4802-2.1594v-4.1969l-.8478-1.1102-4.1714-4.5056-2.116-3.5797h-.0616v-3.8367c.9668-.3342,1.6633-1.2656,1.6633-2.365s-.6965-2.0316-1.6633-2.3657v-2.7259h-.513v-11.4058l.0643.0937,8.3431-5.8623-.154-.229.2263.1528,2.1655-3.3467h2.7935l.4071-1.7107.999-1.437-2.0408-.6936v1.1577l-.6803.2773-.7258-.6944.2718-1.157-1.1075-1.3425-1.7048,1.4355.8624.9716-1.2708.6944-.5437-.3013.0455-.9495-2.1762.5563,1.133,1.4825.4553,1.7107h2.6314l-1.939,2.9958-8.0553,5.6607v-2.7313h2.8632l.4085-1.7121.9962-1.4356-2.0408-.6943v1.1577l-.6791.2773-.7257-.6951.2718-1.1563-1.1061-1.3425-1.7062,1.4356.8611.9714-1.2694.6944-.5423-.3006.0441-.9488-2.1775.555,1.1342,1.4819.454,1.7121h2.669v2.5378l-8.0096-4.8015-1.7959-2.365h1.9753l.4085-1.7109.9976-1.437-2.0409-.6936v1.1564l-.6803.2785-.7245-.6944.2706-1.1584-1.1062-1.3412-1.7047,1.4343.8624.9723-1.2709.695-.545-.3013.0468-.9488-2.1774.5551,1.1328,1.4831.454,1.7109h3.4135l2.0865,2.7459.2156-.1694-.1392.239,8.3311,4.9952v11.4902h-.5129v2.7259c-.9669.3341-1.6633,1.2668-1.6633,2.3657s.6964,2.0308,1.6633,2.365v3.8367h-.0617l-1.9337,3.518-1.8147,1.7892-1.9953,2.531-1.512,2.4072.363,3.7637,1.9364,1.358,2.3569,2.7775.6656,1.2956.4232,1.5427v1.8521l-.3644,1.4812-.7847,1.7275-1.6941,2.4045-2.2967,2.9027-2.3007,2.2686-.7834-.4787v-.5558l-.4834-1.0485-.6053-.4942h-.4527v-.154c0-.1607-.0014-.3194-.0027-.4767.1688-.1226.2745-.2926.2745-.4808,0-.1928-.1138-.367-.2932-.4915-.0067-.1888-.0134-.3744-.0215-.5558.5411-.1111.9188-.3589.9188-.6495,0-.304-.4166-.5625-1.0004-.6643-.1126-1.3385-.292-2.2049-.4956-2.2049-.2022,0-.3803.8598-.4941,2.1903-.6334.089-1.0928.3596-1.0928.6789,0,.3053.4192.5658,1.0085.6648-.0067.1595-.0134.3214-.0188.4856-.233.1252-.3858.322-.3858.5463,0,.2183.1447.4104.3644.535-.0014.1393-.0014.2799-.0014.4225v.154h-.3027l-.6643.7407-.4848.9261v1.2341l-.8464.8028-.4834.8022v.8531l-2.2981.5651-6.1073,2.839,1.2099,4.0115,6.5298,2.0984.2719.9878,1.3619.7064v38.2965h-.4875l-.178-1.4195-.6964-.5551v-4.6905l-.3321-.9876.3321-.6789-.5732-1.0487h-.908v.9883l.4834.5544-.6643.6174-.3027,1.2963v4.5044l.6041.4941v.9254h-.9669l-.7252,2.5928.7252.4934v.8638l-3.0232,1.2334-.3623,5.3078-1.451.8652.1205,3.3312-.4834.6181.3629,2.839,1.5715.6167v1.2347l2.0557.8638v2.221l-1.0888,2.0992-3.1444,2.4674-4.7151,2.4688-5.0795,1.7275-3.8696.6329v-4.0263l.6046-.6174-.6046-.555-.5444-.8022v-11.8497h-.3027v-17.6497h-.4198v17.6497h-.304v11.6642l-.0616.3704-.4842.6174-.7867.555.7867.6877v4.3014l-9.1305,1.4912,1.3298,1.7276h3.3876l2.2612,3.5916v100.6565l-158.5726,14.7872-2.1762,4.9979-4.8967,7.7753-1.595,1.3272-1.3037-1.2763-1.8146-1.3566-.7184-1.7423,2.5926-1.7142-.6046-.5557v-16.1305c.5343-.0228.8464-.0388.8464-.0388v-.4327l-1.8059-.229-.0221-.4713c.2409-.1245.4077-.3763.4077-.6724,0-.3201-.1968-.5932-.4727-.7029l-.1928-4.09-.2492,4.0605c-.3247.0804-.567.3763-.567.7324,0,.3228.1995.5987.4787.7058l-.0214.3549-1.4243-.1809-1.6934-.9254-.7867-1.4208-.2699-1.1584.9354-1.1237.2457-1.6619c.9595-.8369,1.5689-2.0756,1.5689-3.4604,0-2.3798-1.7959-4.3337-4.0886-4.5465l.1574-.8852.3635-1.4182-.9381-3.6426-.2571-17.9705c.065.0081.1305.0121.1976.0121,1.7516,0,3.1738-2.7761,3.1738-6.2017,0-.154-.0033-.3068-.0093-.458-.1119,2.7359-1.2823,4.8893-2.7113,4.8893-1.5031,0-2.7218-2.381-2.7218-5.3165,0-2.7937,1.1021-5.0809,2.5029-5.2978-.0778-.0107-.1554-.0188-.2344-.0188-1.7536,0-3.1753,2.7747-3.1753,6.2018,0,2.9636,1.0654,5.441,2.4883,6.0544l.233,18.1674-.4848,3.9519.4848.9856v.9576c-2.2465.2585-3.99,2.1896-3.99,4.5358,0,1.4919.7043,2.8137,1.7944,3.6466l.4427,1.599.7855,1.1851-.2418,1.2844-.9066.9495-1.3306,1.086-1.3867.2104-.0195-.4178c.2418-.1245.4085-.3763.4085-.6724,0-.3201-.1969-.5932-.4727-.7029l-.1929-4.09-.249,4.0605c-.324.0804-.5679.3763-.5679.7324,0,.3228.2009.5987.4801.7058l-.0293.4808-1.2361.1861v.9267c0,.0321.2892.0483.7854.0495v15.8145l-.7854.3053,2.9636,1.7557v1.0218l-.9682,1.8507-1.9345,2.5926-2.2377,3.7016-1.666,4.0738-.3375,2.5926h-1.5641v-4.3216h-1.0907v5.4425l-3.3693,66.9229-5.6474-73.5265,4.29-10.6799h-63.2014v-3.6561l1.7785-1.2092v-3.5595l-2.4191-.6696v-3.3975h2.4191l-1.4229-1.6686-.9963-1.2816v-2.5685h-.6401v1.7436l-1.5655-1.4517v-5.5925l-1.4229-1.9606v-6.3905l.7117-.7245.7112-.7272-.7112-.6536-.7117-.3642-.4139-.6643.5565-.9321v-1.8895l-.4982-2.0315-.9254-1.3808-1.281-.944-.6394-.6549.4265-.6508.4273-.6548.0709-.7982-.9247-.7284-.2137-.2169v-7.0441h-1.992v-4.0658l1.4926-.6534-.9235-.5813v-.9428l.1768-1.1623-.1768-1.3808-1.068-.944-1.1376-1.3058-.9568-10.7348v-2.8659c.2799-.0843.5035-.3039.5035-.616s-.2237-.5317-.5035-.616v-1.4262c.2585-.0898.4673-.2947.4673-.5879,0-.2961-.2088-.5022-.4673-.5934v-.1768c.298-.1057.5384-.3441.5384-.6829,0-.3415-.2404-.5799-.5384-.687v-.1902c.2223-.099.3958-.2799.3958-.541,0-.2597-.1735-.4392-.3958-.5396v-4.8894c.1821-.0762.3254-.2223.3254-.4339,0-.2799-.223-.5075-.4982-.5075-.2759,0-.4989.2276-.4989.5075,0,.2183.1561.3697.3421.442v4.8291c-.2892.0562-.5196.2825-.5196.5919,0,.3107.2304.5384.5196.5932v.0857c-.3635.059-.6622.3482-.6622.7393,0,.3884.2987.6789.6622.7365v.1018c-.2845.071-.5196.2973-.5196.6148,0,.3133.235.541.5196.612v1.3953c-.2892.0778-.5196.304-.5196.6227,0,.3201.2304.5437.5196.6255v2.8565l-.9561,10.7348-1.1384,1.3058-1.0666.944-.1774,1.3808.1774,1.1623v.9428l-.9247.5813,1.4931.6534v4.0658h-1.992v7.0441l-.213.2169-.9254.7284.071.7982.4272.6548.4272.6508-.6408.6549-1.281.944-.9247,1.3808-.4982,2.0315v1.8895l.5565.9321-.4137.6643-.7119.3642-.711.6536.711.7272.7119.7245v6.3905l-1.4229,1.9606v5.5925l-1.5655,1.4517v-1.7436h-.6408v2.5685l-.995,1.2816-1.4236,1.6686h2.4186v3.3975l-2.4186.6696v3.5595l1.7792,1.2092v3.6561h-132.1988v-.8719h.0583v-1.6646c.2845-.1325.5115-.3508.5115-.6602,0-.308-.227-.5249-.5115-.6575v-4.2064h.5115v-.5812h-.5115v-1.8159h-.5377v1.8159h-.7291v.5812h.7291v4.1274c-.4044.075-.7291.3549-.7291.7365,0,.3844.3247.6629.7291.7379v.0629h-.089v2.2498l-.4273,3.4845-.9963,4.2854-.5686,2.1066-.7124.7258v1.3793l-.7821.9455-.9964,1.2334v1.524l.6408,1.0901-1.281.9442-.0709.7258.9956.6536v2.977l-.6401,1.3084-1.1382,1.0164-.531.829,7.2376,2.2739-5.9306,4.7555,5.9306,2.1627v6.2674l-5.7183,3.0253.2116,6.9182,18.849,1.5133v4.1072l9.5705,3.514h-13.2579v-4.3644h-20.5283v-15.7126h3.8494v-3.9291l-8.8881-.154,6.7494-5.9568-35.497-2.6194-5.1318,2.6194h-12.4028v-10.913l.2618-.4111-12.7805-8.4623-1.1163-10.1671-.4774.055-.4782.0535,1.0278,9.3676-2.6521-1.7543.1278-.6843h1.0118v-2.2927h-.5832l.8785-4.6898h.6677v-1.9659h-9.6234v-9.2204h-2.8866v9.2204h-14.2194v1.9659h1.8266l-2.0142,4.6898h-8.2486l-5.0133-24.3343h.4045v-2.6181h-.9435l-5.8904-28.5889h1.2749v-1.5293h-17.2146v-9.3837h-2.4586v9.3837h-10.6921v1.5293h.1593l-7.5362,15.4341v-41.7343h-2.8866v47.6467l-3.5354,7.2424h-2.2391v2.6181h.9602l-11.8799,24.3343h-26.5847l-4.4066-16.3126v-.055h-.0148l-1.9151-7.0922h1.9299v-1.7476h-2.4019l-4.7748-17.6773h1.1892v-1.7462h-4.7046v-5.129h-2.5652v5.129h-13.4715v1.7462h1.8494l-5.188,17.6773h-1.1523v1.7476h.6395l-14.2851,48.6685h-106.7436l3.9225,43.8958h-3.6366v-3.0266h-30.0049c-12.5128-134.202-46.9411-155.0798-77.838-167.8263l-.2765-1.7516,3.3888-4.4327,1.2708-6.1603.6355-2.9182,3.4939-4.4313.1066-2.2686,1.694-.6482.6355-2.1627-.6355-1.5119-1.1651-.6482-1.4824.2143-.6355-.5398-2.1173-2.7025-1.4831-3.4578.5296-1.7295-3.2829-2.3777-.8471,2.4855.9528,1.7288.742,4.5399,2.4352,4.6482-1.0585,1.9445-2.0121,6.0532-6.3537,4.7541-3.2831,6.9772h-2.1179.0014c-.2404-.1005-.4801-.1983-.7191-.2987-.5177,1.5226-1.0968,3.0279-1.7209,4.5156,32.0319,12.6647,72.2703,21.6707,79.4898,168.0044h-25.2684v3.0266h-47.0173v3.6747l-4.6598,2.3783-2.5444,3.4578h-7.1975l-2.9656,4.323-2.9649,3.8917h-10.1656l-2.9656,3.4577h-6.777l-7.6246,4.3243v31.1265h1919.8513v-31.1265h-24.9263ZM520.441,778.142h-1.1383v-3.123h1.1383v3.123ZM522.8601,778.142h-1.1382v-3.123h1.1382v3.123ZM51.3389,657.3357c-1.4563-.5865-2.902-1.161-4.3363-1.7382l-.0476-1.3673,2.9643-3.3521.4239-2.8082,5.2952-1.9471-.3175,4.8639-.7419.865-1.7999,4.2157-1.4403,1.2682ZM460.1202,774.4887l-10.6572-.2732-.8029-7.3133,11.4601,7.5864ZM447.6162,766.2099l.8759,7.9815-5.6989-.1473,1.8368-9.8109,2.9863,1.9766ZM437.3046,755.5259h7.9768l-.8791,4.6898h-4.0705l-2.7654-1.8293-.2618.4125v-3.2729ZM437.3046,759.3827l1.2587.8329h-1.2587v-.8329ZM437.3046,762.5084h4.72l1.7342,1.1477-1.9397,10.3625-4.5144-.1138v-11.3964ZM434.4179,755.5259v4.6898h-.8524l.4761-4.6417-.478-.0481h.8543ZM434.4179,762.5084v11.3214l-2.2418-.0576,1.1537-11.2638h1.0881ZM431.2105,773.7482l-4.1105-.1045,1.6157-11.1353h3.648l-1.1531,11.2398ZM429.7288,755.5259h3.3506l-.4813,4.6898h-3.5495l.6803-4.6898ZM428.7566,755.5259l-.6817,4.6898h-5.3956l.3509-4.6537-.4801-.0361h6.2065ZM422.5059,762.5084h5.2368l-1.6129,11.1085-4.4514-.114.8276-10.9946ZM421.8524,758.3743l-.138,1.8414h-.6527l.7907-1.8414ZM420.078,762.5084h1.4624l-.8257,10.9706-5.2858-.1353,4.649-10.8352ZM419.028,762.5084l-4.59,10.696-2.2043-10.696h6.7942ZM413.4718,773.2928l-22.6623-.5812,1.386-10.2032h19.0553l2.221,10.7844ZM410.778,760.2157h-18.2704l2.4045-17.6987,12.1745-.2195,3.6915,17.9182ZM394.8417,735.8814l-.7707,5.6688-8.1836.1499.8462-5.8187h8.1081ZM387.1154,733.2633l3.0044-20.6368,7.8877-.0576-2.8103,20.6944h-8.0819ZM406.8851,741.3171l-11.8397.2157.7673-5.6514h9.9522l1.1202,5.4356ZM405.2258,733.2633h-9.0576l2.8123-20.7011,1.978-.0134,4.2673,20.7145ZM399.7672,706.7689l.9883,4.7996-1.6417.0107.6534-4.8103ZM399.0803,704.6744l-.9388,6.9116-7.8791.0588,1.015-6.9704h7.8028ZM384.38,704.6744h5.9252l-1.0157,6.9772-4.9095.0362v-7.0134ZM384.38,712.6693l4.7662-.0348-3.0031,20.6288h-1.7631v-20.594ZM384.38,735.8814h1.3808l-.8491,5.8361-.5317.0095v-5.8455ZM384.38,742.7086l.3884-.0067-.3884,2.6623v-2.6556ZM384.38,752.0453l1.3634-9.3609,8.1945-.1473-2.4026,17.6785h-7.1553v-8.1703ZM384.38,762.5084h6.8445l-1.3827,10.1791-5.4618-.1419v-10.0371ZM371.4242,733.2633h-6.1528l6.6068-20.5029,2.807-.02-3.2609,20.5229ZM375.6606,712.7323l4.5118-.0321-3.2315,20.5631h-4.5418l3.2616-20.531ZM371.9819,735.8814h4.5485l-.9442,6.0063-4.5713.083.9669-6.0892ZM375.4316,742.8719l-2.7252,17.3438h-4.5906l2.7426-17.2593,4.5732-.0845ZM372.3461,762.5084l-1.5233,9.6917-4.5927-.1179,1.5213-9.5738h4.5946ZM373.3204,762.5084h8.564l-1.4463,9.938-8.6437-.2223,1.526-9.7157ZM381.9214,768.9365v3.5475l-.5142-.0134.5142-3.534ZM373.6807,760.2157l2.7292-17.3612,5.5115-.1004v17.4616h-8.2407ZM376.5632,741.8703l.9421-5.9888h4.4161v5.8911l-5.3582.0978ZM377.9166,733.2633l3.2321-20.5698.7727-.0067v20.5766h-4.0048ZM381.3033,711.7091l.6181-3.9345v3.9291l-.6181.0053ZM381.4345,704.6744l-1.1075,7.0415-4.5097.0335,1.1235-7.0749h4.4937ZM375.9667,704.6744l-1.1256,7.083-2.6456.0174,2.2886-7.1004h1.4825ZM372.4641,704.6744h1.0071l-2.2913,7.1072-2.1956.0186,3.4799-7.1258ZM363.8524,722.3115l4.651-9.527,2.3596-.0174-6.6048,20.4962h-.4058v-10.9518ZM363.8524,737.6679l.5751-1.7864h6.5808l-.9703,6.108-6.1856.1111v-4.4327ZM363.8524,743.0835l6.0283-.1097-2.74,17.2419h-3.2883v-17.1322ZM363.8524,762.5084h2.9248l-1.5179,9.5484-1.4068-.0362v-9.5122ZM360.9658,728.2253v5.038h-2.4607l2.4607-5.038ZM357.2267,735.8814h3.739v6.2727l-6.862.1245,3.1229-6.3972ZM353.6204,743.2709l7.3454-.1352v.3482l-5.3929,16.7318h-10.226l8.2735-16.9447ZM356.5861,760.2157l4.3797-13.5901v13.5901h-4.3797ZM360.9658,762.5084v9.4385l-8.0927-.2076,2.9751-9.2309h5.1176ZM354.835,762.5084l-2.9663,9.2068-11.9843-.308,4.3435-8.8988h10.607ZM343.152,762.5084l-4.3309,8.872-18.245-.4687-2.2699-8.4033h24.8459ZM305.8283,720.0107l1.1409,4.2252-1.1658.0014.0248-4.2266ZM305.7982,725.2202l1.4363-.0027,2.6456,9.7908h-4.1402l.0583-9.7881ZM305.7299,736.7559h4.6215l1.9157,7.0922h-6.5788l.0416-7.0922ZM305.683,744.8311h6.85l4.1554,15.3846h-11.0965l.0911-15.3846ZM305.5779,762.5084h11.7292l2.2632,8.3766-14.04-.359.0476-8.0176ZM302.5882,717.331h2.2941l-.0409,6.9075-2.2532.0027v-6.9102ZM302.5882,725.2228l2.2479-.0026-.0583,9.7881h-2.1896v-9.7855ZM302.5882,736.7559h2.1796l-.0415,7.0922h-2.138v-7.0922ZM302.5882,744.8311h2.132l-.0911,15.3846h-2.0409v-15.3846ZM302.5882,762.5084h2.0275l-.0476,7.9922-1.9799-.0495v-7.9427ZM300.023,717.331v6.9142l-5.3132.0067.0207-6.9196-.482-.0014h5.7745ZM300.023,762.5084v7.877l-5.4511-.1406.0764-25.4138h5.3748v15.3846h-3.5287v2.2927h3.5287ZM294.6508,743.8481l.0214-7.0922h5.3508v7.0922h-5.3722ZM294.6776,735.0083l.0288-9.7748,5.3166-.0067v9.7815h-5.3454ZM289.3845,717.331h4.3832l-.0202,6.9223-4.363.0053v-6.9276ZM289.3845,725.2402l4.3597-.0053-.0295,9.7734h-4.3302v-9.7681ZM289.3845,736.7559h4.3256l-.0214,7.0922h-4.3042v-7.0922ZM289.3845,744.8311h4.3014l-.0757,25.3896-4.2257-.1085v-25.2812ZM288.4223,720.6831v3.577h-.5893l.0014.9816h.5879v9.7667h-4.205l4.205-14.3252ZM283.7044,736.7559h4.7179v7.0922h-6.7997l2.0818-7.0922ZM281.3341,744.8311h7.0882v25.257l-14.3922-.3696,7.3039-24.8874ZM273.7207,770.7712v14.6533h-4.3007l4.3007-14.6533ZM658.1176,746.5533h-1.2101l-.3554.0978v-3.2221h1.5655v3.1243ZM663.4543,704.1427h.9247v6.0211l-.9247-.0469v-5.9742ZM664.9125,734.3856h-2.4681v-7.9896c0-.6951.5518-1.2615,1.2361-1.2615.681,0,1.232.5664,1.232,1.2615v7.9896ZM666.5839,703.1987h-.6402v-3.7284l.6402.2183v3.51ZM668.8263,699.6887l.6402-.2183v3.7284h-.6402v-3.51ZM670.0356,734.3856h-2.5136v-7.9668c0-.7071.561-1.2842,1.2548-1.2842.6977,0,1.2589.5772,1.2589,1.2842v7.9668ZM671.9554,710.1169l-.9235.0469v-6.0211h.9235v5.9742ZM673.4988,734.3856h-1.378v-8.548c0-.3871.312-.7031.6896-.7031.377,0,.6884.316.6884.7031v8.548ZM678.8582,746.6511l-.3556-.0978h-1.2099v-3.1243h1.5655v3.2221ZM758.1678,754.0006h-.8469v-15.6484c.2664-.0053.5503-.0133.8469-.0214v15.6698ZM767.6004,754.0006h-.9669v-15.9925c.3368-.0162.6602-.0295.9669-.0443v16.0368ZM986.4883,589.001h-4.5948v-4.2257l.2264-.8959,1.4208.2765-.7405-.9254.7405-1.1563-1.4075.1092-.482-1.2677-.5303,1.2033h-1.3594l.9978,1.0185-.679,1.1115,1.1784-.324.1514.4204v4.6556h-4.5961v-23.2052h1.6927l-.786-1.2951v-.9261l.1914-.6174h1.8668l-.1833,1.2341-.0603,1.6044-.6053,1.0499-.8464.6167.6656.9261,1.753.2464h2.7828l1.1477-.308.5437-.8645-.7245-.6789-.6656-1.048-.2423-1.4201.0442-1.358h2.6783v.6174l-.8478,1.4189,1.2696.2109v23.7966ZM978.5965,561.8464l.454-.4935h.9682l-.0723.4935h-1.3499ZM982.7708,561.3529h2.2056l.5129.4935h-2.598l-.1205-.4935ZM986.4883,557.6501h-9.6742v-.2464l.7258-.9266,1.2696-.7393,1.0888-.4955h3.9291l1.3312.5563.9669.6167.3629.5223v.7124ZM1153.9195,764.4488l-2.4171-1.3151v-17.8981l.2409-1.2937.7258-.4941.5437.3709.6656.924.2409,1.9151v17.791ZM1464.2241,758.4184h18.2142v6.4857h-18.2142v-6.4857ZM1464.2241,771.6055h18.2142v6.4843h-18.2142v-6.4843ZM1464.2241,786.0887h18.2142v6.4843h-18.2142v-6.4843ZM1464.2241,799.2742h18.2142v6.4843h-18.2142v-6.4843ZM1485.4729,854.8276h-3.1752v-17.2929h3.1752v17.2929ZM1487.2393,804.2453c-2.7319,0-2.7319-4.3216,0-4.3216,2.7306,0,2.7306,4.3216,0,4.3216ZM1486.9567,786.5212c2.7319,0,2.7319,4.323,0,4.323-2.7306,0-2.7306-4.323,0-4.323ZM1487.2393,797.4718c-2.7319,0-2.7319-4.323,0-4.323,2.7306,0,2.7306,4.323,0,4.323ZM1487.3812,776.8657c-2.7332,0-2.7332-4.3242,0-4.3242s2.7319,4.3242,0,4.3242ZM1487.5232,770.2354c-2.7319,0-2.7319-4.3214,0-4.3214,2.7306,0,2.7306,4.3214,0,4.3214ZM1487.5232,763.8958c-2.7319,0-2.7319-4.323,0-4.323,2.7306,0,2.7306,4.323,0,4.323ZM1495.6387,854.8276h-3.1752v-17.2929h3.1752v17.2929ZM1500.5119,791.2767c-2.7319,0-2.7319-4.323,0-4.323s2.7319,4.323,0,4.323ZM1499.9468,759.285c2.7319,0,2.7319,4.3228,0,4.3228s-2.7319-4.3228,0-4.3228ZM1499.9468,765.6246c2.7319,0,2.7319,4.323,0,4.323s-2.7319-4.323,0-4.323ZM1499.8062,772.3982c2.7318,0,2.7318,4.3216,0,4.3216s-2.7319-4.3216,0-4.3216ZM1500.37,793.2935c2.7319,0,2.7319,4.3228,0,4.3228-2.7306,0-2.7306-4.3228,0-4.3228ZM1500.5119,800.2103c2.7319,0,2.7319,4.3243,0,4.3243s-2.7319-4.3243,0-4.3243ZM1504.9567,854.8276h-3.1738v-17.2929h3.1738v17.2929ZM1523.1025,805.7585h-18.2142v-6.4843h18.2142v6.4843ZM1523.1025,792.573h-18.2142v-6.4843h18.2142v6.4843ZM1523.1025,778.0898h-18.2142v-6.4843h18.2142v6.4843ZM1523.1025,764.9041h-18.2142v-6.4857h18.2142v6.4857ZM1893.3409,842.8486l-.0509-.0629-.4996.4634-3.9988-4.264,4.5063-4.189.0429,8.0525ZM1891.5933,834.1331l-3.9265,3.6506-4.0001-4.2639,3.9265-3.6506,4.0001,4.2639ZM1883.7202,823.3434l4.2266-3.707,3.9532,3.9774-4.2331,3.9372-3.9467-4.2076ZM1891.5933,844.3646l-3.9265,3.6532-4.0001-4.2652,3.9265-3.6506,4.0001,4.2626ZM1893.2873,832.5569l-.4968.4608-3.9988-4.264,4.4528-4.1421.0428,7.9453ZM1893.2325,822.3738l-.0952.0898-3.9198-3.9439,3.9774-3.4885.0376,7.3426ZM1893.1816,812.7933l-5.1586,4.5265-4.2933-4.3216,3.8636-3.5944,4.134,4.4087,1.1062-1.2133-4.0417-4.3121,4.3456-4.0417.0443,8.548ZM1891.5933,762.5031l-3.9265,3.6532-4.0001-4.2666,3.9265-3.6492,4.0001,4.2626ZM1883.3654,751.3383h9.2295l-4.9281,4.5839-4.3014-4.5839ZM1891.5933,772.7357l-3.9265,3.652-4.0001-4.2654,3.9265-3.6506,4.0001,4.264ZM1891.5933,782.9684l-3.9265,3.652-4.0001-4.264,3.9265-3.652,4.0001,4.264ZM1891.5933,793.2011l-3.9265,3.652-4.0001-4.264,3.9265-3.6506,4.0001,4.2626ZM1891.5933,803.4337l-3.9265,3.652-4.0001-4.2626,3.9265-3.6533,4.0001,4.264ZM1893.1266,802.0076l-.3361.3106-3.9988-4.2626,4.2933-3.9921.0416,7.9441ZM1893.0731,791.8258l-.2826.2611-3.9988-4.2652,4.2399-3.9413.0416,7.9454ZM1893.0209,781.6426l-.2304.2116-3.9988-4.264,4.1849-3.8917.0443,7.9441ZM1892.9659,771.4594l-.1754.1607-3.9988-4.264,4.1314-3.842.0428,7.9453ZM1892.9124,761.2763l-.1219.1126-3.9988-4.2654,4.0791-3.7925.0416,7.9453ZM1747.3205,854.8276v-103.4893h133.2849l.5436,103.4893h-133.8284ZM1882.1333,724.0497h10.5822l.0388,7.391h-10.5835l-.0376-7.391ZM1882.2847,752.577l4.1823,4.4621-4.1395,3.8488-.0428-8.3109ZM1882.3369,762.8673l4.13,4.4032-4.0859,3.8006-.0442-8.2038ZM1882.3918,773.1589l4.0752,4.3456-4.0336,3.7497-.0416-8.0953ZM1882.4454,783.4478l4.0215,4.2881-3.9788,3.7015-.0428-7.9896ZM1882.5002,793.7381l3.9667,4.2318-3.9265,3.6507-.0402-7.8825ZM1882.5538,804.0297l3.9131,4.1729-3.8729,3.5997-.0402-7.7727ZM1882.6073,814.2651l4.1448,4.1702-4.1046,3.601-.0402-7.7711ZM1882.6609,824.6102l3.806,4.0591-3.7658,3.5006-.0402-7.5597ZM1882.7144,834.9005l3.7525,4.0001-3.7123,3.4524-.0402-7.4526ZM1882.7708,845.1908l3.6961,3.9426-3.6587,3.4029-.0374-7.3455ZM1891.3469,854.8276h-6.8914l-.7888-.841,3.9265-3.652,4.0001,4.264-.2464.229ZM1893.2901,853.0197l-.4996.462-3.9988-4.2626,4.5599-4.2399.0428,8.1703-.1044-.1299Z"/>
      </g>
    </g>
    <g id="flag">
      <rect class="cls-10" x="-1" y="886" width="1649" height="194"/>
      <rect class="cls-15" x="-1" y="886.0849" width="131.6941" height="76.7495"/>
      <rect class="cls-16" x="-1" y="1002.8781" width="131.6941" height="76.7495"/>
      <rect class="cls-17" x="171.7033" y="886.0849" width="1400.593" height="76.7495"/>
      <rect class="cls-14" x="171.7033" y="1002.8781" width="1400.593" height="76.7495"/>
      <g class="cls-25">
        <polygon class="cls-33" points="1515.3882 962.8344 171.7033 962.8344 171.7033 886.0849 130.6941 886.0849 130.6941 962.8344 -1 962.8344 -1 1002.8781 130.6941 1002.8781 130.6941 1079.6276 171.7033 1079.6276 171.7033 1002.8781 1515.3882 1002.8781 1515.3882 962.8344"/>
      </g>
      <polygon class="cls-19" points="1515.3882 962.8344 171.7033 962.8344 171.7033 886.0849 130.6941 886.0849 130.6941 962.8344 -1 962.8344 -1 1002.8781 130.6941 1002.8781 130.6941 1079.6276 171.7033 1079.6276 171.7033 1002.8781 1515.3882 1002.8781 1515.3882 962.8344"/>
    </g>
    <g id="input-fields">
      <text id="type" class="cls-23" transform="translate(559.02 265.6606)"><tspan class="cls-37" x="0" y="0">A</tspan><tspan class="cls-41" x="35.3613" y="0">T</tspan><tspan x="70.3418" y="0">C Exam</tspan></text>
      <text id="callsign" class="cls-9" transform="translate(333.2705 175.5093)"><tspan x="0" y="0">Arlanda</tspan><tspan class="cls-38" x="292.8096" y="0"> </tspan><tspan class="cls-36" x="311.1997" y="0">T</tspan><tspan x="354.4775" y="0">ower</tspan></text>
      <text id="date" class="cls-30" transform="translate(206.7568 454.2817)"><tspan x="0" y="0">10 </tspan><tspan class="cls-39" x="64.8379" y="0">A</tspan><tspan x="95.4434" y="0">ug 2024</tspan></text>
      <text id="time" class="cls-32" transform="translate(643.4263 454.2817)"><tspan x="0" y="0">17:00 - 19:00 U</tspan><tspan class="cls-40" x="314.2788" y="0">T</tspan><tspan x="341.8589" y="0">C</tspan></text>
      <text id="candidate" class="cls-31" transform="translate(1181.9854 454.2817)"><tspan x="0" y="0">First name</tspan></text>
      <g class="cls-27">
        <rect class="cls-22" x="337.7185" y="209.2045" width="192.8623" height="66.7955"/>
      </g>
    </g>
  </g>
</svg>